SplineFontDB: 3.0
FontName: Comfortaa
FullName: Comfortaa
FamilyName: Comfortaa
Weight: Book
Copyright: Copyright (c) 26.12.2011, Johan Aakerlund (aajohan@gmail.com), with Reserved Font Name "Comfortaa". This Font Software is licensed under the SIL Open Font License, Version 1.1. http://scripts.sil.org/OFL
Version: 2.004 2013
ItalicAngle: 0
UnderlinePosition: -290
UnderlineWidth: 148
Ascent: 1642
Descent: 406
InvalidEm: 0
sfntRevision: 0x00020106
LayerCount: 2
Layer: 0 1 "Back" 1
Layer: 1 1 "Fore" 0
XUID: [1021 167 -2062202749 30444]
StyleMap: 0x0040
FSType: 8
OS2Version: 3
OS2_WeightWidthSlopeOnly: 0
OS2_UseTypoMetrics: 0
CreationTime: 1221315200
ModificationTime: 1489131993
PfmFamily: 17
TTFWeight: 400
TTFWidth: 5
LineGap: 300
VLineGap: 0
Panose: 2 15 6 3 7 2 0 6 0 3
OS2TypoAscent: 2000
OS2TypoAOffset: 0
OS2TypoDescent: -406
OS2TypoDOffset: 0
OS2TypoLinegap: 300
OS2WinAscent: 2000
OS2WinAOffset: 0
OS2WinDescent: 406
OS2WinDOffset: 0
HheadAscent: 2000
HheadAOffset: 0
HheadDescent: 406
HheadDOffset: 0
OS2SubXSize: 1434
OS2SubYSize: 1332
OS2SubXOff: 0
OS2SubYOff: 283
OS2SupXSize: 1434
OS2SupYSize: 1332
OS2SupXOff: 0
OS2SupYOff: 977
OS2StrikeYSize: 103
OS2StrikeYPos: 530
OS2CapHeight: 1600
OS2XHeight: 1120
OS2FamilyClass: 2052
OS2Vendor: '    '
OS2CodePages: 2000019f.4f010000
OS2UnicodeRanges: a00002bf.5000007b.00000000.00000000
Lookup: 258 0 0 "'kern' Horizontal Kerning in Latin lookup 0" { "'kern' Horizontal Kerning in Latin lookup 0 per glyph data 0"  "'kern' Horizontal Kerning in Latin lookup 0 per glyph data 1"  } ['kern' ('latn' <'dflt' > ) ]
MarkAttachClasses: 1
DEI: 91125
TtTable: prep
PUSHW_1
 20
CALL
PUSHW_1
 10
CALL
PUSHW_1
 0
CALL
EndTTInstrs
TtTable: fpgm
PUSHW_1
 0
FDEF
MPPEM
PUSHW_1
 6
LT
IF
PUSHB_2
 1
 1
INSTCTRL
EIF
PUSHW_1
 511
SCANCTRL
PUSHW_1
 68
SCVTCI
PUSHW_2
 6
 3
SDS
SDB
ENDF
PUSHW_1
 1
FDEF
DUP
DUP
RCVT
ROUND[Black]
WCVTP
PUSHB_1
 1
ADD
ENDF
PUSHW_1
 2
FDEF
PUSHW_1
 1
LOOPCALL
POP
ENDF
PUSHW_1
 3
FDEF
DUP
GC[cur]
PUSHB_1
 3
CINDEX
GC[cur]
GT

StartChar: .notdef
Encoding: 65536 -1 0
Width: 2530
VWidth: 4050
Flags: W
LayerCount: 2
Fore
SplineSet
791 2058 m 0,0,1
 791 2010 791 2010 756.5 1975 c 128,-1,2
 722 1940 722 1940 674 1940 c 256,3,4
 626 1940 626 1940 590 1974 c 128,-1,5
 554 2008 554 2008 554 2058 c 0,6,7
 554 2354 554 2354 762.5 2562 c 128,-1,8
 971 2770 971 2770 1266 2770 c 256,9,10
 1562 2770 1562 2770 1771 2561.5 c 128,-1,11
 1980 2353 1980 2353 1980 2058 c 256,12,13
 1980 1762 1980 1762 1768 1554 c 1,14,-1
 1527 1326 l 2,15,16
 1388 1188 1388 1188 1384 988 c 0,17,18
 1384 940 1384 940 1350 906 c 128,-1,19
 1316 872 1316 872 1266 872 c 256,20,21
 1218 872 1218 872 1183 906 c 128,-1,22
 1148 940 1148 940 1148 988 c 0,23,24
 1148 1284 1148 1284 1356 1494 c 1,25,-1
 1604 1721 l 2,26,27
 1740.02857143 1857.02857143 1740.02857143 1857.02857143 1740.02857143 2052.32673469 c 0,28,29
 1740.02857143 2055.15714286 1740.02857143 2055.15714286 1740 2058 c 256,30,31
 1740 2256 1740 2256 1602 2394.5 c 128,-1,32
 1464 2533 1464 2533 1266 2533 c 256,33,34
 1068 2533 1068 2533 929.5 2394.5 c 128,-1,35
 791 2256 791 2256 791 2058 c 0,0,1
1444 574 m 0,36,37
 1444 502 1444 502 1392.5 449 c 128,-1,38
 1341 396 1341 396 1266 396 c 0,39,40
 1194 396 1194 396 1141 448 c 128,-1,41
 1088 500 1088 500 1088 574 c 256,42,43
 1088 648 1088 648 1141 700 c 128,-1,44
 1194 752 1194 752 1266 752 c 0,45,46
 1340 752 1340 752 1392 700 c 128,-1,47
 1444 648 1444 648 1444 574 c 0,36,37
396 238 m 1,48,-1
 2136 238 l 1,49,-1
 2136 2929 l 1,50,-1
 396 2929 l 1,51,-1
 396 238 l 1,48,-1
278 0 m 2,52,53
 230 0 230 0 193 34 c 128,-1,54
 156 68 156 68 156 118 c 2,55,-1
 156 3048 l 2,56,57
 156 3096 156 3096 193 3131 c 128,-1,58
 230 3166 230 3166 278 3166 c 2,59,-1
 2257 3166 l 2,60,61
 2305 3166 2305 3166 2339.5 3131.5 c 128,-1,62
 2374 3097 2374 3097 2374 3048 c 2,63,-1
 2374 118 l 2,64,65
 2374 70 2374 70 2340 35 c 128,-1,66
 2306 0 2306 0 2257 0 c 2,67,-1
 278 0 l 2,52,53
EndSplineSet
Validated: 1
EndChar

StartChar: exclam
Encoding: 33 33 4
Width: 393
VWidth: 2025
Flags: W
LayerCount: 2
Fore
SplineSet
317 119 m 256,0,1
 317 70 317 70 282 35 c 128,-1,2
 247 0 247 0 198 0 c 256,3,4
 149 0 149 0 113.5 34.5 c 128,-1,5
 78 69 78 69 78 119 c 256,6,7
 78 168 78 168 113 202.5 c 128,-1,8
 148 237 148 237 198 237 c 256,9,10
 247 237 247 237 282 202.5 c 128,-1,11
 317 168 317 168 317 119 c 256,0,1
119 1504 m 2,12,13
 119 1536 119 1536 142 1559.5 c 128,-1,14
 165 1583 165 1583 198 1583 c 256,15,16
 230 1583 230 1583 253.5 1560 c 128,-1,17
 277 1537 277 1537 277 1504 c 2,18,-1
 277 394 l 2,19,20
 277 362 277 362 254 340 c 0,21,22
 230 316 230 316 198 317 c 256,23,24
 166 317 166 317 142 340 c 0,25,26
 118 362 118 362 119 394 c 2,27,-1
 119 1504 l 2,12,13
EndSplineSet
Validated: 1
EndChar

StartChar: quotedbl
Encoding: 34 34 5
Width: 552
VWidth: 2025
Flags: W
LayerCount: 2
Fore
SplineSet
218 1207 m 2,0,1
 218 1183 218 1183 200 1165 c 0,2,3
 182 1147 182 1147 158 1148 c 256,4,5
 134 1148 134 1148 116.5 1165 c 128,-1,6
 99 1182 99 1182 99 1207 c 2,7,-1
 78 1496 l 1,8,-1
 78 1504 l 2,9,10
 78 1536 78 1536 102.5 1559.5 c 128,-1,11
 127 1583 127 1583 158 1583 c 256,12,13
 190 1583 190 1583 213.5 1560 c 128,-1,14
 237 1537 237 1537 237 1504 c 2,15,-1
 237 1496 l 1,16,-1
 218 1207 l 2,0,1
455 1207 m 2,17,18
 455 1183 455 1183 437 1165.5 c 128,-1,19
 419 1148 419 1148 396 1148 c 256,20,21
 372 1148 372 1148 354 1165 c 128,-1,22
 336 1182 336 1182 336 1207 c 2,23,-1
 317 1496 l 1,24,-1
 317 1504 l 2,25,26
 317 1536 317 1536 340 1559 c 0,27,28
 364 1583 364 1583 396 1583 c 256,29,30
 428 1583 428 1583 451.5 1560 c 128,-1,31
 475 1537 475 1537 475 1504 c 2,32,-1
 475 1496 l 1,33,-1
 455 1207 l 2,17,18
EndSplineSet
Validated: 1
EndChar

StartChar: numbersign
Encoding: 35 35 6
Width: 1265
VWidth: 2025
Flags: W
LayerCount: 2
Fore
SplineSet
385 78 m 2,0,1
 379 46 379 46 352 23 c 128,-1,2
 325 0 325 0 292 0 c 256,3,4
 260 0 260 0 240 23 c 128,-1,5
 220 46 220 46 226 78 c 2,6,-1
 297 475 l 1,7,-1
 139 475 l 2,8,9
 107 475 107 475 87 499 c 0,10,11
 72 516 72 516 71 539 c 0,12,13
 71 546 71 546 72 554 c 0,14,15
 78 586 78 586 106.5 609.5 c 128,-1,16
 135 633 135 633 166 633 c 2,17,-1
 325 633 l 1,18,-1
 380 950 l 1,19,-1
 222 950 l 2,20,21
 190 950 190 950 171 973 c 128,-1,22
 152 996 152 996 156 1029 c 0,23,24
 162 1061 162 1061 190 1084.5 c 128,-1,25
 218 1108 218 1108 249 1108 c 2,26,-1
 408 1108 l 1,27,-1
 478 1504 l 2,28,29
 484 1536 484 1536 511 1559.5 c 128,-1,30
 538 1583 538 1583 571 1583 c 256,31,32
 603 1583 603 1583 622.5 1560 c 128,-1,33
 642 1537 642 1537 636 1504 c 2,34,-1
 567 1108 l 1,35,-1
 805 1108 l 1,36,-1
 873 1504 l 2,37,38
 879 1536 879 1536 907 1559 c 0,39,40
 936 1583 936 1583 968 1583 c 256,41,42
 1000 1583 1000 1583 1018.5 1560 c 128,-1,43
 1037 1537 1037 1537 1032 1504 c 2,44,-1
 964 1108 l 1,45,-1
 1122 1108 l 2,46,47
 1154 1108 1154 1108 1173 1084 c 0,48,49
 1187 1066 1187 1066 1186 1043 c 0,50,51
 1186 1036 1186 1036 1185 1029 c 0,52,53
 1180 997 1180 997 1153 973.5 c 128,-1,54
 1126 950 1126 950 1091 950 c 2,55,-1
 935 950 l 1,56,-1
 879 633 l 1,57,-1
 1037 633 l 2,58,59
 1069 633 1069 633 1088.5 609.5 c 128,-1,60
 1108 586 1108 586 1102 554 c 256,61,62
 1096 522 1096 522 1068.5 498.5 c 128,-1,63
 1041 475 1041 475 1009 475 c 2,64,-1
 851 475 l 1,65,-1
 782 78 l 2,66,67
 776 46 776 46 748 23 c 128,-1,68
 720 0 720 0 687 0 c 256,69,70
 655 0 655 0 636 23 c 128,-1,71
 617 46 617 46 622 78 c 2,72,-1
 693 475 l 1,73,-1
 455 475 l 1,74,-1
 385 78 l 2,0,1
538 950 m 1,75,-1
 483 633 l 1,76,-1
 720 633 l 1,77,-1
 776 950 l 1,78,-1
 538 950 l 1,75,-1
EndSplineSet
Validated: 1
EndChar

StartChar: dollar
Encoding: 36 36 7
Width: 1047
VWidth: 2025
Flags: W
LayerCount: 2
Fore
SplineSet
475 1 m 1,0,1
 465 1 465 1 455 2 c 0,2,3
 259 18 259 18 133 168 c 0,4,5
 112 190 112 190 95 216 c 0,6,7
 79 237 79 237 78 264 c 0,8,9
 78 296 78 296 102.5 320 c 128,-1,10
 127 344 127 344 158 344 c 0,11,12
 200 344 200 344 226 307 c 0,13,14
 239 288 239 288 253 271 c 0,15,16
 336 170 336 170 475 160 c 1,17,-1
 475 797 l 1,18,19
 342 823 342 823 251 930 c 0,20,21
 156 1041 156 1041 156 1180 c 0,22,23
 156 1199 156 1199 158 1218 c 0,24,25
 172 1381 172 1381 297 1487 c 0,26,27
 377 1554 377 1554 475 1574 c 1,28,-1
 475 1662 l 2,29,30
 475 1694 475 1694 498.5 1717.5 c 128,-1,31
 522 1741 522 1741 554 1741 c 256,32,33
 586 1741 586 1741 609.5 1717.5 c 128,-1,34
 633 1694 633 1694 633 1662 c 2,35,-1
 633 1573 l 1,36,37
 766 1547 766 1547 855 1443 c 0,38,39
 877 1417 877 1417 892 1388 c 0,40,41
 904 1369 904 1369 904 1346 c 0,42,43
 904 1314 904 1314 881.5 1290 c 128,-1,44
 859 1266 859 1266 826 1266 c 256,45,46
 795 1266 795 1266 772 1290 c 0,47,48
 763 1298 763 1298 757 1307 c 0,49,50
 747 1324 747 1324 734 1340 c 0,51,52
 690 1389 690 1389 633 1409 c 1,53,-1
 633 931 l 1,54,55
 764 894 764 894 857 784 c 0,56,57
 970 651 970 651 970 482 c 0,58,59
 970 459 970 459 968 437 c 0,60,61
 952 241 952 241 803 115 c 0,62,63
 726 50 726 50 633 20 c 1,64,-1
 633 -78 l 2,65,66
 633 -110 633 -110 609.5 -134 c 128,-1,67
 586 -158 586 -158 554 -158 c 256,68,69
 522 -158 522 -158 498.5 -135.5 c 128,-1,70
 475 -113 475 -113 475 -78 c 2,71,-1
 475 1 l 1,0,1
475 1409 m 1,72,73
 435 1395 435 1395 400 1366 c 0,74,75
 325 1303 325 1303 317 1205 c 0,76,77
 317 1194 317 1194 317 1183 c 0,78,79
 317 1098 317 1098 373 1032 c 0,80,81
 415 982 415 982 475 962 c 1,82,-1
 475 1409 l 1,72,73
633 190 m 1,83,84
 667 206 667 206 698 233 c 0,85,86
 798 316 798 316 810 449 c 0,87,88
 811 464 811 464 811 479 c 0,89,90
 811 594 811 594 737 681 c 0,91,92
 691 732 691 732 633 762 c 1,93,-1
 633 190 l 1,83,84
EndSplineSet
Validated: 1
EndChar

StartChar: percent
Encoding: 37 37 8
Width: 1740
VWidth: 2025
Flags: W
LayerCount: 2
Fore
SplineSet
871 1187 m 256,0,1
 871 1023 871 1023 755 907 c 128,-1,2
 639 791 639 791 475 791 c 256,3,4
 311 791 311 791 194.5 907 c 128,-1,5
 78 1023 78 1023 78 1187 c 256,6,7
 78 1351 78 1351 194.5 1467 c 128,-1,8
 311 1583 311 1583 475 1583 c 256,9,10
 639 1583 639 1583 755 1467 c 128,-1,11
 871 1351 871 1351 871 1187 c 256,0,1
871 396 m 256,12,13
 871 559 871 559 987 675 c 128,-1,15
 1103 791 1103 791 1263 791 c 0,16,17
 1265 791 1265 791 1266 791 c 256,18,19
 1430 791 1430 791 1546 675.5 c 128,-1,20
 1662 560 1662 560 1662 396 c 256,21,22
 1662 232 1662 232 1546.5 116 c 128,-1,23
 1431 0 1431 0 1266 0 c 256,24,25
 1102 0 1102 0 986.5 116 c 128,-1,26
 871 232 871 232 871 396 c 256,12,13
475 1425 m 256,27,28
 377 1425 377 1425 307 1355 c 128,-1,29
 237 1285 237 1285 237 1187 c 256,30,31
 237 1089 237 1089 307 1019.5 c 128,-1,32
 377 950 377 950 475 950 c 256,33,34
 573 950 573 950 642.5 1019 c 128,-1,35
 712 1088 712 1088 712 1187 c 256,36,37
 712 1285 712 1285 642.5 1355 c 128,-1,38
 573 1425 573 1425 475 1425 c 256,27,28
1266 633 m 256,39,40
 1168 633 1168 633 1098.5 563 c 128,-1,41
 1029 493 1029 493 1029 396 c 256,42,43
 1029 298 1029 298 1099 228 c 128,-1,44
 1169 158 1169 158 1266 158 c 256,45,46
 1364 158 1364 158 1434 228 c 0,47,48
 1504 299 1504 299 1504 396 c 256,49,50
 1504 494 1504 494 1434 563.5 c 128,-1,51
 1364 633 1364 633 1266 633 c 256,39,40
317 0 m 256,52,53
 285 0 285 0 261 23 c 128,-1,54
 237 46 237 46 237 78 c 0,55,56
 237 107 237 107 257 133 c 2,57,-1
 1360 1550 l 2,58,59
 1389 1582 1389 1582 1425 1583 c 0,60,61
 1457 1583 1457 1583 1480.5 1560 c 128,-1,62
 1504 1537 1504 1537 1504 1504 c 0,63,64
 1504 1478 1504 1478 1488 1456 c 2,65,-1
 377 26 l 1,66,67
 349 0 349 0 317 0 c 256,52,53
EndSplineSet
Validated: 1
EndChar

StartChar: ampersand
Encoding: 38 38 9
Width: 1423
VWidth: 2025
Flags: W
LayerCount: 2
Fore
SplineSet
374 1086 m 2,0,-1
 497 964 l 1,1,-1
 615 1057 l 2,2,3
 712 1134 712 1134 712 1225 c 0,4,5
 712 1227 l 0,6,7
 712 1308 712 1308 655 1366.5 c 128,-1,8
 598 1425 598 1425 514 1425 c 256,9,10
 433 1425 433 1425 375 1367 c 0,11,12
 317 1310 317 1310 317 1227 c 256,13,14
 317 1143 317 1143 374 1086 c 2,0,-1
848 387 m 1,15,-1
 480 756 l 1,16,-1
 368 671 l 2,17,18
 237 569 237 569 237 455 c 0,19,20
 237 320 237 320 318.5 239 c 128,-1,21
 400 158 400 158 514 158 c 256,22,23
 629 158 629 158 710 239 c 1,24,-1
 848 387 l 1,15,-1
607 853 m 1,25,-1
 958 503 l 1,26,-1
 1132 689 l 2,27,28
 1155 711 1155 711 1187 712 c 256,29,30
 1219 712 1219 712 1242.5 689 c 128,-1,31
 1266 666 1266 666 1266 633 c 0,32,33
 1266 603 1266 603 1247 580 c 2,34,-1
 1069 391 l 1,35,-1
 1324 133 l 2,36,37
 1346 111 1346 111 1346 78 c 0,38,39
 1346 47 1346 47 1322 24 c 0,40,41
 1300 0 1300 0 1266 0 c 0,42,43
 1234 0 1234 0 1211 22 c 2,44,-1
 960 274 l 1,45,-1
 822 129 l 1,46,47
 692 0 692 0 514 0 c 256,48,49
 334 0 334 0 206 127.5 c 128,-1,50
 78 255 78 255 78 455 c 0,51,52
 78 635 78 635 266 784 c 2,53,-1
 371 865 l 1,54,-1
 262 976 l 2,55,56
 158 1081 158 1081 158 1224 c 0,57,-1
 158 1227 l 256,58,59
 158 1375 158 1375 263 1479 c 0,60,61
 366 1583 366 1583 514 1583 c 256,62,63
 662 1583 662 1583 767 1479 c 0,64,65
 871 1376 871 1376 871 1227 c 0,66,67
 871 1069 871 1069 726 946 c 1,68,-1
 607 853 l 1,25,-1
EndSplineSet
Validated: 1
EndChar

StartChar: quotesingle
Encoding: 39 39 10
Width: 314
VWidth: 2025
Flags: W
LayerCount: 2
Fore
SplineSet
218 1207 m 2,0,1
 218 1183 218 1183 200 1165 c 0,2,3
 182 1147 182 1147 158 1148 c 256,4,5
 134 1148 134 1148 116.5 1165 c 128,-1,6
 99 1182 99 1182 99 1207 c 2,7,-1
 78 1496 l 1,8,-1
 78 1504 l 2,9,10
 78 1536 78 1536 102.5 1559.5 c 128,-1,11
 127 1583 127 1583 158 1583 c 256,12,13
 190 1583 190 1583 213.5 1560 c 128,-1,14
 237 1537 237 1537 237 1504 c 2,15,-1
 237 1496 l 1,16,-1
 218 1207 l 2,0,1
EndSplineSet
Validated: 1
EndChar

StartChar: parenleft
Encoding: 40 40 11
Width: 552
VWidth: 2025
Flags: W
LayerCount: 2
Fore
SplineSet
321 1532 m 0,0,1
 327 1548 327 1548 338 1560 c 0,2,3
 362 1583 362 1583 394 1583 c 256,4,5
 426 1583 426 1583 450 1560 c 128,-1,6
 474 1537 474 1537 474 1504 c 0,7,8
 472 1480 472 1480 461 1461 c 0,9,10
 235 1008 235 1008 235 555 c 0,11,12
 235 100 235 100 463 -355 c 0,13,14
 474 -374 474 -374 474 -396 c 0,15,16
 474 -428 474 -428 450.5 -451.5 c 128,-1,17
 427 -475 427 -475 394 -475 c 256,18,19
 362 -475 362 -475 338 -451 c 0,20,21
 326 -437 326 -437 321 -421 c 0,22,23
 82 68 82 68 78 556 c 256,24,25
 82 1045 82 1045 321 1532 c 0,0,1
EndSplineSet
Validated: 1
EndChar

StartChar: parenright
Encoding: 41 41 12
Width: 552
VWidth: 2025
Flags: W
LayerCount: 2
Fore
SplineSet
233 1532 m 0,0,1
 474 1045 474 1045 475 556 c 256,2,3
 475 69 475 69 233 -421 c 0,4,5
 225 -437 225 -437 214 -451 c 0,6,7
 190 -475 190 -475 158 -475 c 256,8,9
 126 -475 126 -475 102 -452 c 128,-1,10
 78 -429 78 -429 78 -396 c 0,11,12
 78 -373 78 -373 90 -355 c 0,13,14
 319 100 319 100 319 555 c 0,15,16
 319 1008 319 1008 92 1461 c 0,17,18
 81 1480 81 1480 78 1504 c 0,19,20
 78 1536 78 1536 102.5 1559.5 c 128,-1,21
 127 1583 127 1583 158 1583 c 256,22,23
 190 1583 190 1583 214 1560 c 0,24,25
 227 1548 227 1548 233 1532 c 0,0,1
EndSplineSet
Validated: 1
EndChar

StartChar: asterisk
Encoding: 42 42 13
Width: 769
VWidth: 2025
Flags: W
LayerCount: 2
Fore
SplineSet
357 1257 m 1,0,-1
 164 1264 l 2,1,2
 150 1265 150 1265 139 1270 c 0,3,4
 109 1281 109 1281 93 1311 c 0,5,6
 84 1328 84 1328 83 1346 c 0,7,8
 83 1359 83 1359 89 1371 c 0,9,10
 100 1403 100 1403 130 1417 c 128,-1,11
 160 1431 160 1431 190 1419 c 0,12,13
 204 1415 204 1415 214 1407 c 2,14,-1
 369 1291 l 1,15,-1
 313 1477 l 2,16,17
 309 1490 309 1490 309 1504 c 0,18,19
 309 1536 309 1536 331.5 1559.5 c 128,-1,20
 354 1583 354 1583 387 1583 c 256,21,22
 419 1583 419 1583 442.5 1560 c 128,-1,23
 466 1537 466 1537 466 1504 c 0,24,25
 466 1490 466 1490 462 1477 c 2,26,-1
 404 1290 l 1,27,-1
 561 1407 l 2,28,29
 572 1415 572 1415 584 1419 c 0,30,31
 614 1430 614 1430 644.5 1416.5 c 128,-1,32
 675 1403 675 1403 685 1371 c 0,33,34
 691 1357 691 1357 691 1346 c 0,35,36
 691 1329 691 1329 683 1311 c 0,37,38
 669 1281 669 1281 638 1270 c 0,39,40
 623 1266 623 1266 611 1264 c 2,41,-1
 418 1257 l 1,42,-1
 576 1148 l 2,43,44
 588 1140 588 1140 598 1128 c 0,45,46
 618 1102 618 1102 613.5 1069.5 c 128,-1,47
 609 1037 609 1037 582 1017 c 0,48,49
 560 1000 560 1000 524 1001 c 0,50,51
 492 1005 492 1005 472 1031 c 0,52,53
 463 1043 463 1043 459 1055 c 2,54,-1
 388 1233 l 1,55,-1
 317 1055 l 2,56,57
 313 1042 313 1042 303 1031 c 0,58,59
 283 1001 283 1001 239 1000 c 0,60,61
 213 1000 213 1000 192 1017 c 0,62,63
 166 1037 166 1037 162 1069.5 c 128,-1,64
 158 1102 158 1102 178 1128 c 0,65,66
 187 1140 187 1140 198 1148 c 2,67,-1
 357 1257 l 1,0,-1
EndSplineSet
Validated: 1
EndChar

StartChar: plus
Encoding: 43 43 14
Width: 1106
VWidth: 2025
Flags: W
LayerCount: 2
Fore
SplineSet
475 1187 m 2,0,1
 475 1219 475 1219 498.5 1242.5 c 128,-1,2
 522 1266 522 1266 554 1266 c 256,3,4
 586 1266 586 1266 609.5 1243 c 128,-1,5
 633 1220 633 1220 633 1187 c 2,6,-1
 633 871 l 1,7,-1
 950 871 l 2,8,9
 982 871 982 871 1005 847 c 0,10,11
 1029 823 1029 823 1029 791 c 256,12,13
 1029 759 1029 759 1006 735.5 c 128,-1,14
 983 712 983 712 950 712 c 2,15,-1
 633 712 l 1,16,-1
 633 396 l 2,17,18
 633 364 633 364 609.5 340.5 c 128,-1,19
 586 317 586 317 554 317 c 256,20,21
 522 317 522 317 499 340 c 0,22,23
 475 364 475 364 475 396 c 2,24,-1
 475 712 l 1,25,-1
 158 712 l 2,26,27
 126 712 126 712 102 736 c 0,28,29
 78 758 78 758 78 791 c 256,30,31
 78 823 78 823 102.5 847 c 128,-1,32
 127 871 127 871 158 871 c 2,33,-1
 475 871 l 1,34,-1
 475 1187 l 2,0,1
EndSplineSet
Validated: 1
EndChar

StartChar: comma
Encoding: 44 44 15
Width: 393
VWidth: 2025
Flags: W
LayerCount: 2
Fore
SplineSet
115 34 m 0,0,1
 81 68 81 68 78 119 c 256,2,3
 78 168 78 168 113 202.5 c 128,-1,4
 148 237 148 237 198 237 c 256,5,6
 247 237 247 237 282 202.5 c 128,-1,7
 317 168 317 168 317 119 c 0,8,9
 317 -75 317 -75 230 -206 c 0,10,11
 212 -238 212 -238 178 -237 c 0,12,13
 154 -237 154 -237 136.5 -220 c 128,-1,14
 119 -203 119 -203 119 -178 c 256,15,16
 119 -157 119 -157 137 -137 c 0,17,18
 166 -104 166 -104 166 -69 c 0,19,20
 166 -68 166 -68 166 -67 c 0,21,22
 166 -19 166 -19 115 34 c 0,0,1
EndSplineSet
Validated: 1
EndChar

StartChar: hyphen
Encoding: 45 45 16
AltUni2: 0000ad.ffffffff.0
Width: 789
VWidth: 2025
Flags: W
LayerCount: 2
Fore
SplineSet
158 475 m 2,0,1
 126 475 126 475 102 498.5 c 128,-1,2
 78 522 78 522 78 554 c 256,3,4
 78 586 78 586 102.5 609.5 c 128,-1,5
 127 633 127 633 158 633 c 2,6,-1
 633 633 l 2,7,8
 665 633 665 633 688.5 609.5 c 128,-1,9
 712 586 712 586 712 554 c 256,10,11
 712 522 712 522 689 498.5 c 128,-1,12
 666 475 666 475 633 475 c 2,13,-1
 158 475 l 2,0,1
EndSplineSet
Validated: 1
EndChar

StartChar: period
Encoding: 46 46 17
Width: 393
VWidth: 2025
Flags: W
LayerCount: 2
Fore
SplineSet
317 119 m 256,0,1
 317 70 317 70 282 35 c 128,-1,2
 247 0 247 0 198 0 c 256,3,4
 149 0 149 0 113.5 34.5 c 128,-1,5
 78 69 78 69 78 119 c 256,6,7
 78 168 78 168 113 202.5 c 128,-1,8
 148 237 148 237 198 237 c 256,9,10
 247 237 247 237 282 202.5 c 128,-1,11
 317 168 317 168 317 119 c 256,0,1
EndSplineSet
Validated: 1
EndChar

StartChar: slash
Encoding: 47 47 18
Width: 947
VWidth: 2025
Flags: W
LayerCount: 2
Fore
SplineSet
736 1560 m 0,0,1
 758 1583 758 1583 791 1583 c 256,2,3
 823 1583 823 1583 847 1560 c 128,-1,4
 871 1537 871 1537 871 1504 c 0,5,6
 871 1486 871 1486 863 1470 c 2,7,-1
 230 -114 l 2,8,9
 224 -125 224 -125 214 -135 c 0,10,11
 190 -159 190 -159 158 -158 c 256,12,13
 126 -158 126 -158 102 -135.5 c 128,-1,14
 78 -113 78 -113 78 -78 c 0,15,16
 78 -61 78 -61 86 -46 c 2,17,-1
 719 1537 l 2,18,19
 725 1549 725 1549 736 1560 c 0,0,1
EndSplineSet
Validated: 1
EndChar

StartChar: zero
Encoding: 48 48 19
Width: 1106
VWidth: 2025
Flags: W
LayerCount: 2
Fore
SplineSet
78 791 m 256,0,1
 78 1266 78 1266 274 1467 c 0,2,3
 389 1582 389 1582 551 1583 c 0,4,5
 552 1583 552 1583 554 1583 c 256,6,7
 718 1583 718 1583 834 1467 c 0,8,9
 1029 1266 1029 1266 1029 791 c 256,10,11
 1029 316 1029 316 834 117 c 0,12,13
 717 0 717 0 554 0 c 256,14,15
 390 0 390 0 274 117 c 0,16,17
 78 316 78 316 78 791 c 256,0,1
554 1425 m 256,18,19
 456 1425 456 1425 386 1355 c 1,20,21
 238 1187 238 1187 237 791 c 256,22,23
 237 395 237 395 386 228 c 1,24,25
 455 159 455 159 554 158 c 256,26,27
 652 158 652 158 722 228 c 1,28,29
 870 394 870 394 871 787 c 0,30,31
 871 788 871 788 871 791 c 256,32,33
 871 1187 871 1187 722 1355 c 1,34,35
 652 1425 652 1425 554 1425 c 256,18,19
EndSplineSet
Validated: 1
EndChar

StartChar: one
Encoding: 49 49 20
Width: 552
VWidth: 2025
Flags: W
LayerCount: 2
Fore
SplineSet
475 78 m 2,0,1
 475 46 475 46 452 23 c 128,-1,2
 429 0 429 0 396 0 c 256,3,4
 364 0 364 0 340.5 23 c 128,-1,5
 317 46 317 46 317 78 c 2,6,-1
 317 1394 l 1,7,-1
 189 1351 l 2,8,9
 174 1345 174 1345 158 1346 c 0,10,11
 126 1346 126 1346 102 1369 c 0,12,13
 78 1393 78 1393 78 1425 c 256,14,15
 78 1457 78 1457 104 1481 c 0,16,17
 117 1492 117 1492 131 1498 c 2,18,-1
 367 1578 l 2,19,20
 380 1583 380 1583 396 1583 c 0,21,22
 428 1583 428 1583 451.5 1560 c 128,-1,23
 475 1537 475 1537 475 1504 c 2,24,-1
 475 78 l 2,0,1
EndSplineSet
Validated: 1
EndChar

StartChar: two
Encoding: 50 50 21
Width: 1106
VWidth: 2025
Flags: W
LayerCount: 2
Fore
SplineSet
950 158 m 2,0,1
 982 158 982 158 1005.5 135.5 c 128,-1,2
 1029 113 1029 113 1029 78 c 256,3,4
 1029 46 1029 46 1006 23 c 128,-1,5
 983 0 983 0 950 0 c 2,6,-1
 158 0 l 2,7,8
 126 0 126 0 102 23 c 128,-1,9
 78 46 78 46 78 78 c 256,10,11
 78 111 78 111 103 137 c 2,12,-1
 778 883 l 1,13,14
 871 975 871 975 871 1106 c 0,15,16
 871 1107 871 1107 871 1108 c 256,17,18
 871 1241 871 1241 778 1333 c 128,-1,19
 685 1425 685 1425 554 1425 c 256,20,21
 421 1425 421 1425 329 1332 c 128,-1,22
 237 1239 237 1239 237 1108 c 0,23,24
 237 1076 237 1076 214 1053 c 0,25,26
 190 1029 190 1029 158 1029 c 256,27,28
 126 1029 126 1029 102 1051.5 c 128,-1,29
 78 1074 78 1074 78 1108 c 0,30,31
 78 1305 78 1305 217.5 1444 c 128,-1,32
 357 1583 357 1583 554 1583 c 256,33,34
 751 1583 751 1583 890 1444 c 128,-1,35
 1029 1305 1029 1305 1029 1108 c 256,36,37
 1029 910 1029 910 888 772 c 1,38,-1
 338 158 l 1,39,-1
 950 158 l 2,0,1
EndSplineSet
Validated: 1
EndChar

StartChar: three
Encoding: 51 51 22
Width: 1106
VWidth: 2025
Flags: W
LayerCount: 2
Fore
SplineSet
554 791 m 0,0,1
 522 791 522 791 499 815 c 0,2,3
 475 839 475 839 475 871 c 256,4,5
 475 903 475 903 498.5 926.5 c 128,-1,6
 522 950 522 950 554 950 c 0,7,8
 652 950 652 950 721.5 1019 c 128,-1,9
 791 1088 791 1088 791 1187 c 256,10,11
 791 1285 791 1285 721.5 1355 c 128,-1,12
 652 1425 652 1425 554 1425 c 256,13,14
 456 1425 456 1425 386.5 1355 c 128,-1,15
 317 1285 317 1285 317 1187 c 0,16,17
 317 1155 317 1155 293 1132 c 0,18,19
 271 1108 271 1108 237 1108 c 256,20,21
 205 1108 205 1108 181.5 1132 c 128,-1,22
 158 1156 158 1156 158 1187 c 0,23,24
 158 1351 158 1351 274 1467 c 128,-1,25
 390 1583 390 1583 554 1583 c 256,26,27
 718 1583 718 1583 834 1467 c 128,-1,28
 950 1351 950 1351 950 1187 c 0,29,30
 950 1013 950 1013 805 879 c 1,31,32
 851 851 851 851 890 811 c 0,33,34
 1029 671 1029 671 1029 475 c 256,35,36
 1029 278 1029 278 890 139 c 128,-1,37
 751 0 751 0 554 0 c 256,38,39
 357 0 357 0 217.5 139 c 128,-1,40
 78 278 78 278 78 475 c 0,41,42
 78 507 78 507 102.5 530.5 c 128,-1,43
 127 554 127 554 158 554 c 256,44,45
 190 554 190 554 213.5 531.5 c 128,-1,46
 237 509 237 509 237 475 c 0,47,48
 237 342 237 342 330 250 c 128,-1,49
 423 158 423 158 554 158 c 256,50,51
 687 158 687 158 779 251 c 128,-1,52
 871 344 871 344 871 475 c 256,53,54
 871 608 871 608 779 699.5 c 128,-1,55
 687 791 687 791 554 791 c 0,0,1
EndSplineSet
Validated: 1
EndChar

StartChar: four
Encoding: 52 52 23
Width: 1265
VWidth: 2025
Flags: W
LayerCount: 2
Fore
SplineSet
791 554 m 1,0,-1
 791 1251 l 1,1,-1
 311 554 l 1,2,-1
 791 554 l 1,0,-1
158 396 m 2,3,4
 126 396 126 396 102 419 c 128,-1,5
 78 442 78 442 78 475 c 0,6,7
 78 501 78 501 94 522 c 2,8,-1
 806 1550 l 2,9,10
 829 1582 829 1582 871 1583 c 0,11,12
 903 1583 903 1583 926.5 1560 c 128,-1,13
 950 1537 950 1537 950 1504 c 2,14,-1
 950 554 l 1,15,-1
 1108 554 l 2,16,17
 1140 554 1140 554 1163.5 531.5 c 128,-1,18
 1187 509 1187 509 1187 475 c 256,19,20
 1187 443 1187 443 1164.5 419.5 c 128,-1,21
 1142 396 1142 396 1108 396 c 2,22,-1
 950 396 l 1,23,-1
 950 78 l 2,24,25
 950 46 950 46 926 23 c 128,-1,26
 902 0 902 0 871 0 c 256,27,28
 839 0 839 0 815 23 c 128,-1,29
 791 46 791 46 791 78 c 2,30,-1
 791 396 l 1,31,-1
 158 396 l 2,3,4
EndSplineSet
Validated: 1
EndChar

StartChar: five
Encoding: 53 53 24
Width: 1186
VWidth: 2025
Flags: W
LayerCount: 2
Fore
SplineSet
950 1583 m 2,0,1
 982 1583 982 1583 1005.5 1560 c 128,-1,2
 1029 1537 1029 1537 1029 1504 c 256,3,4
 1029 1472 1029 1472 1006 1448.5 c 128,-1,5
 983 1425 983 1425 950 1425 c 2,6,-1
 317 1425 l 1,7,-1
 317 1029 l 1,8,-1
 594 1029 l 2,9,10
 806 1029 806 1029 957 878 c 0,11,12
 1108 726 1108 726 1108 514 c 256,13,14
 1108 302 1108 302 957 151 c 0,15,16
 805 0 805 0 594 0 c 256,17,18
 382 0 382 0 230 150.5 c 128,-1,19
 78 301 78 301 78 514 c 0,20,21
 78 546 78 546 102.5 570 c 128,-1,22
 127 594 127 594 158 594 c 256,23,24
 190 594 190 594 214 570 c 0,25,26
 238 546 238 546 237 514 c 0,27,28
 237 366 237 366 342 262 c 0,29,30
 445 158 445 158 594 158 c 256,31,32
 742 158 742 158 846 263 c 0,33,34
 950 366 950 366 950 514 c 256,35,36
 950 662 950 662 845 767 c 0,37,38
 740 871 740 871 594 871 c 2,39,-1
 237 871 l 2,40,41
 205 871 205 871 182 894 c 0,42,43
 158 916 158 916 158 950 c 2,44,-1
 158 1504 l 2,45,46
 158 1536 158 1536 182 1559 c 0,47,48
 206 1583 206 1583 237 1583 c 2,49,-1
 950 1583 l 2,0,1
EndSplineSet
Validated: 1
EndChar

StartChar: six
Encoding: 54 54 25
Width: 1106
VWidth: 2025
Flags: W
LayerCount: 2
Fore
SplineSet
466 943 m 1,0,1
 508 950 508 950 554 950 c 0,2,3
 751 950 751 950 890 810.5 c 128,-1,4
 1029 671 1029 671 1029 475 c 256,5,6
 1029 278 1029 278 890 139 c 128,-1,7
 751 0 751 0 554 0 c 256,8,9
 357 0 357 0 217.5 139 c 128,-1,10
 78 278 78 278 78 475 c 0,11,12
 79 621 79 621 156 734 c 1,13,-1
 641 1539 l 2,14,15
 647 1550 647 1550 657 1560 c 0,16,17
 679 1583 679 1583 712 1583 c 256,18,19
 744 1583 744 1583 767.5 1560 c 128,-1,20
 791 1537 791 1537 791 1504 c 0,21,22
 791 1481 791 1481 782 1463 c 2,23,-1
 466 943 l 1,0,1
871 475 m 256,24,25
 871 608 871 608 778 699.5 c 128,-1,26
 685 791 685 791 554 791 c 256,27,28
 421 791 421 791 329 699 c 128,-1,29
 237 607 237 607 237 475 c 256,30,31
 237 342 237 342 330 250 c 128,-1,32
 423 158 423 158 554 158 c 256,33,34
 687 158 687 158 779 250 c 128,-1,35
 871 342 871 342 871 475 c 256,24,25
EndSplineSet
Validated: 1
EndChar

StartChar: seven
Encoding: 55 55 26
Width: 1106
VWidth: 2025
Flags: W
LayerCount: 2
Fore
SplineSet
214 24 m 0,0,1
 190 0 190 0 158 0 c 256,2,3
 126 0 126 0 102 23 c 128,-1,4
 78 46 78 46 78 78 c 0,5,6
 78 101 78 101 95 127 c 2,7,-1
 816 1425 l 1,8,-1
 158 1425 l 2,9,10
 126 1425 126 1425 102 1448 c 0,11,12
 78 1472 78 1472 78 1504 c 256,13,14
 78 1536 78 1536 102.5 1559.5 c 128,-1,15
 127 1583 127 1583 158 1583 c 2,16,-1
 950 1583 l 2,17,18
 982 1583 982 1583 1005.5 1560 c 128,-1,19
 1029 1537 1029 1537 1029 1504 c 0,20,21
 1029 1480 1029 1480 1017 1461 c 2,22,-1
 230 44 l 2,23,24
 222 32 222 32 214 24 c 0,0,1
EndSplineSet
Validated: 1
EndChar

StartChar: eight
Encoding: 56 56 27
Width: 1106
VWidth: 2025
Flags: W
LayerCount: 2
Fore
SplineSet
554 1425 m 256,0,1
 456 1425 456 1425 386.5 1355 c 128,-1,2
 317 1285 317 1285 317 1187 c 256,3,4
 317 1089 317 1089 386.5 1019.5 c 128,-1,5
 456 950 456 950 554 950 c 256,6,7
 652 950 652 950 721.5 1019 c 128,-1,8
 791 1088 791 1088 791 1187 c 256,9,10
 791 1285 791 1285 721.5 1355 c 128,-1,11
 652 1425 652 1425 554 1425 c 256,0,1
554 791 m 256,12,13
 421 791 421 791 329 699 c 128,-1,14
 237 607 237 607 237 475 c 256,15,16
 237 342 237 342 330 250 c 128,-1,17
 423 158 423 158 554 158 c 256,18,19
 687 158 687 158 779 251 c 128,-1,20
 871 344 871 344 871 475 c 256,21,22
 871 608 871 608 779 699.5 c 128,-1,23
 687 791 687 791 554 791 c 256,12,13
303 879 m 1,24,25
 288 892 288 892 274 906 c 0,26,27
 158 1023 158 1023 158 1185 c 0,28,29
 158 1187 l 256,30,31
 158 1351 158 1351 274 1467 c 128,-1,32
 390 1583 390 1583 554 1583 c 256,33,34
 718 1583 718 1583 834 1467 c 128,-1,35
 950 1351 950 1351 950 1187 c 256,36,37
 950 1023 950 1023 834 906 c 0,38,39
 819 890 819 890 805 879 c 1,40,41
 851 851 851 851 890 811 c 0,42,43
 1029 671 1029 671 1029 475 c 256,44,45
 1029 278 1029 278 890 139 c 128,-1,46
 751 0 751 0 554 0 c 256,47,48
 357 0 357 0 217.5 139 c 128,-1,49
 78 278 78 278 78 475 c 256,50,51
 78 476 78 476 78 478 c 0,52,53
 77.9929577465 479.366197183 77.9929577465 479.366197183 77.9929577465 480.729666733 c 0,54,55
 77.9929577465 672.978873239 77.9929577465 672.978873239 218 811 c 0,56,57
 261 854 261 854 303 879 c 1,24,25
EndSplineSet
Validated: 1
EndChar

StartChar: nine
Encoding: 57 57 28
Width: 1106
VWidth: 2025
Flags: W
LayerCount: 2
Fore
SplineSet
642 641 m 1,0,1
 600 633 600 633 554 633 c 0,2,3
 357 633 357 633 217.5 771.5 c 128,-1,4
 78 910 78 910 78 1108 c 256,5,6
 78 1305 78 1305 217.5 1444 c 128,-1,7
 357 1583 357 1583 554 1583 c 256,8,9
 751 1583 751 1583 890 1444 c 128,-1,10
 1029 1305 1029 1305 1029 1108 c 0,11,12
 1029 962 1029 962 954 849 c 1,13,-1
 467 44 l 2,14,15
 461 34 461 34 452 24 c 0,16,17
 429 0 429 0 396 0 c 256,18,19
 364 0 364 0 340.5 23 c 128,-1,20
 317 46 317 46 317 78 c 0,21,22
 317 101 317 101 328 121 c 2,23,-1
 642 641 l 1,0,1
237 1108 m 256,24,25
 237 975 237 975 330 883 c 128,-1,26
 423 791 423 791 554 791 c 256,27,28
 687 791 687 791 779 884.5 c 128,-1,29
 871 978 871 978 871 1108 c 256,30,31
 871 1241 871 1241 778 1333 c 128,-1,32
 685 1425 685 1425 554 1425 c 256,33,34
 421 1425 421 1425 329 1333 c 128,-1,35
 237 1241 237 1241 237 1108 c 256,24,25
EndSplineSet
Validated: 1
EndChar

StartChar: colon
Encoding: 58 58 29
Width: 393
VWidth: 2025
Flags: W
LayerCount: 2
Fore
SplineSet
317 119 m 256,0,1
 317 70 317 70 282 35 c 128,-1,2
 247 0 247 0 198 0 c 256,3,4
 149 0 149 0 113.5 34.5 c 128,-1,5
 78 69 78 69 78 119 c 256,6,7
 78 168 78 168 113 202.5 c 128,-1,8
 148 237 148 237 198 237 c 256,9,10
 247 237 247 237 282 202.5 c 128,-1,11
 317 168 317 168 317 119 c 256,0,1
317 990 m 256,12,13
 317 941 317 941 282 906 c 128,-1,14
 247 871 247 871 198 871 c 256,15,16
 149 871 149 871 113.5 906.5 c 128,-1,17
 78 942 78 942 78 990 c 256,18,19
 78 1039 78 1039 113 1074 c 128,-1,20
 148 1109 148 1109 198 1109 c 256,21,22
 247 1109 247 1109 282 1074 c 128,-1,23
 317 1039 317 1039 317 990 c 256,12,13
EndSplineSet
Validated: 1
EndChar

StartChar: semicolon
Encoding: 59 59 30
AltUni2: 00037e.ffffffff.0
Width: 393
VWidth: 2025
Flags: W
LayerCount: 2
Fore
SplineSet
317 990 m 256,0,1
 317 941 317 941 282 906 c 128,-1,2
 247 871 247 871 198 871 c 256,3,4
 149 871 149 871 113.5 906.5 c 128,-1,5
 78 942 78 942 78 990 c 256,6,7
 78 1039 78 1039 113 1074 c 128,-1,8
 148 1109 148 1109 198 1109 c 256,9,10
 247 1109 247 1109 282 1074 c 128,-1,11
 317 1039 317 1039 317 990 c 256,0,1
115 34 m 0,12,13
 81 68 81 68 78 119 c 256,14,15
 78 168 78 168 113 202.5 c 128,-1,16
 148 237 148 237 198 237 c 256,17,18
 247 237 247 237 282 202.5 c 128,-1,19
 317 168 317 168 317 119 c 0,20,21
 317 -75 317 -75 230 -206 c 0,22,23
 208 -238 208 -238 178 -237 c 0,24,25
 154 -237 154 -237 136.5 -220 c 128,-1,26
 119 -203 119 -203 119 -178 c 256,27,28
 119 -157 119 -157 137 -137 c 0,29,30
 166 -104 166 -104 166 -69 c 0,31,32
 166 -68 166 -68 166 -67 c 0,33,34
 166 -19 166 -19 115 34 c 0,12,13
EndSplineSet
Validated: 1
EndChar

StartChar: less
Encoding: 60 60 31
Width: 1106
VWidth: 2025
Flags: W
LayerCount: 2
Fore
SplineSet
123 784 m 2,0,-1
 909 1257 l 2,1,2
 926 1268 926 1268 950 1266 c 0,3,4
 982 1266 982 1266 1005.5 1243 c 128,-1,5
 1029 1220 1029 1220 1029 1187 c 0,6,7
 1029 1145 1029 1145 989 1119 c 2,8,-1
 313 712 l 1,9,-1
 989 307 l 2,10,11
 1029 281 1029 281 1029 237 c 0,12,13
 1029 205 1029 205 1006 181.5 c 128,-1,14
 983 158 983 158 950 158 c 0,15,16
 928 158 928 158 909 168 c 2,17,-1
 123 641 l 2,18,19
 79 669 79 669 78 712 c 256,20,21
 79 756 79 756 123 784 c 2,0,-1
EndSplineSet
Validated: 1
EndChar

StartChar: equal
Encoding: 61 61 32
Width: 1027
VWidth: 2025
Flags: W
LayerCount: 2
Fore
SplineSet
158 871 m 2,0,1
 126 871 126 871 102 894 c 0,2,3
 78 916 78 916 78 950 c 256,4,5
 78 982 78 982 102.5 1005.5 c 128,-1,6
 127 1029 127 1029 158 1029 c 2,7,-1
 871 1029 l 2,8,9
 903 1029 903 1029 926.5 1006 c 128,-1,10
 950 983 950 983 950 950 c 256,11,12
 950 918 950 918 926 894.5 c 128,-1,13
 902 871 902 871 871 871 c 2,14,-1
 158 871 l 2,0,1
871 554 m 2,15,16
 903 554 903 554 926.5 531.5 c 128,-1,17
 950 509 950 509 950 475 c 256,18,19
 950 443 950 443 926 419.5 c 128,-1,20
 902 396 902 396 871 394 c 2,21,-1
 158 394 l 2,22,23
 126 395 126 395 102 418.5 c 128,-1,24
 78 442 78 442 78 475 c 256,25,26
 78 507 78 507 102.5 530.5 c 128,-1,27
 127 554 127 554 158 554 c 2,28,-1
 871 554 l 2,15,16
EndSplineSet
Validated: 1
EndChar

StartChar: greater
Encoding: 62 62 33
Width: 1106
VWidth: 2025
Flags: W
LayerCount: 2
Fore
SplineSet
1029 712 m 256,0,1
 1029 668 1029 668 985 641 c 2,2,-1
 198 168 l 2,3,4
 180 158 180 158 158 158 c 0,5,6
 126 158 126 158 102 182 c 0,7,8
 78 206 78 206 78 237 c 0,9,10
 79 279 79 279 121 307 c 2,11,-1
 797 712 l 1,12,-1
 121 1119 l 2,13,14
 81 1145 81 1145 78 1187 c 0,15,16
 78 1219 78 1219 102.5 1242.5 c 128,-1,17
 127 1266 127 1266 158 1266 c 0,18,19
 180 1266 180 1266 198 1257 c 2,20,-1
 985 784 l 2,21,22
 1029 756 1029 756 1029 712 c 256,0,1
EndSplineSet
Validated: 1
EndChar

StartChar: question
Encoding: 63 63 34
Width: 1106
VWidth: 2025
Flags: W
LayerCount: 2
Fore
SplineSet
237 1108 m 0,0,1
 237 1076 237 1076 214 1053 c 0,2,3
 190 1029 190 1029 158 1029 c 256,4,5
 126 1029 126 1029 102 1051.5 c 128,-1,6
 78 1074 78 1074 78 1108 c 0,7,8
 78 1305 78 1305 217.5 1444 c 128,-1,9
 357 1583 357 1583 554 1583 c 256,10,11
 751 1583 751 1583 890 1444 c 128,-1,12
 1029 1305 1029 1305 1029 1108 c 256,13,14
 1029 910 1029 910 888 772 c 1,15,-1
 726 621 l 1,16,17
 634 528 634 528 633 398 c 0,18,19
 633 396 l 0,20,21
 633 364 633 364 609.5 340.5 c 128,-1,22
 586 317 586 317 554 317 c 256,23,24
 522 317 522 317 499 340 c 0,25,26
 475 364 475 364 475 396 c 0,27,28
 475 593 475 593 615 732 c 1,29,-1
 778 883 l 1,30,31
 871 975 871 975 871 1106 c 0,32,33
 871 1107 871 1107 871 1108 c 256,34,35
 871 1241 871 1241 778 1333 c 128,-1,36
 685 1425 685 1425 554 1425 c 256,37,38
 421 1425 421 1425 329 1333 c 128,-1,39
 237 1241 237 1241 237 1108 c 0,0,1
673 119 m 256,40,41
 673 70 673 70 638.5 35 c 128,-1,42
 604 0 604 0 554 0 c 256,43,44
 505 0 505 0 470 34.5 c 128,-1,45
 435 69 435 69 435 119 c 256,46,47
 435 168 435 168 470 202.5 c 128,-1,48
 505 237 505 237 554 237 c 256,49,50
 603 237 603 237 638 202.5 c 128,-1,51
 673 168 673 168 673 119 c 256,40,41
EndSplineSet
Validated: 1
EndChar

StartChar: at
Encoding: 64 64 35
Width: 2214
VWidth: 2025
Flags: W
LayerCount: 2
Fore
SplineSet
1108 950 m 256,0,1
 944 950 944 950 828 834 c 128,-1,2
 712 718 712 718 712 554 c 256,3,4
 712 390 712 390 828 274 c 128,-1,5
 944 158 944 158 1108 158 c 256,6,7
 1272 158 1272 158 1388 274 c 128,-1,8
 1504 390 1504 390 1504 554 c 256,9,10
 1504 718 1504 718 1388 834 c 128,-1,11
 1272 950 1272 950 1108 950 c 256,0,1
1504 165 m 1,12,13
 1338 0 1338 0 1108 0 c 256,14,15
 878 0 878 0 716 162.5 c 128,-1,16
 554 325 554 325 554 554 c 256,17,18
 554 784 554 784 716.5 946 c 128,-1,19
 879 1108 879 1108 1108 1108 c 256,20,21
 1338 1108 1338 1108 1500 946 c 128,-1,22
 1662 784 1662 784 1662 554 c 2,23,-1
 1662 158 l 2,24,25
 1662 80 1662 80 1741 78 c 0,26,27
 1978 78 1978 78 1979 554 c 0,28,29
 1979 915 1979 915 1724 1170 c 128,-1,30
 1469 1425 1469 1425 1108 1425 c 256,31,32
 747 1425 747 1425 492 1170 c 128,-1,33
 237 915 237 915 237 554 c 256,34,35
 237 193 237 193 492 -62 c 128,-1,36
 747 -317 747 -317 1108 -317 c 0,37,38
 1302 -317 1302 -317 1466 -243 c 0,39,40
 1484 -231 1484 -231 1506 -232 c 0,41,42
 1538 -232 1538 -232 1561.5 -255.5 c 128,-1,43
 1585 -279 1585 -279 1585 -313 c 256,44,45
 1585 -345 1585 -345 1562 -367 c 0,46,47
 1549 -380 1549 -380 1536 -386 c 0,48,49
 1341 -475 1341 -475 1108 -475 c 0,50,51
 681 -475 681 -475 379.5 -173 c 128,-1,52
 78 129 78 129 78 554 c 256,53,54
 78 981 78 981 379.5 1282 c 128,-1,55
 681 1583 681 1583 1108 1583 c 256,56,57
 1535 1583 1535 1583 1836.5 1282 c 128,-1,58
 2138 981 2138 981 2138 554 c 0,59,60
 2138 -78 2138 -78 1742 -78 c 0,61,62
 1741 -78 l 0,63,64
 1504 -78 1504 -78 1504 165 c 1,12,13
EndSplineSet
Validated: 1
EndChar

StartChar: A
Encoding: 65 65 36
Width: 1423
VWidth: 2025
Flags: W
LayerCount: 2
Fore
SplineSet
429 554 m 1,0,-1
 232 47 l 2,1,2
 226 33 226 33 214 23 c 0,3,4
 190 0 190 0 158 0 c 256,5,6
 126 0 126 0 102 23 c 128,-1,7
 78 46 78 46 78 78 c 0,8,9
 78 97 78 97 86 114 c 2,10,-1
 636 1528 l 2,11,12
 642 1546 642 1546 657 1560 c 0,13,14
 679 1583 679 1583 712 1583 c 256,15,16
 744 1583 744 1583 770 1560 c 0,17,18
 784 1545 784 1545 790 1528 c 2,19,-1
 1340 114 l 2,20,21
 1346 99 1346 99 1346 78 c 0,22,23
 1346 47 1346 47 1322 24 c 0,24,25
 1300 0 1300 0 1266 0 c 256,26,27
 1234 0 1234 0 1211 23 c 0,28,29
 1199 34 1199 34 1193 47 c 2,30,-1
 996 554 l 1,31,-1
 429 554 l 1,0,-1
936 712 m 1,32,-1
 712 1285 l 1,33,-1
 489 712 l 1,34,-1
 936 712 l 1,32,-1
EndSplineSet
Validated: 1
EndChar

StartChar: B
Encoding: 66 66 37
Width: 1106
VWidth: 2025
Flags: W
LayerCount: 2
Fore
SplineSet
237 1425 m 1,0,-1
 237 950 l 1,1,-1
 475 950 l 2,2,3
 573 950 573 950 642.5 1019 c 128,-1,4
 712 1088 712 1088 712 1187 c 256,5,6
 712 1285 712 1285 642.5 1355 c 128,-1,7
 573 1425 573 1425 475 1425 c 2,8,-1
 237 1425 l 1,0,-1
237 791 m 1,9,-1
 237 158 l 1,10,-1
 554 158 l 2,11,12
 687 158 687 158 779 251 c 128,-1,13
 871 344 871 344 871 475 c 256,14,15
 871 608 871 608 778 699.5 c 128,-1,16
 685 791 685 791 554 791 c 2,17,-1
 237 791 l 1,9,-1
158 1583 m 2,18,-1
 475 1583 l 2,19,20
 639 1583 639 1583 755 1467 c 128,-1,21
 871 1351 871 1351 871 1187 c 256,22,23
 871 1023 871 1023 755 906 c 1,24,25
 827 872 827 872 890 811 c 0,26,27
 1029 671 1029 671 1029 475 c 256,28,29
 1029 278 1029 278 890 139 c 128,-1,30
 751 0 751 0 554 0 c 2,31,-1
 158 0 l 2,32,33
 126 0 126 0 102 23 c 128,-1,34
 78 46 78 46 78 78 c 2,35,-1
 78 1504 l 2,36,37
 78 1536 78 1536 102 1559.5 c 128,-1,38
 126 1583 126 1583 158 1583 c 2,18,-1
EndSplineSet
Validated: 1
EndChar

StartChar: C
Encoding: 67 67 38
Width: 1463
VWidth: 2025
Flags: W
LayerCount: 2
Fore
SplineSet
1312 311 m 0,0,1
 1344 311 1344 311 1367 287 c 0,2,3
 1391 265 1391 265 1391 232 c 256,4,5
 1391 200 1391 200 1368 176 c 0,6,7
 1149 0 1149 0 871 0 c 0,8,9
 543 0 543 0 310 232 c 0,10,11
 78 463 78 463 78 791 c 256,12,13
 78 1119 78 1119 311 1351 c 0,14,15
 544 1583 544 1583 871 1583 c 0,16,17
 1154 1583 1154 1583 1374 1402 c 0,18,19
 1397 1377 1397 1377 1397 1346 c 256,20,21
 1397 1314 1397 1314 1374 1290 c 128,-1,22
 1351 1266 1351 1266 1318 1266 c 256,23,24
 1286 1266 1286 1266 1260 1290 c 0,25,26
 1094 1425 1094 1425 875 1425 c 0,27,28
 873 1425 873 1425 871 1425 c 0,29,30
 609 1425 609 1425 423 1239 c 128,-1,31
 237 1053 237 1053 237 791 c 256,32,33
 237 529 237 529 423 343.5 c 128,-1,34
 609 158 609 158 871 158 c 0,35,36
 1099 158 1099 158 1266 297 c 0,37,38
 1286 311 1286 311 1312 311 c 0,0,1
EndSplineSet
Validated: 1
EndChar

StartChar: D
Encoding: 68 68 39
Width: 1343
VWidth: 2025
Flags: W
LayerCount: 2
Fore
SplineSet
475 158 m 2,0,1
 736 158 736 158 923 344 c 0,2,3
 1108 528 1108 528 1108 788 c 0,4,5
 1108 790 1108 790 1108 791 c 256,6,7
 1108 1053 1108 1053 922.5 1239 c 128,-1,8
 737 1425 737 1425 475 1425 c 2,9,-1
 237 1425 l 1,10,-1
 237 158 l 1,11,-1
 475 158 l 2,0,1
475 1583 m 2,12,13
 803 1583 803 1583 1034.5 1351.5 c 128,-1,14
 1266 1120 1266 1120 1266 791 c 256,15,16
 1266 463 1266 463 1034.5 231.5 c 128,-1,17
 803 0 803 0 475 0 c 2,18,-1
 158 0 l 2,19,20
 126 0 126 0 102 23 c 128,-1,21
 78 46 78 46 78 78 c 2,22,-1
 78 1504 l 2,23,24
 78 1536 78 1536 102.5 1559.5 c 128,-1,25
 127 1583 127 1583 158 1583 c 2,26,-1
 475 1583 l 2,12,13
EndSplineSet
Validated: 1
EndChar

StartChar: E
Encoding: 69 69 40
Width: 1265
VWidth: 2025
Flags: W
LayerCount: 2
Fore
SplineSet
158 1583 m 2,0,-1
 1108 1583 l 2,1,2
 1140 1583 1140 1583 1163.5 1560 c 128,-1,3
 1187 1537 1187 1537 1187 1504 c 256,4,5
 1187 1472 1187 1472 1164.5 1448.5 c 128,-1,6
 1142 1425 1142 1425 1108 1425 c 2,7,-1
 237 1425 l 1,8,-1
 237 871 l 1,9,-1
 871 871 l 2,10,11
 903 871 903 871 926 847 c 0,12,13
 950 823 950 823 950 791 c 256,14,15
 950 759 950 759 926 735.5 c 128,-1,16
 902 712 902 712 871 712 c 2,17,-1
 237 712 l 1,18,-1
 237 158 l 1,19,-1
 1108 158 l 2,20,21
 1140 158 1140 158 1163.5 135.5 c 128,-1,22
 1187 113 1187 113 1187 78 c 256,23,24
 1187 46 1187 46 1164.5 23 c 128,-1,25
 1142 0 1142 0 1108 0 c 2,26,-1
 158 0 l 2,27,28
 126 0 126 0 102 23 c 128,-1,29
 78 46 78 46 78 78 c 2,30,-1
 78 1504 l 2,31,32
 78 1536 78 1536 102 1559.5 c 128,-1,33
 126 1583 126 1583 158 1583 c 2,0,-1
EndSplineSet
Validated: 1
EndChar

StartChar: F
Encoding: 70 70 41
Width: 1265
VWidth: 2025
Flags: W
LayerCount: 2
Fore
SplineSet
158 1583 m 2,0,-1
 1108 1583 l 2,1,2
 1140 1583 1140 1583 1163.5 1560 c 128,-1,3
 1187 1537 1187 1537 1187 1504 c 256,4,5
 1187 1472 1187 1472 1164.5 1448.5 c 128,-1,6
 1142 1425 1142 1425 1108 1425 c 2,7,-1
 237 1425 l 1,8,-1
 237 871 l 1,9,-1
 871 871 l 2,10,11
 903 871 903 871 926 847 c 0,12,13
 950 823 950 823 950 791 c 256,14,15
 950 759 950 759 926 735.5 c 128,-1,16
 902 712 902 712 871 712 c 2,17,-1
 237 712 l 1,18,-1
 237 78 l 2,19,20
 237 46 237 46 214 23 c 0,21,22
 190 0 190 0 158 0 c 256,23,24
 126 0 126 0 102 23 c 128,-1,25
 78 46 78 46 78 78 c 2,26,-1
 78 1504 l 2,27,28
 78 1536 78 1536 102 1559.5 c 128,-1,29
 126 1583 126 1583 158 1583 c 2,0,-1
EndSplineSet
Validated: 1
EndChar

StartChar: G
Encoding: 71 71 42
Width: 1482
VWidth: 2025
Flags: W
LayerCount: 2
Fore
SplineSet
1391 232 m 2,0,1
 1391 200 1391 200 1368 176 c 0,2,3
 1149 0 1149 0 871 0 c 0,4,5
 543 0 543 0 310 232 c 0,6,7
 78 463 78 463 78 791 c 256,8,9
 78 1119 78 1119 311 1351 c 0,10,11
 544 1583 544 1583 871 1583 c 0,12,13
 1154 1583 1154 1583 1374 1402 c 0,14,15
 1397 1377 1397 1377 1397 1346 c 256,16,17
 1397 1314 1397 1314 1374 1290 c 128,-1,18
 1351 1266 1351 1266 1318 1266 c 256,19,20
 1286 1266 1286 1266 1260 1290 c 0,21,22
 1094 1425 1094 1425 875 1425 c 0,23,24
 873 1425 873 1425 871 1425 c 0,25,26
 609 1425 609 1425 423 1239 c 128,-1,27
 237 1053 237 1053 237 791 c 256,28,29
 237 529 237 529 423 343.5 c 128,-1,30
 609 158 609 158 871 158 c 0,31,32
 1077 158 1077 158 1233 271 c 1,33,-1
 1233 633 l 1,34,-1
 920 633 l 2,35,36
 888 633 888 633 864.5 656 c 128,-1,37
 841 679 841 679 841 712 c 256,38,39
 841 744 841 744 863.5 767.5 c 128,-1,40
 886 791 886 791 920 791 c 2,41,-1
 1312 791 l 2,42,43
 1344 791 1344 791 1368 770 c 0,44,45
 1391 746 1391 746 1391 712 c 2,46,-1
 1391 232 l 2,0,1
EndSplineSet
Validated: 1
EndChar

StartChar: H
Encoding: 72 72 43
Width: 1265
VWidth: 2025
Flags: W
LayerCount: 2
Fore
SplineSet
78 1504 m 2,0,1
 78 1536 78 1536 102.5 1559.5 c 128,-1,2
 127 1583 127 1583 158 1583 c 256,3,4
 190 1583 190 1583 213.5 1560 c 128,-1,5
 237 1537 237 1537 237 1504 c 2,6,-1
 237 871 l 1,7,-1
 1029 871 l 1,8,-1
 1029 1504 l 2,9,10
 1029 1536 1029 1536 1051.5 1559.5 c 128,-1,11
 1074 1583 1074 1583 1108 1583 c 256,12,13
 1140 1583 1140 1583 1163.5 1560 c 128,-1,14
 1187 1537 1187 1537 1187 1504 c 2,15,-1
 1187 78 l 2,16,17
 1187 46 1187 46 1164.5 23 c 128,-1,18
 1142 0 1142 0 1108 0 c 256,19,20
 1076 0 1076 0 1052.5 23 c 128,-1,21
 1029 46 1029 46 1029 78 c 2,22,-1
 1029 712 l 1,23,-1
 237 712 l 1,24,-1
 237 78 l 2,25,26
 237 46 237 46 214 23 c 0,27,28
 190 0 190 0 158 0 c 256,29,30
 126 0 126 0 102 23 c 128,-1,31
 78 46 78 46 78 78 c 2,32,-1
 78 1504 l 2,0,1
EndSplineSet
Validated: 1
EndChar

StartChar: I
Encoding: 73 73 44
Width: 472
VWidth: 2025
Flags: W
LayerCount: 2
Fore
SplineSet
158 1504 m 2,0,1
 158 1536 158 1536 182 1559 c 0,2,3
 206 1583 206 1583 237 1583 c 256,4,5
 269 1583 269 1583 293 1560 c 128,-1,6
 317 1537 317 1537 317 1504 c 2,7,-1
 317 78 l 2,8,9
 317 46 317 46 293 23 c 0,10,11
 271 0 271 0 237 0 c 256,12,13
 205 0 205 0 181.5 23 c 128,-1,14
 158 46 158 46 158 78 c 2,15,-1
 158 1504 l 2,0,1
EndSplineSet
Validated: 1
EndChar

StartChar: J
Encoding: 74 74 45
Width: 1106
VWidth: 2025
Flags: W
LayerCount: 2
Fore
SplineSet
78 475 m 0,0,1
 78 507 78 507 102.5 530.5 c 128,-1,2
 127 554 127 554 158 554 c 256,3,4
 190 554 190 554 213.5 531.5 c 128,-1,5
 237 509 237 509 237 475 c 0,6,7
 237 342 237 342 330 250 c 128,-1,8
 423 158 423 158 554 158 c 256,9,10
 687 158 687 158 779 251 c 128,-1,11
 871 344 871 344 871 475 c 2,12,-1
 871 1504 l 2,13,14
 871 1536 871 1536 894 1559 c 0,15,16
 916 1583 916 1583 950 1583 c 256,17,18
 982 1583 982 1583 1005.5 1560 c 128,-1,19
 1029 1537 1029 1537 1029 1504 c 2,20,-1
 1029 475 l 2,21,22
 1029 278 1029 278 890 139 c 128,-1,23
 751 0 751 0 554 0 c 256,24,25
 357 0 357 0 217.5 139 c 128,-1,26
 78 278 78 278 78 475 c 0,0,1
EndSplineSet
Validated: 1
EndChar

StartChar: K
Encoding: 75 75 46
Width: 1186
VWidth: 2025
Flags: W
LayerCount: 2
Fore
SplineSet
78 1504 m 2,0,1
 78 1536 78 1536 102.5 1559.5 c 128,-1,2
 127 1583 127 1583 158 1583 c 256,3,4
 190 1583 190 1583 213.5 1560 c 128,-1,5
 237 1537 237 1537 237 1504 c 2,6,-1
 237 825 l 1,7,-1
 972 1558 l 2,8,9
 998 1582 998 1582 1029 1583 c 256,10,11
 1061 1583 1061 1583 1084.5 1560 c 128,-1,12
 1108 1537 1108 1537 1108 1504 c 256,13,14
 1108 1472 1108 1472 1084 1448 c 2,15,-1
 529 890 l 1,16,-1
 1092 127 l 2,17,18
 1107 106 1107 106 1108 81 c 0,19,20
 1108 39 1108 39 1076 16 c 0,21,22
 1054 0 1054 0 1031 0 c 0,23,24
 987 0 987 0 964 34 c 2,25,-1
 416 778 l 1,26,-1
 237 600 l 1,27,-1
 237 78 l 2,28,29
 237 46 237 46 214 23 c 0,30,31
 190 0 190 0 158 0 c 256,32,33
 126 0 126 0 102 23 c 128,-1,34
 78 46 78 46 78 78 c 2,35,-1
 78 1504 l 2,0,1
EndSplineSet
Validated: 1
EndChar

StartChar: L
Encoding: 76 76 47
Width: 1186
VWidth: 2025
Flags: W
LayerCount: 2
Fore
SplineSet
78 1504 m 2,0,1
 78 1536 78 1536 102.5 1559.5 c 128,-1,2
 127 1583 127 1583 158 1583 c 256,3,4
 190 1583 190 1583 213.5 1560 c 128,-1,5
 237 1537 237 1537 237 1504 c 2,6,-1
 237 158 l 1,7,-1
 1029 158 l 2,8,9
 1061 158 1061 158 1084.5 135.5 c 128,-1,10
 1108 113 1108 113 1108 78 c 256,11,12
 1108 46 1108 46 1084.5 23 c 128,-1,13
 1061 0 1061 0 1029 0 c 2,14,-1
 158 0 l 2,15,16
 126 0 126 0 102 23 c 128,-1,17
 78 46 78 46 78 78 c 2,18,-1
 78 1504 l 2,0,1
EndSplineSet
Validated: 1
EndChar

StartChar: M
Encoding: 77 77 48
Width: 1740
VWidth: 2025
Flags: W
LayerCount: 2
Fore
SplineSet
797 47 m 2,0,-1
 237 1169 l 1,1,-1
 237 78 l 2,2,3
 237 46 237 46 214 23 c 0,4,5
 190 0 190 0 158 0 c 256,6,7
 126 0 126 0 102 23 c 128,-1,8
 78 46 78 46 78 78 c 2,9,-1
 78 1504 l 2,10,11
 78 1536 78 1536 102.5 1559.5 c 128,-1,12
 127 1583 127 1583 158 1583 c 0,13,14
 205 1583 205 1583 228 1541 c 2,15,-1
 871 256 l 1,16,-1
 1512 1541 l 2,17,18
 1535 1583 1535 1583 1583 1583 c 0,19,20
 1615 1583 1615 1583 1638.5 1560 c 128,-1,21
 1662 1537 1662 1537 1662 1504 c 2,22,-1
 1662 78 l 2,23,24
 1662 46 1662 46 1639.5 23 c 128,-1,25
 1617 0 1617 0 1583 0 c 256,26,27
 1551 0 1551 0 1527.5 23 c 128,-1,28
 1504 46 1504 46 1504 78 c 2,29,-1
 1504 1169 l 1,30,-1
 940 38 l 2,31,32
 920 0 920 0 870.5 0 c 128,-1,33
 821 0 821 0 797 47 c 2,0,-1
EndSplineSet
Validated: 1
EndChar

StartChar: N
Encoding: 78 78 49
Width: 1423
VWidth: 2025
Flags: W
LayerCount: 2
Fore
SplineSet
237 78 m 2,0,1
 237 46 237 46 214 23 c 0,2,3
 190 0 190 0 158 0 c 256,4,5
 126 0 126 0 102 23 c 128,-1,6
 78 46 78 46 78 78 c 2,7,-1
 78 1504 l 2,8,9
 78 1536 78 1536 102.5 1559.5 c 128,-1,10
 127 1583 127 1583 158 1583 c 0,11,12
 194 1583 194 1583 220 1554 c 2,13,-1
 1187 311 l 1,14,-1
 1187 1504 l 2,15,16
 1187 1536 1187 1536 1210 1559.5 c 128,-1,17
 1233 1583 1233 1583 1266 1583 c 256,18,19
 1298 1583 1298 1583 1322 1560 c 128,-1,20
 1346 1537 1346 1537 1346 1504 c 2,21,-1
 1346 78 l 2,22,23
 1346 47 1346 47 1322 24 c 0,24,25
 1300 0 1300 0 1266.5 0 c 128,-1,26
 1233 0 1233 0 1207 26 c 2,27,-1
 237 1272 l 1,28,-1
 237 78 l 2,0,1
EndSplineSet
Validated: 1
EndChar

StartChar: O
Encoding: 79 79 50
Width: 1740
VWidth: 2025
Flags: W
LayerCount: 2
Fore
SplineSet
871 1425 m 256,0,1
 609 1425 609 1425 423 1239 c 128,-1,2
 237 1053 237 1053 237 791 c 256,3,4
 237 529 237 529 423 343.5 c 128,-1,5
 609 158 609 158 871 158 c 256,6,7
 1133 158 1133 158 1318 344 c 0,8,9
 1504 529 1504 529 1504 791 c 256,10,11
 1504 1053 1504 1053 1318.5 1239 c 128,-1,12
 1133 1425 1133 1425 871 1425 c 256,0,1
1662 791 m 256,13,14
 1662 463 1662 463 1430 232 c 0,15,16
 1199 0 1199 0 871 0 c 256,17,18
 543 0 543 0 310 232 c 0,19,20
 78 463 78 463 78 791 c 256,21,22
 78 1119 78 1119 311 1351 c 0,23,24
 544 1583 544 1583 871 1583 c 256,25,26
 1199 1583 1199 1583 1430.5 1351 c 128,-1,27
 1662 1119 1662 1119 1662 791 c 256,13,14
EndSplineSet
Validated: 1
EndChar

StartChar: P
Encoding: 80 80 51
Width: 1067
VWidth: 2025
Flags: W
LayerCount: 2
Fore
SplineSet
237 1425 m 1,0,-1
 237 712 l 1,1,-1
 475 712 l 2,2,3
 623 712 623 712 727 817 c 0,4,5
 831 922 831 922 831 1069 c 256,6,7
 831 1217 831 1217 726.5 1321 c 128,-1,8
 622 1425 622 1425 475 1425 c 2,9,-1
 237 1425 l 1,0,-1
158 1583 m 2,10,-1
 475 1583 l 2,11,12
 687 1583 687 1583 838 1432 c 0,13,14
 989 1282 989 1282 989 1069 c 256,15,16
 989 857 989 857 838 705.5 c 128,-1,17
 687 554 687 554 475 554 c 2,18,-1
 237 554 l 1,19,-1
 237 78 l 2,20,21
 237 46 237 46 214 23 c 0,22,23
 190 0 190 0 158 0 c 256,24,25
 126 0 126 0 102 23 c 128,-1,26
 78 46 78 46 78 78 c 2,27,-1
 78 1504 l 2,28,29
 78 1536 78 1536 102 1559.5 c 128,-1,30
 126 1583 126 1583 158 1583 c 2,10,-1
EndSplineSet
Validated: 1
EndChar

StartChar: Q
Encoding: 81 81 52
Width: 1740
VWidth: 2025
Flags: W
LayerCount: 2
Fore
SplineSet
1371 178 m 1,0,1
 1157 0 1157 0 871 0 c 0,2,3
 543 0 543 0 310 232 c 0,4,5
 78 463 78 463 78 791 c 256,6,7
 78 1119 78 1119 311 1351 c 0,8,9
 544 1583 544 1583 871 1583 c 256,10,11
 1199 1583 1199 1583 1430.5 1351.5 c 128,-1,12
 1662 1120 1662 1120 1662 791 c 0,13,14
 1662 504 1662 504 1484 291 c 1,15,-1
 1640 135 l 2,16,17
 1662 111 1662 111 1662 78 c 0,18,19
 1662 46 1662 46 1639.5 23 c 128,-1,20
 1617 0 1617 0 1583 0 c 256,21,22
 1551 0 1551 0 1526 24 c 2,23,-1
 1371 178 l 1,0,1
1258 291 m 1,24,-1
 1090 458 l 2,25,26
 1068 481 1068 481 1069 514 c 256,27,28
 1069 546 1069 546 1092.5 570 c 128,-1,29
 1116 594 1116 594 1148 594 c 256,30,31
 1180 594 1180 594 1204 571 c 2,32,-1
 1371 404 l 1,33,34
 1504 569 1504 569 1504 789 c 0,35,36
 1504 790 1504 790 1504 791 c 0,37,38
 1504 1053 1504 1053 1319 1239 c 128,-1,39
 1134 1425 1134 1425 871 1425 c 256,40,41
 609 1425 609 1425 423 1239 c 128,-1,42
 237 1053 237 1053 237 791 c 256,43,44
 237 529 237 529 423 343.5 c 128,-1,45
 609 158 609 158 871 158 c 0,46,47
 873 158 873 158 874 158 c 0,48,49
 1093 158 1093 158 1258 291 c 1,24,-1
EndSplineSet
Validated: 1
EndChar

StartChar: R
Encoding: 82 82 53
Width: 1186
VWidth: 2025
Flags: W
LayerCount: 2
Fore
SplineSet
237 1425 m 1,0,-1
 237 791 l 1,1,-1
 554 791 l 2,2,3
 687 791 687 791 779 884.5 c 128,-1,4
 871 978 871 978 871 1108 c 256,5,6
 871 1241 871 1241 778 1333 c 128,-1,7
 685 1425 685 1425 554 1425 c 2,8,-1
 237 1425 l 1,0,-1
158 1583 m 2,9,-1
 554 1583 l 2,10,11
 751 1583 751 1583 890 1444 c 128,-1,12
 1029 1305 1029 1305 1029 1108 c 256,13,14
 1029 912 1029 912 890 774 c 0,15,16
 827 711 827 711 751 675 c 1,17,-1
 1094 123 l 2,18,19
 1107 104 1107 104 1108 78 c 0,20,21
 1108 46 1108 46 1084.5 23 c 128,-1,22
 1061 0 1061 0 1029 0 c 0,23,24
 987 0 987 0 960 40 c 2,25,-1
 588 634 l 1,26,27
 571 633 571 633 554 633 c 2,28,-1
 237 633 l 1,29,-1
 237 78 l 2,30,31
 237 46 237 46 214 23 c 0,32,33
 190 0 190 0 158 0 c 256,34,35
 126 0 126 0 102 23 c 128,-1,36
 78 46 78 46 78 78 c 2,37,-1
 78 1504 l 2,38,39
 78 1536 78 1536 102 1559.5 c 128,-1,40
 126 1583 126 1583 158 1583 c 2,9,-1
EndSplineSet
Validated: 1
EndChar

StartChar: S
Encoding: 83 83 54
Width: 1047
VWidth: 2025
Flags: W
LayerCount: 2
Fore
SplineSet
251 930 m 1,1,2
 156 1041 156 1041 156 1180 c 0,3,4
 156 1199 156 1199 158 1218 c 0,5,6
 172 1381 172 1381 297 1487 c 0,7,8
 408 1582 408 1582 551 1583 c 0,9,10
 552 1583 552 1583 554 1583 c 0,11,12
 726 1583 726 1583 855 1443 c 0,13,14
 877 1417 877 1417 892 1388 c 0,15,16
 904 1369 904 1369 904 1346 c 0,17,18
 904 1314 904 1314 881.5 1290 c 128,-1,19
 859 1266 859 1266 826 1266 c 0,20,21
 789 1266 789 1266 772 1290 c 256,22,23
 754 1314 754 1314 734 1340 c 0,24,25
 671 1413 671 1413 573 1421 c 0,26,27
 562 1423 562 1423 551 1423 c 0,28,29
 467 1423 467 1423 400 1365 c 0,30,31
 325 1302 325 1302 317 1205 c 0,32,33
 317 1194 317 1194 317 1183 c 0,34,35
 317 1098 317 1098 373 1032 c 1,36,37
 424 984 424 984 543 952 c 1,38,39
 750 906 750 906 857 784 c 0,40,41
 970 651 970 651 970 482 c 0,42,43
 970 459 970 459 968 437 c 0,44,45
 952 241 952 241 803 115 c 0,46,47
 668 0 668 0 499 0 c 0,48,49
 287 0 287 0 133 168 c 0,50,51
 112 190 112 190 95 216 c 0,52,53
 79 237 79 237 78 264 c 0,54,55
 78 296 78 296 102.5 320 c 128,-1,56
 127 344 127 344 158 344 c 0,57,58
 200 344 200 344 226 307 c 0,59,60
 239 288 239 288 253 271 c 0,61,62
 336 170 336 170 469 160 c 0,63,64
 483 158 483 158 497 158 c 0,65,66
 612 158 612 158 700 233 c 0,67,68
 800 317 800 317 810 449 c 0,69,70
 811 464 811 464 811 479 c 0,71,72
 811 594 811 594 737 681 c 0,73,74
 665 762 665 762 509 803 c 1,75,0
 358 831 358 831 251 930 c 1,1,2
EndSplineSet
Validated: 1
EndChar

StartChar: T
Encoding: 84 84 55
Width: 1343
VWidth: 2025
Flags: W
LayerCount: 2
Fore
SplineSet
158 1425 m 2,0,1
 126 1425 126 1425 102 1448 c 0,2,3
 78 1472 78 1472 78 1504 c 256,4,5
 78 1536 78 1536 102.5 1559.5 c 128,-1,6
 127 1583 127 1583 158 1583 c 2,7,-1
 1187 1583 l 2,8,9
 1219 1583 1219 1583 1242.5 1560 c 128,-1,10
 1266 1537 1266 1537 1266 1504 c 256,11,12
 1266 1472 1266 1472 1243 1448.5 c 128,-1,13
 1220 1425 1220 1425 1187 1425 c 2,14,-1
 752 1425 l 1,15,-1
 752 78 l 2,16,17
 752 46 752 46 728 23 c 128,-1,18
 704 0 704 0 673 0 c 256,19,20
 641 0 641 0 617.5 23 c 128,-1,21
 594 46 594 46 594 78 c 2,22,-1
 594 1425 l 1,23,-1
 158 1425 l 2,0,1
EndSplineSet
Validated: 1
EndChar

StartChar: U
Encoding: 85 85 56
Width: 1265
VWidth: 2025
Flags: W
LayerCount: 2
Fore
SplineSet
78 1504 m 2,0,1
 78 1536 78 1536 102.5 1559.5 c 128,-1,2
 127 1583 127 1583 158 1583 c 256,3,4
 190 1583 190 1583 213.5 1560 c 128,-1,5
 237 1537 237 1537 237 1504 c 2,6,-1
 237 554 l 2,7,8
 237 390 237 390 353 274 c 128,-1,9
 469 158 469 158 633 158 c 256,10,11
 797 158 797 158 913 274 c 128,-1,12
 1029 390 1029 390 1029 554 c 2,13,-1
 1029 1504 l 2,14,15
 1029 1536 1029 1536 1051.5 1559.5 c 128,-1,16
 1074 1583 1074 1583 1108 1583 c 256,17,18
 1140 1583 1140 1583 1163.5 1560 c 128,-1,19
 1187 1537 1187 1537 1187 1504 c 2,20,-1
 1187 554 l 2,21,22
 1187 324 1187 324 1025 162 c 128,-1,23
 863 0 863 0 633 0 c 256,24,25
 403 0 403 0 240.5 162.5 c 128,-1,26
 78 325 78 325 78 554 c 2,27,-1
 78 1504 l 2,0,1
EndSplineSet
Validated: 1
EndChar

StartChar: V
Encoding: 86 86 57
Width: 1423
VWidth: 2025
Flags: W
LayerCount: 2
Fore
SplineSet
770 24 m 0,0,1
 746 0 746 0 712 0 c 256,2,3
 680 0 680 0 657 24 c 0,4,5
 646 34 646 34 640 49 c 2,6,-1
 89 1459 l 2,7,8
 79 1482 79 1482 78 1504 c 0,9,10
 78 1536 78 1536 102.5 1559.5 c 128,-1,11
 127 1583 127 1583 158 1583 c 0,12,13
 209 1583 209 1583 230 1537 c 2,14,-1
 712 298 l 1,15,-1
 1194 1537 l 2,16,17
 1214 1583 1214 1583 1266 1583 c 0,18,19
 1298 1583 1298 1583 1322 1560 c 128,-1,20
 1346 1537 1346 1537 1346 1504 c 0,21,22
 1346 1482 1346 1482 1336 1459 c 2,23,-1
 786 49 l 2,24,25
 780 34 780 34 770 24 c 0,0,1
EndSplineSet
Validated: 1
EndChar

StartChar: W
Encoding: 87 87 58
Width: 1898
VWidth: 2025
Flags: W
LayerCount: 2
Fore
SplineSet
894 1560 m 0,0,1
 916 1583 916 1583 950 1583 c 256,2,3
 982 1583 982 1583 1006 1560 c 0,4,5
 1019 1547 1019 1547 1025 1532 c 2,6,-1
 1346 375 l 1,7,-1
 1666 1532 l 2,8,9
 1672 1548 1672 1548 1686 1560 c 0,10,11
 1709 1583 1709 1583 1741 1583 c 256,12,13
 1773 1583 1773 1583 1796.5 1560 c 128,-1,14
 1820 1537 1820 1537 1820 1504 c 0,15,16
 1820 1487 1820 1487 1815 1469 c 2,17,-1
 1427 65 l 2,18,19
 1419 41 1419 41 1402 24 c 0,20,21
 1377 0 1377 0 1346 0 c 256,22,23
 1314 0 1314 0 1290 24 c 0,24,25
 1272 42 1272 42 1264 65 c 2,26,-1
 950 1205 l 1,27,-1
 635 65 l 2,28,29
 627 41 627 41 611 24 c 0,30,31
 587 0 587 0 554 0 c 256,32,33
 522 0 522 0 499 24 c 0,34,35
 481 42 481 42 474 65 c 2,36,-1
 85 1469 l 2,37,38
 79 1488 79 1488 78 1504 c 0,39,40
 78 1536 78 1536 102.5 1559.5 c 128,-1,41
 127 1583 127 1583 158 1583 c 256,42,43
 190 1583 190 1583 214 1560 c 0,44,45
 228 1547 228 1547 233 1532 c 2,46,-1
 554 375 l 1,47,-1
 875 1532 l 2,48,49
 878 1545 878 1545 894 1560 c 0,0,1
EndSplineSet
Validated: 1
EndChar

StartChar: X
Encoding: 88 88 59
Width: 1423
VWidth: 2025
Flags: W
LayerCount: 2
Fore
SplineSet
712 921 m 1,0,-1
 1201 1549 l 2,1,2
 1229 1583 1229 1583 1266 1583 c 0,3,4
 1298 1583 1298 1583 1322 1560 c 128,-1,5
 1346 1537 1346 1537 1346 1504 c 0,6,7
 1346 1478 1346 1478 1332 1458 c 2,8,-1
 813 791 l 1,9,-1
 1330 129 l 2,10,11
 1346 107 1346 107 1346 78 c 0,12,13
 1346 47 1346 47 1322 24 c 0,14,15
 1300 0 1300 0 1266 0 c 0,16,17
 1228 0 1228 0 1206 28 c 2,18,-1
 712 662 l 1,19,-1
 218 28 l 2,20,21
 194 0 194 0 158 0 c 0,22,23
 126 0 126 0 102 23 c 128,-1,24
 78 46 78 46 78 78 c 0,25,26
 78 105 78 105 96 129 c 2,27,-1
 611 791 l 1,28,-1
 93 1458 l 2,29,30
 79 1478 79 1478 78 1504 c 0,31,32
 78 1536 78 1536 102.5 1559.5 c 128,-1,33
 127 1583 127 1583 158 1583 c 0,34,35
 196 1583 196 1583 224 1549 c 2,36,-1
 712 921 l 1,0,-1
EndSplineSet
Validated: 1
EndChar

StartChar: Y
Encoding: 89 89 60
Width: 1265
VWidth: 2025
Flags: W
LayerCount: 2
Fore
SplineSet
712 78 m 2,0,1
 712 46 712 46 689 23 c 128,-1,2
 666 0 666 0 633 0 c 256,3,4
 601 0 601 0 577.5 23 c 128,-1,5
 554 46 554 46 554 78 c 2,6,-1
 554 768 l 1,7,-1
 92 1459 l 2,8,9
 79 1480 79 1480 78 1504 c 0,10,11
 78 1536 78 1536 102.5 1559.5 c 128,-1,12
 127 1583 127 1583 158 1583 c 0,13,14
 198 1583 198 1583 222 1550 c 2,15,-1
 633 936 l 1,16,-1
 1043 1550 l 2,17,18
 1067 1582 1067 1582 1108 1583 c 0,19,20
 1140 1583 1140 1583 1163.5 1560 c 128,-1,21
 1187 1537 1187 1537 1187 1504 c 0,22,23
 1187 1480 1187 1480 1174 1459 c 2,24,-1
 712 768 l 1,25,-1
 712 78 l 2,0,1
EndSplineSet
Validated: 1
EndChar

StartChar: Z
Encoding: 90 90 61
Width: 1423
VWidth: 2025
Flags: W
LayerCount: 2
Fore
SplineSet
158 1425 m 2,0,1
 126 1425 126 1425 102 1448 c 0,2,3
 78 1472 78 1472 78 1504 c 256,4,5
 78 1536 78 1536 102.5 1559.5 c 128,-1,6
 127 1583 127 1583 158 1583 c 2,7,-1
 1266 1583 l 2,8,9
 1298 1583 1298 1583 1322 1560 c 128,-1,10
 1346 1537 1346 1537 1346 1504 c 0,11,12
 1346 1478 1346 1478 1332 1458 c 2,13,-1
 321 158 l 1,14,-1
 1266 158 l 2,15,16
 1298 158 1298 158 1322 135.5 c 128,-1,17
 1346 113 1346 113 1346 78 c 256,18,19
 1346 47 1346 47 1322 24 c 0,20,21
 1300 0 1300 0 1266 0 c 2,22,-1
 158 0 l 2,23,24
 126 0 126 0 102 23 c 128,-1,25
 78 46 78 46 78 78 c 0,26,27
 78 105 78 105 96 129 c 2,28,-1
 1104 1425 l 1,29,-1
 158 1425 l 2,0,1
EndSplineSet
Validated: 1
EndChar

StartChar: bracketleft
Encoding: 91 91 62
Width: 632
VWidth: 2025
Flags: W
LayerCount: 2
Fore
SplineSet
158 1583 m 2,0,-1
 475 1583 l 2,1,2
 507 1583 507 1583 530.5 1560 c 128,-1,3
 554 1537 554 1537 554 1504 c 256,4,5
 554 1472 554 1472 531.5 1448.5 c 128,-1,6
 509 1425 509 1425 475 1425 c 2,7,-1
 237 1425 l 1,8,-1
 237 -317 l 1,9,-1
 475 -317 l 2,10,11
 507 -317 507 -317 530 -340 c 0,12,13
 554 -364 554 -364 554 -396 c 256,14,15
 554 -428 554 -428 531.5 -451.5 c 128,-1,16
 509 -475 509 -475 475 -475 c 2,17,-1
 158 -475 l 2,18,19
 126 -475 126 -475 102 -452 c 128,-1,20
 78 -429 78 -429 78 -396 c 2,21,-1
 78 1504 l 2,22,23
 78 1536 78 1536 102 1559.5 c 128,-1,24
 126 1583 126 1583 158 1583 c 2,0,-1
EndSplineSet
Validated: 1
EndChar

StartChar: backslash
Encoding: 92 92 63
Width: 947
VWidth: 2025
Flags: W
LayerCount: 2
Fore
SplineSet
230 1537 m 2,0,-1
 863 -46 l 2,1,2
 871 -62 871 -62 871 -78 c 0,3,4
 871 -110 871 -110 847 -134 c 0,5,6
 823 -158 823 -158 791 -158 c 256,7,8
 759 -158 759 -158 735 -135 c 0,9,10
 725 -125 725 -125 719 -114 c 2,11,-1
 86 1470 l 2,12,13
 79 1486 79 1486 78 1504 c 0,14,15
 78 1536 78 1536 102.5 1559.5 c 128,-1,16
 127 1583 127 1583 158 1583 c 256,17,18
 190 1583 190 1583 214 1560 c 0,19,20
 224 1549 224 1549 230 1537 c 2,0,-1
EndSplineSet
Validated: 1
EndChar

StartChar: bracketright
Encoding: 93 93 64
Width: 632
VWidth: 2025
Flags: W
LayerCount: 2
Fore
SplineSet
554 1504 m 2,0,-1
 554 -396 l 2,1,2
 554 -428 554 -428 531.5 -451.5 c 128,-1,3
 509 -475 509 -475 475 -475 c 2,4,-1
 158 -475 l 2,5,6
 126 -475 126 -475 102 -452 c 128,-1,7
 78 -429 78 -429 78 -396 c 256,8,9
 78 -364 78 -364 102.5 -340.5 c 128,-1,10
 127 -317 127 -317 158 -317 c 2,11,-1
 396 -317 l 1,12,-1
 396 1425 l 1,13,-1
 158 1425 l 2,14,15
 126 1425 126 1425 102 1448 c 0,16,17
 78 1472 78 1472 78 1504 c 256,18,19
 78 1536 78 1536 102.5 1559.5 c 128,-1,20
 127 1583 127 1583 158 1583 c 2,21,-1
 475 1583 l 2,22,23
 507 1583 507 1583 530.5 1559.5 c 128,-1,24
 554 1536 554 1536 554 1504 c 2,0,-1
EndSplineSet
Validated: 1
EndChar

StartChar: asciicircum
Encoding: 94 94 65
Width: 947
VWidth: 2025
Flags: W
LayerCount: 2
Fore
SplineSet
475 1360 m 1,0,-1
 222 981 l 2,1,2
 198 951 198 951 158 950 c 0,3,4
 126 950 126 950 102 973 c 128,-1,5
 78 996 78 996 78 1029 c 0,6,7
 78 1051 78 1051 90 1069 c 2,8,-1
 410 1550 l 2,9,10
 432 1582 432 1582 475 1583 c 256,11,12
 517 1583 517 1583 539 1550 c 2,13,-1
 859 1069 l 2,14,15
 871 1051 871 1051 871 1029 c 0,16,17
 871 997 871 997 847 974 c 0,18,19
 823 950 823 950 791 950 c 0,20,21
 751 950 751 950 728 981 c 2,22,-1
 475 1360 l 1,0,-1
EndSplineSet
Validated: 1
EndChar

StartChar: underscore
Encoding: 95 95 66
Width: 947
VWidth: 2025
Flags: W
LayerCount: 2
Fore
SplineSet
0 -158 m 2,0,1
 -32 -158 -32 -158 -55 -135.5 c 128,-1,2
 -78 -113 -78 -113 -78 -78 c 256,3,4
 -78 -46 -78 -46 -55 -23 c 128,-1,5
 -32 0 -32 0 0 0 c 2,6,-1
 950 0 l 2,7,8
 982 0 982 0 1005.5 -23 c 128,-1,9
 1029 -46 1029 -46 1029 -78 c 256,10,11
 1029 -110 1029 -110 1006 -134 c 128,-1,12
 983 -158 983 -158 950 -158 c 2,13,-1
 0 -158 l 2,0,1
EndSplineSet
Validated: 1
EndChar

StartChar: grave
Encoding: 96 96 67
Width: 552
VWidth: 2025
Flags: W
LayerCount: 2
Fore
SplineSet
78 1504 m 256,0,1
 78 1536 78 1536 102.5 1559.5 c 128,-1,2
 127 1583 127 1583 158 1583 c 256,3,4
 190 1583 190 1583 214 1560 c 2,5,-1
 455 1320 l 2,6,7
 475 1298 475 1298 475 1266 c 256,8,9
 475 1234 475 1234 452 1210.5 c 128,-1,10
 429 1187 429 1187 396 1187 c 0,11,12
 364 1187 364 1187 342 1208 c 2,13,-1
 102 1448 l 2,14,15
 78 1472 78 1472 78 1504 c 256,0,1
EndSplineSet
Validated: 1
EndChar

StartChar: a
Encoding: 97 97 68
Width: 1265
VWidth: 2025
Flags: W
LayerCount: 2
Fore
SplineSet
633 950 m 256,0,1
 469 950 469 950 353 834 c 128,-1,2
 237 718 237 718 237 554 c 256,3,4
 237 390 237 390 353 274 c 128,-1,5
 469 158 469 158 633 158 c 256,6,7
 797 158 797 158 913 274 c 128,-1,8
 1029 390 1029 390 1029 554 c 256,9,10
 1029 718 1029 718 913 834 c 128,-1,11
 797 950 797 950 633 950 c 256,0,1
1029 166 m 1,12,13
 863 0 863 0 633 0 c 256,14,15
 403 0 403 0 240.5 162.5 c 128,-1,16
 78 325 78 325 78 554 c 256,17,18
 78 784 78 784 241 946 c 128,-1,19
 404 1108 404 1108 633 1108 c 256,20,21
 863 1108 863 1108 1025 946 c 128,-1,22
 1187 784 1187 784 1187 554 c 2,23,-1
 1187 78 l 2,24,25
 1187 46 1187 46 1164.5 23 c 128,-1,26
 1142 0 1142 0 1108 0 c 256,27,28
 1076 0 1076 0 1052.5 23 c 128,-1,29
 1029 46 1029 46 1029 78 c 2,30,-1
 1029 166 l 1,12,13
EndSplineSet
Validated: 1
EndChar

StartChar: b
Encoding: 98 98 69
Width: 1265
VWidth: 2025
Flags: W
LayerCount: 2
Fore
SplineSet
633 158 m 256,0,1
 797 158 797 158 913 274 c 128,-1,2
 1029 390 1029 390 1029 554 c 256,3,4
 1029 718 1029 718 913 834 c 128,-1,5
 797 950 797 950 633 950 c 256,6,7
 469 950 469 950 353 834 c 128,-1,8
 237 718 237 718 237 554 c 256,9,10
 237 390 237 390 353 274 c 128,-1,11
 469 158 469 158 633 158 c 256,0,1
237 943 m 2,12,13
 239 944 239 944 241 946 c 0,14,15
 403 1108 403 1108 631 1108 c 0,16,17
 633 1108 l 256,18,19
 863 1108 863 1108 1025 946 c 128,-1,20
 1187 784 1187 784 1187 554 c 256,21,22
 1187 324 1187 324 1025 162 c 128,-1,23
 863 0 863 0 633 0 c 256,24,25
 403 0 403 0 240.5 162.5 c 128,-1,26
 78 325 78 325 78 554 c 2,27,-1
 78 1506 l 2,28,29
 78 1538 78 1538 102.5 1561.5 c 128,-1,30
 127 1585 127 1585 158 1585 c 256,31,32
 190 1585 190 1585 213.5 1562 c 128,-1,33
 237 1539 237 1539 237 1506 c 2,34,-1
 237 943 l 2,12,13
EndSplineSet
Validated: 1
EndChar

StartChar: c
Encoding: 99 99 70
Width: 1106
VWidth: 2025
Flags: W
LayerCount: 2
Fore
SplineSet
941 271 m 0,0,1
 973 271 973 271 996 247.5 c 128,-1,2
 1019 224 1019 224 1019 192 c 256,3,4
 1019 160 1019 160 994 135 c 0,5,6
 840 0 840 0 633 0 c 0,7,8
 403 0 403 0 240.5 162.5 c 128,-1,9
 78 325 78 325 78 554 c 256,10,11
 78 784 78 784 241 946 c 128,-1,12
 404 1108 404 1108 633 1108 c 0,13,14
 841 1108 841 1108 994 976 c 0,15,16
 1022 952 1022 952 1022 913 c 0,17,18
 1022 881 1022 881 999 857.5 c 128,-1,19
 976 834 976 834 944 834 c 0,20,21
 916 834 916 834 892 852 c 0,22,23
 780 950 780 950 633 950 c 0,24,25
 469 950 469 950 353 834 c 128,-1,26
 237 718 237 718 237 554 c 256,27,28
 237 390 237 390 353 274 c 128,-1,29
 469 158 469 158 633 158 c 0,30,31
 781 158 781 158 890 255 c 0,32,33
 912 271 912 271 941 271 c 0,0,1
EndSplineSet
Validated: 1
EndChar

StartChar: d
Encoding: 100 100 71
Width: 1265
VWidth: 2025
Flags: W
LayerCount: 2
Fore
SplineSet
1029 554 m 256,0,1
 1029 718 1029 718 913 834 c 128,-1,2
 797 950 797 950 633 950 c 256,3,4
 469 950 469 950 353 834 c 128,-1,5
 237 718 237 718 237 554 c 256,6,7
 237 390 237 390 353 274 c 128,-1,8
 469 158 469 158 633 158 c 256,9,10
 797 158 797 158 913 274 c 128,-1,11
 1029 390 1029 390 1029 554 c 256,0,1
1029 1506 m 2,12,13
 1029 1538 1029 1538 1051.5 1561.5 c 128,-1,14
 1074 1585 1074 1585 1108 1585 c 256,15,16
 1140 1585 1140 1585 1163.5 1562 c 128,-1,17
 1187 1539 1187 1539 1187 1506 c 2,18,-1
 1187 554 l 2,19,20
 1187 324 1187 324 1025 162 c 128,-1,21
 863 0 863 0 633 0 c 256,22,23
 403 0 403 0 240.5 162.5 c 128,-1,24
 78 325 78 325 78 554 c 256,25,26
 78 784 78 784 241 946 c 128,-1,27
 404 1108 404 1108 633 1108 c 256,28,29
 863 1108 863 1108 1025 946 c 0,30,31
 1027 944 1027 944 1029 943 c 2,32,-1
 1029 1506 l 2,12,13
EndSplineSet
Validated: 1
EndChar

StartChar: e
Encoding: 101 101 72
Width: 1265
VWidth: 2025
Flags: W
LayerCount: 2
Fore
SplineSet
1022 633 m 1,0,1
 1000 748 1000 748 913 834 c 0,2,3
 796 950 796 950 633 950 c 256,4,5
 469 950 469 950 353 834 c 0,6,7
 265 747 265 747 243 633 c 1,8,-1
 1022 633 l 1,0,1
939 269 m 0,9,10
 971 269 971 269 994 245.5 c 128,-1,11
 1017 222 1017 222 1017 190 c 256,12,13
 1017 158 1017 158 994 135 c 0,14,15
 840 0 840 0 633 0 c 0,16,17
 403 0 403 0 240.5 162.5 c 128,-1,18
 78 325 78 325 78 554 c 256,19,20
 78 784 78 784 241 946 c 128,-1,21
 404 1108 404 1108 633 1108 c 256,22,23
 863 1108 863 1108 1025 946 c 128,-1,24
 1187 784 1187 784 1187 554 c 0,25,26
 1187 522 1187 522 1164.5 498.5 c 128,-1,27
 1142 475 1142 475 1108 475 c 2,28,-1
 243 475 l 1,29,30
 265 360 265 360 353 274 c 0,31,32
 469 158 469 158 631 158 c 0,33,34
 633 158 l 0,35,36
 781 158 781 158 888 251 c 0,37,38
 912 269 912 269 939 269 c 0,9,10
EndSplineSet
Validated: 1
EndChar

StartChar: f
Encoding: 102 102 73
Width: 789
VWidth: 2025
Flags: W
LayerCount: 2
Fore
SplineSet
712 1583 m 0,0,1
 744 1583 744 1583 767.5 1560 c 128,-1,2
 791 1537 791 1537 791 1504 c 256,3,4
 791 1471 791 1471 768 1448 c 128,-1,6
 745 1425 745 1425 712 1425 c 0,7,8
 396 1425 396 1425 396 1110 c 0,9,10
 396 1109 396 1109 396 1108 c 2,11,-1
 396 1049 l 1,12,-1
 634 1049 l 2,13,14
 666 1049 666 1049 690 1025 c 128,-1,15
 714 1001 714 1001 714 970 c 256,16,17
 714 938 714 938 690.5 914 c 128,-1,18
 667 890 667 890 634 890 c 2,19,-1
 396 890 l 1,20,-1
 396 78 l 2,21,22
 396 46 396 46 372 23 c 128,-1,23
 348 0 348 0 317 0 c 256,24,25
 285 0 285 0 261 23 c 128,-1,26
 237 46 237 46 237 78 c 2,27,-1
 237 890 l 1,28,-1
 158 890 l 2,29,30
 126 890 126 890 102 914 c 128,-1,31
 78 938 78 938 78 970 c 256,32,33
 78 1002 78 1002 102.5 1025.5 c 128,-1,34
 127 1049 127 1049 158 1049 c 2,35,-1
 237 1049 l 1,36,-1
 237 1108 l 2,37,38
 237 1583 237 1583 712 1583 c 0,0,1
EndSplineSet
Validated: 1
EndChar

StartChar: g
Encoding: 103 103 74
Width: 1265
VWidth: 2025
Flags: W
LayerCount: 2
Fore
SplineSet
633 950 m 256,0,1
 469 950 469 950 353 834 c 128,-1,2
 237 718 237 718 237 554 c 256,3,4
 237 390 237 390 353 274 c 128,-1,5
 469 158 469 158 633 158 c 256,6,7
 797 158 797 158 913 274 c 128,-1,8
 1029 390 1029 390 1029 554 c 256,9,10
 1029 718 1029 718 913 834 c 128,-1,11
 797 950 797 950 633 950 c 256,0,1
1029 166 m 2,12,13
 1027 164 1027 164 1025 162 c 0,14,15
 863 0 863 0 633 0 c 256,16,17
 403 0 403 0 240.5 162.5 c 128,-1,18
 78 325 78 325 78 554 c 256,19,20
 78 784 78 784 241 946 c 128,-1,21
 404 1108 404 1108 633 1108 c 256,22,23
 863 1108 863 1108 1025 946 c 128,-1,24
 1187 784 1187 784 1187 554 c 2,25,-1
 1187 0 l 2,26,27
 1187 -174 1187 -174 1063 -301 c 0,28,29
 889 -475 889 -475 642 -475 c 256,30,31
 396 -475 396 -475 222 -301 c 0,32,33
 159 -238 159 -238 119 -163 c 0,34,35
 107 -146 107 -146 107 -123 c 0,36,37
 107 -91 107 -91 129.5 -66.5 c 128,-1,38
 152 -42 152 -42 185 -42 c 256,39,40
 218 -42 218 -42 241 -65 c 0,41,42
 251 -76 251 -76 258 -89 c 0,43,44
 287 -142 287 -142 334 -189 c 0,45,46
 463 -317 463 -317 642 -317 c 256,47,48
 821 -317 821 -317 950 -189 c 1,49,50
 1028 -94 1028 -94 1029 0 c 2,51,-1
 1029 166 l 2,12,13
EndSplineSet
Validated: 1
EndChar

StartChar: h
Encoding: 104 104 75
Width: 1186
VWidth: 2025
Flags: W
LayerCount: 2
Fore
SplineSet
78 1504 m 2,0,1
 78 1536 78 1536 102.5 1559.5 c 128,-1,2
 127 1583 127 1583 158 1583 c 256,3,4
 190 1583 190 1583 213.5 1560 c 128,-1,5
 237 1537 237 1537 237 1504 c 2,6,-1
 237 966 l 1,7,8
 385 1108 385 1108 592 1108 c 0,9,10
 594 1108 l 0,11,12
 806 1108 806 1108 957 957 c 0,13,14
 1108 805 1108 805 1108 594 c 2,15,-1
 1108 78 l 2,16,17
 1108 46 1108 46 1084.5 23 c 128,-1,18
 1061 0 1061 0 1029 0 c 256,19,20
 997 0 997 0 973.5 23 c 128,-1,21
 950 46 950 46 950 78 c 2,22,-1
 950 594 l 2,23,24
 950 742 950 742 845 846 c 0,25,26
 740 950 740 950 594 950 c 256,27,28
 446 950 446 950 341 845 c 0,29,30
 237 740 237 740 237 594 c 2,31,-1
 237 78 l 2,32,33
 237 46 237 46 214 23 c 0,34,35
 190 0 190 0 158 0 c 256,36,37
 126 0 126 0 102 23 c 128,-1,38
 78 46 78 46 78 78 c 2,39,-1
 78 1504 l 2,0,1
EndSplineSet
Validated: 1
EndChar

StartChar: i
Encoding: 105 105 76
Width: 472
VWidth: 2025
Flags: W
LayerCount: 2
Fore
SplineSet
336 1346 m 256,0,1
 336 1307 336 1307 307 1276 c 0,2,3
 280 1247 280 1247 240 1247 c 0,4,5
 238 1247 238 1247 237 1247 c 256,6,7
 199 1247 199 1247 168 1276 c 0,8,9
 139 1303 139 1303 139 1343 c 0,10,11
 139 1345 139 1345 139 1346 c 256,12,13
 139 1386 139 1386 168 1415 c 128,-1,14
 197 1444 197 1444 234 1444 c 0,15,16
 236 1444 236 1444 237 1444 c 256,17,18
 277 1444 277 1444 306.5 1415 c 128,-1,19
 336 1386 336 1386 336 1346 c 256,0,1
158 1029 m 2,20,21
 158 1061 158 1061 182 1084 c 0,22,23
 206 1108 206 1108 237 1108 c 256,24,25
 269 1108 269 1108 293 1084.5 c 128,-1,26
 317 1061 317 1061 317 1029 c 2,27,-1
 317 78 l 2,28,29
 317 46 317 46 293 23 c 0,30,31
 271 0 271 0 237 0 c 256,32,33
 205 0 205 0 181.5 23 c 128,-1,34
 158 46 158 46 158 78 c 2,35,-1
 158 1029 l 2,20,21
EndSplineSet
Validated: 1
EndChar

StartChar: j
Encoding: 106 106 77
Width: 647
VWidth: 2025
Flags: W
LayerCount: 2
Fore
SplineSet
574 1346 m 256,0,1
 574 1306 574 1306 545 1276.5 c 128,-1,2
 516 1247 516 1247 475 1247 c 256,3,4
 435 1247 435 1247 406 1276 c 0,5,6
 376 1304 376 1304 376 1346 c 256,7,8
 376 1386 376 1386 405.5 1415 c 128,-1,9
 435 1444 435 1444 475 1444 c 256,10,11
 515 1444 515 1444 544.5 1415 c 128,-1,12
 574 1386 574 1386 574 1346 c 256,0,1
396 0 m 2,13,-1
 396 1029 l 2,14,15
 396 1061 396 1061 419 1084.5 c 128,-1,16
 442 1108 442 1108 475 1108 c 256,17,18
 507 1108 507 1108 530.5 1084.5 c 128,-1,19
 554 1061 554 1061 554 1029 c 2,20,-1
 554 0 l 2,21,22
 554 -197 554 -197 415 -336 c 128,-1,23
 276 -475 276 -475 78 -475 c 0,24,25
 46 -475 46 -475 23 -452 c 128,-1,26
 0 -429 0 -429 0 -396 c 256,27,28
 0 -364 0 -364 23 -340.5 c 128,-1,29
 46 -317 46 -317 78 -317 c 0,30,31
 211 -317 211 -317 303.5 -225 c 128,-1,32
 396 -133 396 -133 396 0 c 2,13,-1
EndSplineSet
Validated: 1
EndChar

StartChar: k
Encoding: 107 107 78
Width: 1106
VWidth: 2025
Flags: W
LayerCount: 2
Fore
SplineSet
237 661 m 1,0,-1
 906 1095 l 2,1,2
 924 1107 924 1107 950 1108 c 0,3,4
 982 1108 982 1108 1005.5 1084.5 c 128,-1,5
 1029 1061 1029 1061 1029 1029 c 256,6,7
 1029 997 1029 997 1006 974 c 0,8,9
 1000 968 1000 968 995 964 c 2,10,-1
 536 665 l 1,11,-1
 1007 135 l 2,12,13
 1029 111 1029 111 1029 78 c 0,14,15
 1029 46 1029 46 1006 23 c 128,-1,16
 983 0 983 0 950 0 c 256,17,18
 918 0 918 0 892 24 c 2,19,-1
 400 578 l 1,20,-1
 237 472 l 1,21,-1
 237 78 l 2,22,23
 237 46 237 46 214 23 c 0,24,25
 190 0 190 0 158 0 c 256,26,27
 126 0 126 0 102 23 c 128,-1,28
 78 46 78 46 78 78 c 2,29,-1
 78 1504 l 2,30,31
 78 1536 78 1536 102.5 1559.5 c 128,-1,32
 127 1583 127 1583 158 1583 c 256,33,34
 190 1583 190 1583 213.5 1560 c 128,-1,35
 237 1537 237 1537 237 1504 c 2,36,-1
 237 661 l 1,0,-1
EndSplineSet
Validated: 1
EndChar

StartChar: l
Encoding: 108 108 79
Width: 472
VWidth: 2025
Flags: W
LayerCount: 2
Fore
SplineSet
78 1504 m 2,0,1
 78 1536 78 1536 102.5 1559.5 c 128,-1,2
 127 1583 127 1583 158 1583 c 256,3,4
 190 1583 190 1583 213.5 1560 c 128,-1,5
 237 1537 237 1537 237 1504 c 2,6,-1
 237 158 l 1,7,-1
 317 158 l 2,8,9
 349 158 349 158 372.5 135.5 c 128,-1,10
 396 113 396 113 396 78 c 256,11,12
 396 46 396 46 372 23 c 0,13,14
 348 0 348 0 317 0 c 2,15,-1
 158 0 l 2,16,17
 126 0 126 0 102 23 c 128,-1,18
 78 46 78 46 78 78 c 2,19,-1
 78 1504 l 2,0,1
EndSplineSet
Validated: 1
EndChar

StartChar: m
Encoding: 109 109 80
Width: 1740
VWidth: 2025
Flags: W
LayerCount: 2
Fore
SplineSet
237 78 m 2,0,1
 237 46 237 46 214 23 c 0,2,3
 190 0 190 0 158 0 c 256,4,5
 126 0 126 0 102 23 c 128,-1,6
 78 46 78 46 78 78 c 2,7,-1
 78 1029 l 2,8,9
 78 1061 78 1061 102.5 1084.5 c 128,-1,10
 127 1108 127 1108 158 1108 c 256,11,12
 190 1108 190 1108 213.5 1084.5 c 128,-1,13
 237 1061 237 1061 237 1029 c 2,14,-1
 237 1008 l 1,15,16
 356 1108 356 1108 514 1108 c 0,17,18
 694 1108 694 1108 822 981 c 0,19,20
 849 955 849 955 871 924 c 1,21,22
 893 954 893 954 919 981 c 0,23,24
 1046 1108 1046 1108 1224 1108 c 0,25,-1
 1227 1108 l 256,26,27
 1407 1108 1407 1108 1534.5 980.5 c 128,-1,28
 1662 853 1662 853 1662 673 c 2,29,-1
 1662 78 l 2,30,31
 1662 46 1662 46 1639.5 23 c 128,-1,32
 1617 0 1617 0 1583 0 c 256,33,34
 1551 0 1551 0 1527.5 23 c 128,-1,35
 1504 46 1504 46 1504 78 c 2,36,-1
 1504 673 l 2,37,38
 1504 788 1504 788 1423 869 c 128,-1,39
 1342 950 1342 950 1227 950 c 256,40,41
 1112 950 1112 950 1031 869 c 128,-1,42
 950 788 950 788 950 673 c 2,43,-1
 950 78 l 2,44,45
 950 46 950 46 926 23 c 128,-1,46
 902 0 902 0 871 0 c 256,47,48
 839 0 839 0 815 23 c 128,-1,49
 791 46 791 46 791 78 c 2,50,-1
 791 673 l 2,51,52
 791 788 791 788 710 869 c 128,-1,53
 629 950 629 950 514 950 c 256,54,55
 399 950 399 950 318 869 c 128,-1,56
 237 788 237 788 237 673 c 2,57,-1
 237 78 l 2,0,1
EndSplineSet
Validated: 1
EndChar

StartChar: n
Encoding: 110 110 81
Width: 1186
VWidth: 2025
Flags: W
LayerCount: 2
Fore
SplineSet
78 1029 m 2,0,1
 78 1061 78 1061 102.5 1084.5 c 128,-1,2
 127 1108 127 1108 158 1108 c 256,3,4
 190 1108 190 1108 213.5 1084.5 c 128,-1,5
 237 1061 237 1061 237 1029 c 2,6,-1
 237 966 l 1,7,8
 385 1108 385 1108 592 1108 c 0,9,10
 594 1108 l 0,11,12
 806 1108 806 1108 957 957 c 0,13,14
 1108 805 1108 805 1108 594 c 2,15,-1
 1108 78 l 2,16,17
 1108 46 1108 46 1084.5 23 c 128,-1,18
 1061 0 1061 0 1029 0 c 256,19,20
 997 0 997 0 973.5 23 c 128,-1,21
 950 46 950 46 950 78 c 2,22,-1
 950 594 l 2,23,24
 950 742 950 742 845 846 c 0,25,26
 740 950 740 950 594 950 c 256,27,28
 446 950 446 950 341 845 c 0,29,30
 237 740 237 740 237 594 c 2,31,-1
 237 78 l 2,32,33
 237 46 237 46 214 23 c 0,34,35
 190 0 190 0 158 0 c 256,36,37
 126 0 126 0 102 23 c 128,-1,38
 78 46 78 46 78 78 c 2,39,-1
 78 1029 l 2,0,1
EndSplineSet
Validated: 1
EndChar

StartChar: o
Encoding: 111 111 82
Width: 1265
VWidth: 2025
Flags: W
LayerCount: 2
Fore
SplineSet
1187 554 m 256,0,1
 1187 324 1187 324 1025 162 c 128,-1,2
 863 0 863 0 633 0 c 256,3,4
 403 0 403 0 240.5 162.5 c 128,-1,5
 78 325 78 325 78 554 c 256,6,7
 78 784 78 784 241 946 c 128,-1,8
 404 1108 404 1108 633 1108 c 256,9,10
 863 1108 863 1108 1025 946 c 128,-1,11
 1187 784 1187 784 1187 554 c 256,0,1
633 950 m 256,12,13
 469 950 469 950 353 834 c 128,-1,14
 237 718 237 718 237 554 c 256,15,16
 237 390 237 390 353 274 c 128,-1,17
 469 158 469 158 633 158 c 256,18,19
 797 158 797 158 913 274 c 128,-1,20
 1029 390 1029 390 1029 554 c 256,21,22
 1029 718 1029 718 913 834 c 128,-1,23
 797 950 797 950 633 950 c 256,12,13
EndSplineSet
Validated: 1
EndChar

StartChar: p
Encoding: 112 112 83
Width: 1265
VWidth: 2025
Flags: W
LayerCount: 2
Fore
SplineSet
237 554 m 256,0,1
 237 390 237 390 353 274 c 128,-1,2
 469 158 469 158 633 158 c 256,3,4
 797 158 797 158 913 274 c 128,-1,5
 1029 390 1029 390 1029 554 c 256,6,7
 1029 718 1029 718 913 834 c 128,-1,8
 797 950 797 950 633 950 c 256,9,10
 469 950 469 950 353 834 c 128,-1,11
 237 718 237 718 237 554 c 256,0,1
237 -396 m 2,12,13
 237 -428 237 -428 214 -451 c 0,14,15
 190 -475 190 -475 158 -475 c 256,16,17
 126 -475 126 -475 102 -452 c 128,-1,18
 78 -429 78 -429 78 -396 c 2,19,-1
 78 554 l 2,20,21
 78 784 78 784 241 946 c 128,-1,22
 404 1108 404 1108 633 1108 c 256,23,24
 863 1108 863 1108 1025 946 c 128,-1,25
 1187 784 1187 784 1187 554 c 256,26,27
 1187 324 1187 324 1025 162 c 128,-1,28
 863 0 863 0 633 0 c 256,29,30
 403 0 403 0 241 162 c 0,31,32
 239 164 239 164 237 166 c 2,33,-1
 237 -396 l 2,12,13
EndSplineSet
Validated: 1
EndChar

StartChar: q
Encoding: 113 113 84
Width: 1265
VWidth: 2025
Flags: W
LayerCount: 2
Fore
SplineSet
633 950 m 256,0,1
 469 950 469 950 353 834 c 128,-1,2
 237 718 237 718 237 554 c 256,3,4
 237 390 237 390 353 274 c 128,-1,5
 469 158 469 158 633 158 c 256,6,7
 797 158 797 158 913 274 c 128,-1,8
 1029 390 1029 390 1029 554 c 256,9,10
 1029 718 1029 718 913 834 c 128,-1,11
 797 950 797 950 633 950 c 256,0,1
1029 166 m 2,12,13
 1027 164 1027 164 1025 162 c 0,14,15
 863 0 863 0 633 0 c 256,16,17
 403 0 403 0 240.5 162.5 c 128,-1,18
 78 325 78 325 78 554 c 256,19,20
 78 784 78 784 241 946 c 128,-1,21
 404 1108 404 1108 633 1108 c 256,22,23
 863 1108 863 1108 1025 946 c 128,-1,24
 1187 784 1187 784 1187 554 c 2,25,-1
 1187 -396 l 2,26,27
 1187 -428 1187 -428 1164.5 -451.5 c 128,-1,28
 1142 -475 1142 -475 1108 -475 c 256,29,30
 1076 -475 1076 -475 1052.5 -452 c 128,-1,31
 1029 -429 1029 -429 1029 -396 c 2,32,-1
 1029 166 l 2,12,13
EndSplineSet
Validated: 1
EndChar

StartChar: r
Encoding: 114 114 85
Width: 947
VWidth: 2025
Flags: W
LayerCount: 2
Fore
SplineSet
78 1029 m 2,0,1
 78 1061 78 1061 102.5 1084.5 c 128,-1,2
 127 1108 127 1108 158 1108 c 256,3,4
 190 1108 190 1108 213.5 1084.5 c 128,-1,5
 237 1061 237 1061 237 1029 c 2,6,-1
 237 943 l 1,7,8
 403 1108 403 1108 631 1108 c 0,9,10
 633 1108 l 0,11,12
 750 1108 750 1108 846 1069 c 0,13,14
 865 1061 865 1061 879 1047 c 0,15,16
 902 1023 902 1023 900 991 c 256,17,18
 900 959 900 959 877.5 935.5 c 128,-1,19
 855 912 855 912 822 912 c 0,20,21
 803 912 803 912 788 920 c 0,22,23
 719 950 719 950 633 950 c 0,24,25
 469 950 469 950 353 834 c 128,-1,26
 237 718 237 718 237 554 c 2,27,-1
 237 78 l 2,28,29
 237 46 237 46 214 23 c 0,30,31
 190 0 190 0 158 0 c 256,32,33
 126 0 126 0 102 23 c 128,-1,34
 78 46 78 46 78 78 c 2,35,-1
 78 1029 l 2,0,1
EndSplineSet
Validated: 1
EndChar

StartChar: s
Encoding: 115 115 86
Width: 1047
VWidth: 2025
Flags: W
LayerCount: 2
Fore
SplineSet
275 554 m 2,0,1
 187 588 187 588 150 624 c 0,2,3
 78 695 78 695 78 791 c 256,4,5
 78 792 78 792 78 794 c 0,6,7
 77.9868421053 795.263157895 77.9868421053 795.263157895 77.9868421053 796.522506925 c 0,8,9
 77.9868421053 890.973684211 77.9868421053 890.973684211 152 964 c 0,10,11
 298 1108 298 1108 521 1108 c 0,12,13
 522 1108 522 1108 524 1108 c 0,14,15
 771 1108 771 1108 950 908 c 0,16,17
 966 890 966 890 966 863 c 0,18,19
 966 831 966 831 942 807.5 c 128,-1,20
 918 784 918 784 884 784 c 256,21,22
 852 784 852 784 832.5 804.5 c 128,-1,23
 813 825 813 825 805 834 c 0,24,25
 688 950 688 950 524 950 c 256,26,27
 360 950 360 950 262 847 c 0,28,29
 237 819 237 819 237 780 c 0,30,31
 240 734 240 734 287 715 c 2,32,-1
 774 554 l 2,33,34
 864 521 864 521 898 484 c 0,35,36
 967 414 967 414 970 317 c 256,37,38
 970 220 970 220 896 146 c 0,39,40
 754 0 754 0 524 0 c 0,41,42
 275 0 275 0 99 199 c 0,43,44
 84 220 84 220 83 245 c 0,45,46
 83 277 83 277 107 301 c 128,-1,47
 131 325 131 325 163 325 c 256,48,49
 195 325 195 325 215 304 c 128,-1,50
 235 283 235 283 243 274 c 0,51,52
 360 158 360 158 522 158 c 0,53,-1
 524 158 l 256,54,55
 701 158 701 158 788 261 c 0,56,57
 810 287 810 287 810 324 c 0,58,59
 810 327 810 327 810 330 c 0,60,61
 810 375 810 375 762 392 c 2,62,-1
 275 554 l 2,0,1
EndSplineSet
Validated: 1
EndChar

StartChar: t
Encoding: 116 116 87
Width: 789
VWidth: 2025
Flags: W
LayerCount: 2
Fore
SplineSet
633 158 m 0,0,1
 665 158 665 158 688.5 135.5 c 128,-1,2
 712 113 712 113 712 78 c 256,3,4
 712 46 712 46 689 23 c 128,-1,5
 666 0 666 0 633 0 c 0,6,7
 237 0 237 0 237 396 c 2,8,-1
 237 950 l 1,9,-1
 158 950 l 2,10,11
 126 950 126 950 102 973 c 128,-1,12
 78 996 78 996 78 1029 c 256,13,14
 78 1061 78 1061 102.5 1084.5 c 128,-1,15
 127 1108 127 1108 158 1108 c 2,16,-1
 237 1108 l 1,17,-1
 237 1504 l 2,18,19
 237 1536 237 1536 261 1559 c 0,20,21
 283 1583 283 1583 317 1583 c 256,22,23
 349 1583 349 1583 372.5 1560 c 128,-1,24
 396 1537 396 1537 396 1504 c 2,25,-1
 396 1108 l 1,26,-1
 555 1108 l 2,27,28
 587 1108 587 1108 610.5 1084.5 c 128,-1,29
 634 1061 634 1061 634 1029 c 256,30,31
 634 997 634 997 611 973.5 c 128,-1,32
 588 950 588 950 555 950 c 2,33,-1
 396 950 l 1,34,-1
 396 396 l 2,35,36
 396 158 396 158 633 158 c 0,0,1
EndSplineSet
Validated: 1
EndChar

StartChar: u
Encoding: 117 117 88
Width: 1186
VWidth: 2025
Flags: W
LayerCount: 2
Fore
SplineSet
1108 78 m 2,0,1
 1108 46 1108 46 1084.5 23 c 128,-1,2
 1061 0 1061 0 1029 0 c 256,3,4
 997 0 997 0 973.5 23 c 128,-1,5
 950 46 950 46 950 78 c 2,6,-1
 950 144 l 1,7,8
 802 0 802 0 594 0 c 0,9,10
 382 0 382 0 230 150.5 c 128,-1,11
 78 301 78 301 78 514 c 2,12,-1
 78 1029 l 2,13,14
 78 1061 78 1061 102.5 1084.5 c 128,-1,15
 127 1108 127 1108 158 1108 c 256,16,17
 190 1108 190 1108 213.5 1084.5 c 128,-1,18
 237 1061 237 1061 237 1029 c 2,19,-1
 237 514 l 2,20,21
 237 366 237 366 342 262 c 0,22,23
 445 158 445 158 594 158 c 256,24,25
 742 158 742 158 846 263 c 0,26,27
 950 366 950 366 950 514 c 2,28,-1
 950 1029 l 2,29,30
 950 1061 950 1061 973 1084.5 c 128,-1,31
 996 1108 996 1108 1029 1108 c 256,32,33
 1061 1108 1061 1108 1084.5 1084.5 c 128,-1,34
 1108 1061 1108 1061 1108 1029 c 2,35,-1
 1108 78 l 2,0,1
EndSplineSet
Validated: 1
EndChar

StartChar: v
Encoding: 118 118 89
Width: 1186
VWidth: 2025
Flags: W
LayerCount: 2
Fore
SplineSet
650 22 m 0,0,1
 627 0 627 0 594 0 c 256,2,3
 560 0 560 0 537 23 c 0,4,5
 530 30 530 30 524 42 c 2,6,-1
 85 998 l 2,7,8
 79 1012 79 1012 78 1029 c 0,9,10
 78 1061 78 1061 102.5 1084.5 c 128,-1,11
 127 1108 127 1108 158 1108 c 256,12,13
 190 1108 190 1108 214 1084 c 0,14,15
 222 1076 222 1076 230 1065 c 2,16,-1
 594 269 l 1,17,-1
 958 1065 l 2,18,19
 964 1078 964 1078 974 1084 c 0,20,21
 997 1107 997 1107 1029 1108 c 256,22,23
 1061 1108 1061 1108 1084.5 1084.5 c 128,-1,24
 1108 1061 1108 1061 1108 1029 c 0,25,26
 1108 1012 1108 1012 1102 998 c 2,27,-1
 663 42 l 2,28,29
 657 30 657 30 650 22 c 0,0,1
EndSplineSet
Validated: 1
EndChar

StartChar: w
Encoding: 119 119 90
Width: 1581
VWidth: 2025
Flags: W
LayerCount: 2
Fore
SplineSet
736 1084 m 0,0,1
 758 1107 758 1107 791 1108 c 256,2,3
 823 1108 823 1108 848 1084 c 0,4,5
 863 1068 863 1068 869 1049 c 2,6,-1
 1108 330 l 1,7,-1
 1353 1063 l 2,8,9
 1359 1075 1359 1075 1369 1084 c 0,10,11
 1393 1107 1393 1107 1425 1108 c 256,12,13
 1457 1108 1457 1108 1480.5 1084.5 c 128,-1,14
 1504 1061 1504 1061 1504 1029 c 0,15,16
 1504 1013 1504 1013 1498 998 c 2,17,-1
 1182 49 l 2,18,19
 1177 34 1177 34 1165 22 c 0,20,21
 1141 0 1141 0 1108 0 c 256,22,23
 1076 0 1076 0 1053 22 c 0,24,25
 1040 36 1040 36 1034 49 c 2,26,-1
 791 780 l 1,27,-1
 549 49 l 2,28,29
 543 34 543 34 531 22 c 0,30,31
 507 0 507 0 475 0 c 256,32,33
 443 0 443 0 419 22 c 0,34,35
 405 36 405 36 400 49 c 2,36,-1
 85 998 l 2,37,38
 79 1013 79 1013 78 1029 c 0,39,40
 78 1061 78 1061 102.5 1084.5 c 128,-1,41
 127 1108 127 1108 158 1108 c 256,42,43
 190 1108 190 1108 214 1084 c 0,44,45
 224 1074 224 1074 230 1063 c 2,46,-1
 475 330 l 1,47,-1
 714 1049 l 2,48,49
 721 1068 721 1068 736 1084 c 0,0,1
EndSplineSet
Validated: 1
EndChar

StartChar: x
Encoding: 120 120 91
Width: 1106
VWidth: 2025
Flags: W
LayerCount: 2
Fore
SplineSet
451 555 m 1,0,-1
 98 978 l 2,1,2
 79 1000 79 1000 78 1029 c 0,3,4
 78 1061 78 1061 102.5 1084.5 c 128,-1,5
 127 1108 127 1108 158 1108 c 256,6,7
 190 1108 190 1108 216 1082 c 2,8,-1
 554 679 l 1,9,-1
 890 1082 l 2,10,11
 916 1106 916 1106 950 1108 c 256,12,13
 982 1108 982 1108 1005.5 1084.5 c 128,-1,14
 1029 1061 1029 1061 1029 1029 c 0,15,16
 1029 1000 1029 1000 1010 978 c 2,17,-1
 657 555 l 1,18,-1
 1013 129 l 2,19,20
 1029 108 1029 108 1029 78 c 0,21,22
 1029 46 1029 46 1006 23 c 128,-1,23
 983 0 983 0 950 0 c 256,24,25
 918 0 918 0 894 24 c 2,26,-1
 554 431 l 1,27,-1
 214 24 l 2,28,29
 190 0 190 0 158 0 c 256,30,31
 126 0 126 0 102 23 c 128,-1,32
 78 46 78 46 78 78 c 0,33,34
 78 107 78 107 95 129 c 2,35,-1
 451 555 l 1,0,-1
EndSplineSet
Validated: 1
EndChar

StartChar: y
Encoding: 121 121 92
Width: 1106
VWidth: 2025
Flags: W
LayerCount: 2
Fore
SplineSet
468 79 m 1,0,-1
 88 992 l 2,1,2
 79 1009 79 1009 78 1029 c 0,3,4
 78 1061 78 1061 102.5 1084.5 c 128,-1,5
 127 1108 127 1108 158 1108 c 256,6,7
 190 1108 190 1108 214 1084 c 0,8,9
 228 1070 228 1070 233 1055 c 2,10,-1
 554 287 l 1,11,-1
 875 1055 l 2,12,13
 881 1071 881 1071 894 1084 c 0,14,15
 916 1107 916 1107 950 1108 c 256,16,17
 982 1108 982 1108 1005.5 1084.5 c 128,-1,18
 1029 1061 1029 1061 1029 1029 c 0,19,20
 1029 1009 1029 1009 1020 992 c 2,21,-1
 431 -423 l 2,22,23
 425 -439 425 -439 412 -451 c 0,24,25
 388 -475 388 -475 355 -475 c 256,26,27
 323 -475 323 -475 299.5 -452 c 128,-1,28
 276 -429 276 -429 276 -396 c 0,29,30
 276 -376 276 -376 285 -359 c 2,31,-1
 468 79 l 1,0,-1
EndSplineSet
Validated: 1
EndChar

StartChar: z
Encoding: 122 122 93
Width: 1106
VWidth: 2025
Flags: W
LayerCount: 2
Fore
SplineSet
950 158 m 2,0,1
 982 158 982 158 1005.5 135.5 c 128,-1,2
 1029 113 1029 113 1029 78 c 256,3,4
 1029 46 1029 46 1006 23 c 128,-1,5
 983 0 983 0 950 0 c 2,6,-1
 158 0 l 2,7,8
 126 0 126 0 102 23 c 128,-1,9
 78 46 78 46 78 78 c 0,10,11
 78 107 78 107 95 129 c 2,12,-1
 782 950 l 1,13,-1
 158 950 l 2,14,15
 126 950 126 950 102 973 c 128,-1,16
 78 996 78 996 78 1029 c 256,17,18
 78 1061 78 1061 102.5 1084.5 c 128,-1,19
 127 1108 127 1108 158 1108 c 2,20,-1
 950 1108 l 2,21,22
 982 1108 982 1108 1005.5 1084.5 c 128,-1,23
 1029 1061 1029 1061 1029 1029 c 0,24,25
 1029 1000 1029 1000 1010 978 c 2,26,-1
 326 158 l 1,27,-1
 950 158 l 2,0,1
EndSplineSet
Validated: 1
EndChar

StartChar: braceleft
Encoding: 123 123 94
Width: 789
VWidth: 2025
Flags: W
LayerCount: 2
Fore
SplineSet
633 1583 m 0,0,1
 665 1583 665 1583 688.5 1560 c 128,-1,2
 712 1537 712 1537 712 1504 c 256,3,4
 712 1472 712 1472 689 1448.5 c 128,-1,5
 666 1425 666 1425 633 1425 c 0,6,7
 475 1425 475 1425 475 1266 c 2,8,-1
 475 791 l 2,9,10
 475 633 475 633 396 554 c 1,11,12
 474 475 474 475 475 317 c 2,13,-1
 475 -158 l 2,14,15
 475 -316 475 -316 633 -317 c 0,16,17
 665 -317 665 -317 689 -340 c 0,18,19
 713 -364 713 -364 712 -396 c 256,20,21
 712 -428 712 -428 689 -451.5 c 128,-1,22
 666 -475 666 -475 633 -475 c 0,23,24
 317 -475 317 -475 317 -162 c 0,25,26
 317 -161 317 -161 317 -160 c 0,27,-1
 317 -158 l 2,28,-1
 317 317 l 2,29,30
 317 475 317 475 160 475 c 0,31,-1
 158 475 l 0,32,33
 126 475 126 475 102 498.5 c 128,-1,34
 78 522 78 522 78 554 c 256,35,36
 78 586 78 586 102.5 609.5 c 128,-1,37
 127 633 127 633 158 633 c 0,38,39
 316 633 316 633 317 791 c 2,40,-1
 317 1266 l 2,41,42
 317 1583 317 1583 631 1583 c 0,43,44
 632 1583 632 1583 633 1583 c 0,0,1
EndSplineSet
Validated: 1
EndChar

StartChar: bar
Encoding: 124 124 95
Width: 789
VWidth: 2025
Flags: W
LayerCount: 2
Fore
SplineSet
317 1504 m 2,0,1
 317 1536 317 1536 340 1559 c 0,2,3
 364 1583 364 1583 396 1583 c 256,4,5
 428 1583 428 1583 451.5 1560 c 128,-1,6
 475 1537 475 1537 475 1504 c 2,7,-1
 475 -396 l 2,8,9
 475 -428 475 -428 452 -451.5 c 128,-1,10
 429 -475 429 -475 396 -475 c 256,11,12
 364 -475 364 -475 340.5 -452 c 128,-1,13
 317 -429 317 -429 317 -396 c 2,14,-1
 317 1504 l 2,0,1
EndSplineSet
Validated: 1
EndChar

StartChar: braceright
Encoding: 125 125 96
Width: 789
VWidth: 2025
Flags: W
LayerCount: 2
Fore
SplineSet
475 1266 m 2,0,-1
 475 791 l 2,1,2
 475 633 475 633 633 633 c 0,3,4
 665 633 665 633 688.5 609.5 c 128,-1,5
 712 586 712 586 712 554 c 256,6,7
 712 522 712 522 689 498.5 c 128,-1,8
 666 475 666 475 633 475 c 0,9,10
 475 475 475 475 475 317 c 2,11,-1
 475 -158 l 2,12,13
 475 -475 475 -475 160 -475 c 0,14,15
 158 -475 l 0,16,17
 126 -475 126 -475 102 -452 c 128,-1,18
 78 -429 78 -429 78 -396 c 256,19,20
 78 -364 78 -364 102.5 -340.5 c 128,-1,21
 127 -317 127 -317 158 -317 c 0,22,23
 316 -317 316 -317 317 -158 c 2,24,-1
 317 317 l 2,25,26
 317 475 317 475 396 554 c 1,27,28
 317 631 317 631 317 791 c 2,29,-1
 317 1266 l 2,30,31
 317 1424 317 1424 160 1425 c 0,32,33
 158 1425 l 0,34,35
 126 1425 126 1425 102 1448 c 0,36,37
 78 1472 78 1472 78 1504 c 256,38,39
 78 1536 78 1536 102.5 1559.5 c 128,-1,40
 127 1583 127 1583 158 1583 c 0,41,42
 160 1583 l 0,43,44
 475 1583 475 1583 475 1266 c 2,0,-1
EndSplineSet
Validated: 1
EndChar

StartChar: asciitilde
Encoding: 126 126 97
Width: 947
VWidth: 2025
Flags: W
LayerCount: 2
Fore
SplineSet
526 679 m 0,0,1
 437 602 437 602 317 602 c 0,2,3
 184 602 184 602 92 693 c 0,4,5
 70 717 70 717 69 749 c 0,6,7
 69 781 69 781 93 804.5 c 128,-1,8
 117 828 117 828 150 828 c 0,9,10
 184 828 184 828 205 806 c 0,11,12
 250 759 250 759 317 759 c 0,13,14
 319 759 319 759 320 759 c 0,15,16
 321.444444444 758.972222222 321.444444444 758.972222222 322.882716049 758.972222222 c 0,17,18
 373.222222222 758.972222222 373.222222222 758.972222222 416 793 c 0,19,20
 515 872 515 872 625 873 c 0,21,22
 758 873 758 873 850 780 c 0,23,24
 871 756 871 756 871 724 c 256,25,26
 871 692 871 692 848 668.5 c 128,-1,27
 825 645 825 645 793 645 c 256,28,29
 761 645 761 645 737 667 c 0,30,31
 691 714 691 714 625 714 c 0,32,33
 568 713 568 713 526 679 c 0,0,1
EndSplineSet
Validated: 1
EndChar

StartChar: exclamdown
Encoding: 161 161 98
Width: 393
VWidth: 2025
Flags: W
LayerCount: 2
Fore
SplineSet
198 869 m 256,0,1
 149 869 149 869 113.5 904.5 c 128,-1,2
 78 940 78 940 78 989 c 256,3,4
 78 1038 78 1038 113 1072.5 c 128,-1,5
 148 1107 148 1107 198 1107 c 256,6,7
 247 1107 247 1107 282 1072 c 128,-1,8
 317 1037 317 1037 317 989 c 256,9,10
 317 940 317 940 282 904.5 c 128,-1,11
 247 869 247 869 198 869 c 256,0,1
119 712 m 2,12,13
 119 744 119 744 142 768 c 256,14,15
 165 792 165 792 198 791 c 256,16,17
 230 791 230 791 254 768 c 0,18,19
 277 744 277 744 277 712 c 2,20,-1
 277 -396 l 2,21,22
 277 -428 277 -428 253.5 -451.5 c 128,-1,23
 230 -475 230 -475 198 -475 c 256,24,25
 166 -475 166 -475 142.5 -452 c 128,-1,26
 119 -429 119 -429 119 -396 c 2,27,-1
 119 712 l 2,12,13
EndSplineSet
Validated: 1
EndChar

StartChar: cent
Encoding: 162 162 99
Width: 1106
VWidth: 2025
Flags: W
LayerCount: 2
Fore
SplineSet
357 277 m 1,0,-1
 626 950 l 1,1,2
 470 945 470 945 360 834 c 0,3,4
 243 717 243 717 243 554 c 0,5,6
 243 392 243 392 357 277 c 1,0,-1
491 186 m 1,7,8
 558 158 558 158 640 158 c 0,9,10
 789 158 789 158 898 255 c 0,11,12
 920 271 920 271 948 271 c 0,13,14
 980 271 980 271 1003 247.5 c 128,-1,15
 1026 224 1026 224 1026 192 c 256,16,17
 1026 160 1026 160 1001 135 c 0,18,19
 847 0 847 0 640 0 c 0,20,21
 526 0 526 0 433 38 c 1,22,-1
 313 -266 l 2,23,24
 301 -297 301 -297 270 -311 c 0,25,26
 253 -317 253 -317 237 -317 c 0,27,28
 221 -317 221 -317 208 -311 c 0,29,30
 178 -299 178 -299 165 -268 c 128,-1,31
 152 -237 152 -237 164 -208 c 2,32,-1
 295 121 l 1,33,34
 271 141 271 141 247 162 c 0,35,36
 86 323 86 323 86 551 c 0,37,38
 86 552 86 552 86 554 c 256,39,40
 86 784 86 784 248 946 c 128,-1,41
 410 1108 410 1108 640 1108 c 0,42,43
 665 1108 665 1108 689 1106 c 1,44,-1
 797 1375 l 2,45,46
 810 1405 810 1405 840 1419 c 0,47,48
 853 1425 853 1425 871 1425 c 0,49,50
 886 1425 886 1425 898 1419 c 0,51,52
 928 1407 928 1407 943 1377 c 0,53,54
 956 1349 956 1349 944 1318 c 2,55,-1
 846 1070 l 1,56,57
 928 1036 928 1036 1001 976 c 0,58,59
 1029 952 1029 952 1029 913 c 0,60,61
 1029 881 1029 881 1006 857.5 c 128,-1,62
 983 834 983 834 950 834 c 0,63,64
 922 834 922 834 898 852 c 0,65,66
 847 898 847 898 788 922 c 1,67,-1
 491 186 l 1,7,8
EndSplineSet
Validated: 1
EndChar

StartChar: sterling
Encoding: 163 163 100
Width: 1027
VWidth: 2025
Flags: W
LayerCount: 2
Fore
SplineSet
237 0 m 2,0,1
 205 0 205 0 181.5 23 c 128,-1,2
 158 46 158 46 158 78 c 0,3,4
 158 95 158 95 164 112 c 0,5,6
 276 371 276 371 276 612 c 0,7,8
 276 615 276 615 276 617 c 0,9,10
 276 625 276 625 276 633 c 1,11,-1
 158 633 l 2,12,13
 126 633 126 633 102 656 c 128,-1,14
 78 679 78 679 78 712 c 256,15,16
 78 744 78 744 102.5 767.5 c 128,-1,17
 127 791 127 791 158 791 c 2,18,-1
 262 791 l 1,19,20
 240 918 240 918 188 1039 c 1,21,-1
 189 1039 l 1,22,23
 158 1112 158 1112 158 1187 c 0,24,25
 158 1351 158 1351 274 1467 c 128,-1,26
 390 1583 390 1583 554 1583 c 256,27,28
 718 1583 718 1583 834 1467 c 0,29,30
 863 1440 863 1440 884 1407 c 0,31,32
 900 1385 900 1385 899 1357 c 0,33,34
 899 1325 899 1325 876 1301.5 c 128,-1,35
 853 1278 853 1278 821 1278 c 0,36,37
 785 1278 785 1278 766 1302 c 0,38,39
 749 1326 749 1326 722 1355 c 0,40,41
 653 1424 653 1424 554 1425 c 256,42,43
 456 1425 456 1425 386.5 1355 c 128,-1,44
 317 1285 317 1285 317 1187 c 0,45,46
 317 1143 317 1143 336 1098 c 0,47,48
 399 948 399 948 423 791 c 1,49,-1
 712 791 l 2,50,51
 744 791 744 791 768 768 c 0,52,53
 792 744 792 744 791 712 c 256,54,55
 791 680 791 680 768 657 c 0,56,57
 744 633 744 633 712 633 c 2,58,-1
 435 633 l 1,59,60
 435 628 435 628 435 622 c 0,61,62
 435 397 435 397 352 158 c 1,63,-1
 742 158 l 1,64,-1
 801 277 l 2,65,66
 823 317 823 317 871 317 c 0,67,68
 903 317 903 317 926 293 c 0,69,70
 950 271 950 271 950 237 c 0,71,72
 950 216 950 216 942 200 c 2,73,-1
 865 47 l 2,74,75
 859 35 859 35 848 24 c 0,76,77
 823 0 823 0 791 0 c 2,78,-1
 237 0 l 2,0,1
EndSplineSet
Validated: 1
EndChar

StartChar: currency
Encoding: 164 164 101
Width: 947
VWidth: 2025
Flags: W
LayerCount: 2
Fore
SplineSet
475 899 m 256,0,1
 410 899 410 899 363.5 853 c 128,-1,2
 317 807 317 807 317 742 c 256,3,4
 317 677 317 677 363.5 630.5 c 128,-1,5
 410 584 410 584 475 584 c 256,6,7
 540 584 540 584 586.5 630.5 c 128,-1,8
 633 677 633 677 633 742 c 256,9,10
 633 807 633 807 586.5 853 c 128,-1,11
 540 899 540 899 475 899 c 256,0,1
706 1084 m 2,12,13
 728 1107 728 1107 762 1108 c 256,14,15
 794 1108 794 1108 817.5 1084.5 c 128,-1,16
 841 1061 841 1061 841 1029 c 256,17,18
 841 997 841 997 817 972 c 2,19,-1
 747 905 l 1,20,21
 790 833 790 833 791 742 c 0,22,23
 791 653 791 653 750 582 c 1,24,-1
 818 512 l 2,25,26
 841 488 841 488 841 455 c 256,27,28
 841 423 841 423 818 399.5 c 128,-1,29
 795 376 795 376 762 376 c 0,30,31
 730 376 730 376 708 398 c 1,32,-1
 706 396 l 1,33,-1
 639 470 l 1,34,35
 567 425 567 425 475 425 c 0,36,37
 386 425 386 425 317 467 c 1,38,-1
 239 396 l 2,39,40
 217 376 217 376 188 376 c 0,41,42
 156 376 156 376 133 399.5 c 128,-1,43
 110 423 110 423 110 455 c 256,44,45
 109 487 109 487 133 512 c 2,46,-1
 204 578 l 1,47,48
 158 649 158 649 158 742 c 0,49,50
 158 830 158 830 200 900 c 1,51,-1
 133 974 l 2,52,53
 109 997 109 997 110 1029 c 256,54,55
 110 1061 110 1061 133 1084.5 c 128,-1,56
 156 1108 156 1108 188 1108 c 256,57,58
 220 1108 220 1108 241 1086 c 2,59,-1
 311 1014 l 1,60,61
 383 1059 383 1059 475 1059 c 0,62,63
 563 1059 563 1059 634 1017 c 1,64,-1
 706 1084 l 2,12,13
EndSplineSet
Validated: 1
EndChar

StartChar: yen
Encoding: 165 165 102
Width: 1265
VWidth: 2025
Flags: W
LayerCount: 2
Fore
SplineSet
158 871 m 2,0,1
 126 871 126 871 102 894 c 0,2,3
 78 916 78 916 78 950 c 256,4,5
 78 982 78 982 102.5 1005.5 c 128,-1,6
 127 1029 127 1029 158 1029 c 2,7,-1
 380 1029 l 1,8,-1
 92 1459 l 2,9,10
 79 1480 79 1480 78 1504 c 0,11,12
 78 1536 78 1536 102.5 1559.5 c 128,-1,13
 127 1583 127 1583 158 1583 c 0,14,15
 198 1583 198 1583 222 1550 c 2,16,-1
 633 936 l 1,17,-1
 1043 1550 l 2,18,19
 1067 1582 1067 1582 1108 1583 c 0,20,21
 1140 1583 1140 1583 1163.5 1560 c 128,-1,22
 1187 1537 1187 1537 1187 1504 c 0,23,24
 1187 1480 1187 1480 1174 1459 c 2,25,-1
 886 1029 l 1,26,-1
 1109 1029 l 2,27,28
 1142 1029 1142 1029 1165 1006 c 0,29,30
 1188 981 1188 981 1187 950 c 256,31,32
 1187 918 1187 918 1165 894 c 0,33,34
 1141 870 1141 870 1109 871 c 2,35,-1
 782 871 l 1,36,-1
 712 768 l 1,37,-1
 712 633 l 1,38,-1
 1108 633 l 2,39,40
 1140 633 1140 633 1163.5 609.5 c 128,-1,41
 1187 586 1187 586 1187 554 c 256,42,43
 1187 522 1187 522 1164.5 498.5 c 128,-1,44
 1142 475 1142 475 1108 475 c 2,45,-1
 712 475 l 1,46,-1
 712 78 l 2,47,48
 712 46 712 46 689 23 c 128,-1,49
 666 0 666 0 633 0 c 256,50,51
 601 0 601 0 577.5 23 c 128,-1,52
 554 46 554 46 554 78 c 2,53,-1
 554 475 l 1,54,-1
 158 475 l 2,55,56
 126 475 126 475 102 498.5 c 128,-1,57
 78 522 78 522 78 554 c 256,58,59
 78 586 78 586 102.5 609.5 c 128,-1,60
 127 633 127 633 158 633 c 2,61,-1
 554 633 l 1,62,-1
 554 768 l 1,63,-1
 485 871 l 1,64,-1
 158 871 l 2,0,1
EndSplineSet
Validated: 1
EndChar

StartChar: brokenbar
Encoding: 166 166 103
Width: 472
VWidth: 2025
Flags: W
LayerCount: 2
Fore
SplineSet
158 1662 m 2,0,1
 158 1694 158 1694 182 1718 c 0,2,3
 206 1742 206 1742 237 1741 c 256,4,5
 269 1741 269 1741 293 1717.5 c 128,-1,6
 317 1694 317 1694 317 1662 c 2,7,-1
 317 950 l 2,8,9
 317 918 317 918 293 894 c 0,10,11
 271 870 271 870 237 871 c 256,12,13
 205 871 205 871 182 894 c 0,14,15
 158 916 158 916 158 950 c 2,16,-1
 158 1662 l 2,0,1
317 -396 m 2,17,18
 317 -428 317 -428 293 -451 c 0,19,20
 271 -475 271 -475 237 -475 c 256,21,22
 205 -475 205 -475 181.5 -452 c 128,-1,23
 158 -429 158 -429 158 -396 c 2,24,-1
 158 317 l 2,25,26
 158 349 158 349 182 372 c 0,27,28
 206 396 206 396 237 396 c 256,29,30
 269 396 269 396 293 372 c 0,31,32
 317 348 317 348 317 317 c 2,33,-1
 317 -396 l 2,17,18
EndSplineSet
Validated: 1
EndChar

StartChar: section
Encoding: 167 167 104
Width: 947
VWidth: 2025
Flags: W
LayerCount: 2
Fore
SplineSet
475 158 m 0,0,1
 311 158 311 158 194.5 274 c 128,-1,2
 78 390 78 390 78 554 c 256,3,4
 78 718 78 718 195 834 c 0,5,6
 214 855 214 855 235 871 c 1,7,8
 213 888 213 888 195 906 c 0,9,10
 78 1023 78 1023 78 1187 c 256,11,12
 78 1351 78 1351 194.5 1467 c 128,-1,13
 311 1583 311 1583 475 1583 c 256,14,15
 639 1583 639 1583 755 1467 c 128,-1,16
 871 1351 871 1351 871 1187 c 0,17,18
 871 1155 871 1155 847 1132 c 0,19,20
 823 1108 823 1108 791 1108 c 256,21,22
 759 1108 759 1108 735.5 1132 c 128,-1,23
 712 1156 712 1156 712 1187 c 0,24,25
 712 1285 712 1285 642.5 1355 c 128,-1,26
 573 1425 573 1425 475 1425 c 256,27,28
 377 1425 377 1425 307 1355 c 128,-1,29
 237 1285 237 1285 237 1187 c 256,30,31
 237 1089 237 1089 307 1019.5 c 128,-1,32
 377 950 377 950 475 950 c 0,33,34
 639 950 639 950 755 834 c 128,-1,35
 871 718 871 718 871 554 c 256,36,37
 871 390 871 390 755 274 c 0,38,39
 736 255 736 255 714 237 c 1,40,41
 736 220 736 220 755 201 c 0,42,43
 871 85 871 85 871 -75 c 0,44,45
 871 -77 871 -77 871 -78 c 256,46,47
 871 -242 871 -242 755 -358.5 c 128,-1,48
 639 -475 639 -475 475 -475 c 256,49,50
 311 -475 311 -475 194.5 -359 c 128,-1,51
 78 -243 78 -243 78 -78 c 0,52,53
 78 -46 78 -46 102.5 -23 c 128,-1,54
 127 0 127 0 158 0 c 256,55,56
 190 0 190 0 213.5 -23 c 128,-1,57
 237 -46 237 -46 237 -78 c 0,58,59
 237 -176 237 -176 307 -246.5 c 128,-1,60
 377 -317 377 -317 475 -317 c 256,61,62
 573 -317 573 -317 642.5 -247 c 128,-1,63
 712 -177 712 -177 712 -78 c 256,64,65
 712 20 712 20 642.5 89 c 128,-1,66
 573 158 573 158 475 158 c 0,0,1
475 791 m 256,67,68
 377 791 377 791 307 721.5 c 128,-1,69
 237 652 237 652 237 554 c 256,70,71
 237 456 237 456 307 386.5 c 128,-1,72
 377 317 377 317 475 317 c 256,73,74
 573 317 573 317 642.5 386.5 c 128,-1,75
 712 456 712 456 712 554 c 256,76,77
 712 652 712 652 642.5 721.5 c 128,-1,78
 573 791 573 791 475 791 c 256,67,68
EndSplineSet
Validated: 1
EndChar

StartChar: dieresis
Encoding: 168 168 105
Width: 947
VWidth: 2025
Flags: W
LayerCount: 2
Fore
SplineSet
336 1346 m 256,0,1
 336 1306 336 1306 306.5 1276.5 c 128,-1,2
 277 1247 277 1247 235 1247 c 256,3,4
 197 1247 197 1247 167 1276 c 0,5,6
 139 1303 139 1303 139 1343 c 0,7,8
 139 1345 139 1345 139 1346 c 256,9,10
 139 1386 139 1386 167.5 1415 c 128,-1,11
 196 1444 196 1444 235 1444 c 256,12,13
 275 1444 275 1444 305.5 1415 c 128,-1,14
 336 1386 336 1386 336 1346 c 256,0,1
810 1346 m 256,15,16
 810 1306 810 1306 781 1276.5 c 128,-1,17
 752 1247 752 1247 712 1247 c 256,18,19
 672 1247 672 1247 643 1276 c 0,20,21
 613 1304 613 1304 613 1346 c 256,22,23
 613 1386 613 1386 642 1415 c 128,-1,24
 671 1444 671 1444 712 1444 c 256,25,26
 752 1444 752 1444 781 1415 c 128,-1,27
 810 1386 810 1386 810 1346 c 256,15,16
EndSplineSet
Validated: 1
EndChar

StartChar: copyright
Encoding: 169 169 106
Width: 1740
VWidth: 2025
Flags: W
LayerCount: 2
Fore
SplineSet
1177 509 m 0,0,1
 1209 509 1209 509 1233 485 c 128,-1,2
 1257 461 1257 461 1257 429 c 256,3,4
 1257 397 1257 397 1231 371 c 0,5,6
 1077 237 1077 237 871 237 c 0,7,8
 641 237 641 237 479 399.5 c 128,-1,9
 317 562 317 562 317 791 c 256,10,11
 317 1021 317 1021 479 1183.5 c 128,-1,12
 641 1346 641 1346 871 1346 c 0,13,14
 1067 1346 1067 1346 1231 1212 c 0,15,16
 1258 1190 1258 1190 1258 1155 c 0,17,18
 1258 1153 1258 1153 1258 1152 c 0,19,20
 1258 1120 1258 1120 1235.5 1095 c 128,-1,21
 1213 1070 1213 1070 1180 1070 c 0,22,23
 1151 1070 1151 1070 1130 1088 c 0,24,25
 1019 1186 1019 1186 871 1187 c 0,26,27
 707 1187 707 1187 591 1071.5 c 128,-1,28
 475 956 475 956 475 791 c 256,29,30
 475 627 475 627 590.5 511.5 c 128,-1,31
 706 396 706 396 871 396 c 0,32,33
 1019 396 1019 396 1130 493 c 0,34,35
 1149 509 1149 509 1177 509 c 0,0,1
1657 790 m 0,36,37
 1657 462 1657 462 1426 231 c 128,-1,38
 1195 0 1195 0 869 0 c 0,39,40
 541 0 541 0 309 231 c 0,41,42
 78 461 78 461 78 790 c 0,43,44
 78 1116 78 1116 310 1347 c 0,45,46
 543 1578 543 1578 869 1578 c 128,-1,47
 1195 1578 1195 1578 1426 1347 c 128,-1,48
 1657 1116 1657 1116 1657 790 c 0,36,37
869 1456 m 0,49,50
 592 1456 592 1456 396.5 1260.5 c 128,-1,51
 201 1065 201 1065 201 790 c 0,52,53
 201 513 201 513 396.5 318 c 128,-1,54
 592 123 592 123 869 123 c 0,55,56
 1145 123 1145 123 1340.5 317.5 c 128,-1,57
 1536 512 1536 512 1536 790 c 0,58,59
 1536 1066 1536 1066 1340.5 1261 c 128,-1,60
 1145 1456 1145 1456 869 1456 c 0,49,50
EndSplineSet
Validated: 1
EndChar

StartChar: ordfeminine
Encoding: 170 170 107
Width: 947
VWidth: 2025
Flags: W
LayerCount: 2
Fore
SplineSet
475 1425 m 256,0,1
 377 1425 377 1425 307 1355 c 128,-1,2
 237 1285 237 1285 237 1187 c 256,3,4
 237 1089 237 1089 307 1019.5 c 128,-1,5
 377 950 377 950 475 950 c 256,6,7
 573 950 573 950 642.5 1019 c 128,-1,8
 712 1088 712 1088 712 1187 c 256,9,10
 712 1285 712 1285 642.5 1355 c 128,-1,11
 573 1425 573 1425 475 1425 c 256,0,1
712 869 m 1,12,13
 609 792 609 792 475 791 c 0,14,15
 311 791 311 791 194.5 907 c 128,-1,16
 78 1023 78 1023 78 1187 c 256,17,18
 78 1351 78 1351 194.5 1467 c 128,-1,19
 311 1583 311 1583 475 1583 c 256,20,21
 639 1583 639 1583 755 1467 c 128,-1,22
 871 1351 871 1351 871 1187 c 2,23,-1
 871 871 l 2,24,25
 871 839 871 839 847 815 c 0,26,27
 823 791 823 791 791 791 c 256,28,29
 759 791 759 791 736 815 c 0,30,31
 712 837 712 837 712 869 c 1,12,13
EndSplineSet
Validated: 1
EndChar

StartChar: guillemotleft
Encoding: 171 171 108
Width: 947
VWidth: 2025
Flags: W
LayerCount: 2
Fore
SplineSet
89 592 m 2,0,-1
 323 1059 l 2,1,2
 329 1073 329 1073 340 1083 c 0,3,4
 364 1106 364 1106 396 1107 c 256,5,6
 428 1107 428 1107 451.5 1084 c 128,-1,7
 475 1061 475 1061 475 1028 c 0,8,9
 475 1010 475 1010 468 994 c 2,10,-1
 247 554 l 1,11,-1
 468 114 l 2,12,13
 475 98 475 98 475 78 c 0,14,15
 475 46 475 46 452 23 c 128,-1,16
 429 0 429 0 396 0 c 256,17,18
 364 0 364 0 340 24 c 0,19,20
 328 34 328 34 323 47 c 2,21,-1
 91 511 l 2,22,23
 79 533 79 533 78 553 c 0,24,25
 79 573 79 573 89 592 c 2,0,-1
485 592 m 2,26,-1
 718 1059 l 2,27,28
 724 1073 724 1073 736 1083 c 0,29,30
 758 1106 758 1106 791 1107 c 256,31,32
 823 1107 823 1107 847 1084 c 128,-1,33
 871 1061 871 1061 871 1028 c 0,34,35
 871 1010 871 1010 863 994 c 2,36,-1
 643 554 l 1,37,-1
 863 114 l 2,38,39
 871 98 871 98 871 78 c 0,40,41
 871 46 871 46 847 23 c 0,42,43
 823 0 823 0 791 0 c 256,44,45
 759 0 759 0 736 24 c 0,46,47
 724 34 724 34 718 47 c 2,48,-1
 487 511 l 2,49,50
 475 533 475 533 475 553 c 0,51,52
 475 573 475 573 485 592 c 2,26,-1
EndSplineSet
Validated: 1
EndChar

StartChar: logicalnot
Encoding: 172 172 109
Width: 1106
VWidth: 2025
Flags: W
LayerCount: 2
Fore
SplineSet
158 950 m 2,0,1
 126 950 126 950 102 973 c 128,-1,2
 78 996 78 996 78 1029 c 256,3,4
 78 1061 78 1061 102.5 1084.5 c 128,-1,5
 127 1108 127 1108 158 1108 c 2,6,-1
 950 1108 l 2,7,8
 982 1108 982 1108 1005.5 1084.5 c 128,-1,9
 1029 1061 1029 1061 1029 1029 c 2,10,-1
 1029 712 l 2,11,12
 1029 680 1029 680 1006 656.5 c 128,-1,13
 983 633 983 633 950 633 c 256,14,15
 918 633 918 633 894.5 656 c 128,-1,16
 871 679 871 679 871 712 c 2,17,-1
 871 950 l 1,18,-1
 158 950 l 2,0,1
EndSplineSet
Validated: 1
EndChar

StartChar: registered
Encoding: 174 174 110
Width: 1740
VWidth: 2025
Flags: W
LayerCount: 2
Fore
SplineSet
1657 790 m 0,0,1
 1657 462 1657 462 1426 231 c 128,-1,2
 1195 0 1195 0 869 0 c 0,3,4
 541 0 541 0 309 231 c 0,5,6
 78 461 78 461 78 790 c 0,7,8
 78 1116 78 1116 310 1347 c 0,9,10
 543 1578 543 1578 869 1578 c 128,-1,11
 1195 1578 1195 1578 1426 1347 c 128,-1,12
 1657 1116 1657 1116 1657 790 c 0,0,1
869 1456 m 0,13,14
 592 1456 592 1456 396.5 1260.5 c 128,-1,15
 201 1065 201 1065 201 790 c 0,16,17
 201 513 201 513 396.5 318 c 128,-1,18
 592 123 592 123 869 123 c 0,19,20
 1145 123 1145 123 1340.5 317.5 c 128,-1,21
 1536 512 1536 512 1536 790 c 0,22,23
 1536 1066 1536 1066 1340.5 1261 c 128,-1,24
 1145 1456 1145 1456 869 1456 c 0,13,14
658 1204 m 1,25,-1
 658 790 l 1,26,-1
 865 790 l 2,27,28
 951 790 951 790 1011.5 849.5 c 128,-1,29
 1072 909 1072 909 1072 997 c 0,30,31
 1072 1083 1072 1083 1012 1143.5 c 128,-1,32
 952 1204 952 1204 865 1204 c 2,33,-1
 658 1204 l 1,25,-1
605 1308 m 2,34,-1
 865 1308 l 2,35,36
 994 1308 994 1308 1085.5 1217.5 c 128,-1,37
 1177 1127 1177 1127 1177 997 c 0,38,39
 1177 866 1177 866 1084 778 c 0,40,41
 1042 736 1042 736 994 712 c 1,42,-1
 1220 350 l 2,43,44
 1229 338 1229 338 1229 323 c 0,45,46
 1229 301 1229 301 1213.5 285.5 c 128,-1,47
 1198 270 1198 270 1177 270 c 0,48,49
 1149 270 1149 270 1132 297 c 2,50,-1
 888 687 l 1,51,52
 876 685 876 685 865 685 c 2,53,-1
 658 685 l 1,54,-1
 658 323 l 2,55,56
 658 301 658 301 642.5 285.5 c 128,-1,57
 627 270 627 270 605 270 c 0,58,59
 584 270 584 270 569 285.5 c 128,-1,60
 554 301 554 301 554 323 c 2,61,-1
 554 1257 l 2,62,63
 554 1279 554 1279 569 1293.5 c 128,-1,64
 584 1308 584 1308 605 1308 c 2,34,-1
EndSplineSet
Validated: 1
EndChar

StartChar: macron
Encoding: 175 175 111
Width: 1106
VWidth: 2025
Flags: W
LayerCount: 2
Fore
SplineSet
158 1741 m 2,0,1
 126 1741 126 1741 102 1765 c 128,-1,2
 78 1789 78 1789 78 1820 c 256,3,4
 78 1852 78 1852 102.5 1876 c 128,-1,5
 127 1900 127 1900 158 1900 c 2,6,-1
 950 1900 l 2,7,8
 982 1900 982 1900 1005.5 1876.5 c 128,-1,9
 1029 1853 1029 1853 1029 1820 c 256,10,11
 1029 1788 1029 1788 1006 1764.5 c 128,-1,12
 983 1741 983 1741 950 1741 c 2,13,-1
 158 1741 l 2,0,1
EndSplineSet
Validated: 1
EndChar

StartChar: degree
Encoding: 176 176 112
Width: 947
VWidth: 2025
Flags: W
LayerCount: 2
Fore
SplineSet
871 1187 m 256,0,1
 871 1023 871 1023 755 907 c 128,-1,2
 639 791 639 791 475 791 c 256,3,4
 311 791 311 791 194.5 907 c 128,-1,5
 78 1023 78 1023 78 1187 c 256,6,7
 78 1351 78 1351 194.5 1467 c 128,-1,8
 311 1583 311 1583 475 1583 c 256,9,10
 639 1583 639 1583 755 1467 c 128,-1,11
 871 1351 871 1351 871 1187 c 256,0,1
475 1425 m 256,12,13
 377 1425 377 1425 307 1355 c 128,-1,14
 237 1285 237 1285 237 1187 c 256,15,16
 237 1089 237 1089 307 1019.5 c 128,-1,17
 377 950 377 950 475 950 c 256,18,19
 573 950 573 950 642.5 1019 c 128,-1,20
 712 1088 712 1088 712 1187 c 256,21,22
 712 1285 712 1285 642.5 1355 c 128,-1,23
 573 1425 573 1425 475 1425 c 256,12,13
EndSplineSet
Validated: 1
EndChar

StartChar: plusminus
Encoding: 177 177 113
Width: 1106
VWidth: 2025
Flags: W
LayerCount: 2
Fore
SplineSet
475 1187 m 2,0,1
 475 1219 475 1219 498.5 1242.5 c 128,-1,2
 522 1266 522 1266 554 1266 c 256,3,4
 586 1266 586 1266 609.5 1243 c 128,-1,5
 633 1220 633 1220 633 1187 c 2,6,-1
 633 871 l 1,7,-1
 950 871 l 2,8,9
 982 871 982 871 1005 847 c 0,10,11
 1029 823 1029 823 1029 791 c 256,12,13
 1029 759 1029 759 1006 735.5 c 128,-1,14
 983 712 983 712 950 712 c 2,15,-1
 633 712 l 1,16,-1
 633 396 l 2,17,18
 633 364 633 364 609.5 340.5 c 128,-1,19
 586 317 586 317 554 317 c 256,20,21
 522 317 522 317 499 340 c 0,22,23
 475 364 475 364 475 396 c 2,24,-1
 475 712 l 1,25,-1
 158 712 l 2,26,27
 126 712 126 712 102 736 c 0,28,29
 78 758 78 758 78 791 c 256,30,31
 78 823 78 823 102.5 847 c 128,-1,32
 127 871 127 871 158 871 c 2,33,-1
 475 871 l 1,34,-1
 475 1187 l 2,0,1
158 0 m 2,35,36
 126 0 126 0 102 23 c 128,-1,37
 78 46 78 46 78 78 c 256,38,39
 78 110 78 110 102.5 134 c 128,-1,40
 127 158 127 158 158 158 c 2,41,-1
 950 158 l 2,42,43
 982 158 982 158 1005.5 135.5 c 128,-1,44
 1029 113 1029 113 1029 78 c 256,45,46
 1029 46 1029 46 1006 23 c 128,-1,47
 983 0 983 0 950 0 c 2,48,-1
 158 0 l 2,35,36
EndSplineSet
Validated: 1
EndChar

StartChar: uni00B2
Encoding: 178 178 114
Width: 632
VWidth: 2025
Flags: W
LayerCount: 2
Fore
SplineSet
511 877 m 2,0,1
 527 877 527 877 538 866 c 128,-1,2
 549 855 549 855 549 839 c 0,3,4
 549 822 549 822 537.5 810.5 c 128,-1,5
 526 799 526 799 511 799 c 2,6,-1
 119 799 l 2,7,8
 102 799 102 799 90 810.5 c 128,-1,9
 78 822 78 822 78 839 c 0,10,11
 78 855 78 855 90 867 c 2,12,-1
 425 1237 l 2,13,14
 471 1283 471 1283 471 1348 c 128,-1,15
 471 1413 471 1413 425 1458 c 0,16,17
 378 1504 378 1504 315 1504 c 0,18,19
 250 1504 250 1504 204 1458.5 c 128,-1,20
 158 1413 158 1413 158 1348 c 0,21,22
 158 1332 158 1332 146.5 1320.5 c 128,-1,23
 135 1309 135 1309 119 1309 c 0,24,25
 102 1309 102 1309 90 1320.5 c 128,-1,26
 78 1332 78 1332 78 1348 c 0,27,28
 78 1446 78 1446 147 1514.5 c 128,-1,29
 216 1583 216 1583 315 1583 c 0,30,31
 412 1583 412 1583 480.5 1514.5 c 128,-1,32
 549 1446 549 1446 549 1348 c 0,33,34
 549 1251 549 1251 480 1181 c 1,35,-1
 207 877 l 1,36,-1
 511 877 l 2,0,1
EndSplineSet
Validated: 1
EndChar

StartChar: uni00B3
Encoding: 179 179 115
Width: 632
VWidth: 2025
Flags: W
LayerCount: 2
Fore
SplineSet
317 1188 m 0,0,1
 300 1188 300 1188 288.5 1199.5 c 128,-1,2
 277 1211 277 1211 277 1227 c 128,-1,3
 277 1243 277 1243 288 1255 c 128,-1,4
 299 1267 299 1267 317 1267 c 0,5,6
 364 1267 364 1267 399.5 1302.5 c 128,-1,7
 435 1338 435 1338 435 1385 c 0,8,9
 435 1434 435 1434 400 1469 c 0,10,11
 364 1504 364 1504 317 1504 c 0,12,13
 268 1504 268 1504 233 1469.5 c 128,-1,14
 198 1435 198 1435 198 1385 c 0,15,16
 198 1369 198 1369 186 1358.5 c 128,-1,17
 174 1348 174 1348 158 1348 c 0,18,19
 141 1348 141 1348 130 1358.5 c 128,-1,20
 119 1369 119 1369 119 1385 c 0,21,22
 119 1466 119 1466 176 1524.5 c 128,-1,23
 233 1583 233 1583 317 1583 c 0,24,25
 397 1583 397 1583 455.5 1525 c 128,-1,26
 514 1467 514 1467 514 1385 c 0,27,28
 514 1294 514 1294 441 1231 c 1,29,30
 464 1217 464 1217 484 1198 c 0,31,32
 553 1129 553 1129 553 1030 c 256,33,34
 553 932 553 932 483.5 862.5 c 128,-1,35
 414 793 414 793 317 793 c 0,36,37
 218 793 218 793 148 863 c 128,-1,38
 78 933 78 933 78 1030 c 0,39,40
 78 1047 78 1047 90.5 1058 c 128,-1,41
 103 1069 103 1069 119 1069 c 128,-1,42
 135 1069 135 1069 146.5 1058 c 128,-1,43
 158 1047 158 1047 158 1030 c 0,44,45
 158 965 158 965 203.5 919 c 128,-1,46
 249 873 249 873 317 873 c 0,47,48
 382 873 382 873 428 919.5 c 128,-1,49
 474 966 474 966 474 1030 c 0,50,51
 474 1095 474 1095 428 1141.5 c 128,-1,52
 382 1188 382 1188 317 1188 c 0,0,1
EndSplineSet
Validated: 1
EndChar

StartChar: acute
Encoding: 180 180 116
Width: 552
VWidth: 2025
Flags: W
LayerCount: 2
Fore
SplineSet
453 1448 m 2,0,-1
 212 1208 l 2,1,2
 188 1187 188 1187 158 1187 c 0,3,4
 126 1187 126 1187 102 1210 c 128,-1,5
 78 1233 78 1233 78 1266 c 0,6,7
 78 1296 78 1296 99 1320 c 2,8,-1
 340 1560 l 2,9,10
 364 1583 364 1583 396 1583 c 256,11,12
 428 1583 428 1583 451.5 1560 c 128,-1,13
 475 1537 475 1537 475 1504 c 0,14,15
 475 1472 475 1472 453 1448 c 2,0,-1
EndSplineSet
Validated: 1
EndChar

StartChar: mu
Encoding: 181 181 117
Width: 1186
VWidth: 2025
Flags: W
LayerCount: 2
Fore
SplineSet
237 514 m 2,0,1
 237 366 237 366 342 262 c 0,2,3
 445 158 445 158 594 158 c 256,4,5
 742 158 742 158 846 263 c 0,6,7
 950 366 950 366 950 514 c 2,8,-1
 950 1029 l 2,9,10
 950 1061 950 1061 973 1084.5 c 128,-1,11
 996 1108 996 1108 1029 1108 c 256,12,13
 1061 1108 1061 1108 1084.5 1084.5 c 128,-1,14
 1108 1061 1108 1061 1108 1029 c 2,15,-1
 1108 78 l 2,16,17
 1108 46 1108 46 1084.5 23 c 128,-1,18
 1061 0 1061 0 1029 0 c 256,19,20
 997 0 997 0 973.5 23 c 128,-1,21
 950 46 950 46 950 78 c 2,22,-1
 950 144 l 1,23,24
 802 0 802 0 594 0 c 256,25,26
 386 0 386 0 237 144 c 1,27,-1
 237 -396 l 2,28,29
 237 -428 237 -428 214 -451 c 0,30,31
 190 -475 190 -475 158 -475 c 256,32,33
 126 -475 126 -475 102 -452 c 128,-1,34
 78 -429 78 -429 78 -396 c 2,35,-1
 78 1029 l 2,36,37
 78 1061 78 1061 102.5 1084.5 c 128,-1,38
 127 1108 127 1108 158 1108 c 256,39,40
 190 1108 190 1108 213.5 1084.5 c 128,-1,41
 237 1061 237 1061 237 1029 c 2,42,-1
 237 514 l 2,0,1
EndSplineSet
Validated: 1
EndChar

StartChar: paragraph
Encoding: 182 182 118
Width: 1106
VWidth: 2025
Flags: W
LayerCount: 2
Fore
SplineSet
950 78 m 2,0,1
 950 46 950 46 926 23 c 128,-1,2
 902 0 902 0 871 0 c 256,3,4
 839 0 839 0 815 23 c 128,-1,5
 791 46 791 46 791 78 c 2,6,-1
 791 1425 l 1,7,-1
 633 1425 l 1,8,-1
 633 78 l 2,9,10
 633 46 633 46 609.5 23 c 128,-1,11
 586 0 586 0 554 0 c 256,12,13
 522 0 522 0 498.5 23 c 128,-1,14
 475 46 475 46 475 78 c 2,15,-1
 475 791 l 1,16,17
 311 791 311 791 194.5 907 c 128,-1,18
 78 1023 78 1023 78 1187 c 256,19,20
 78 1351 78 1351 194.5 1467 c 128,-1,21
 311 1583 311 1583 475 1583 c 2,22,-1
 950 1583 l 2,23,24
 982 1583 982 1583 1005.5 1560 c 128,-1,25
 1029 1537 1029 1537 1029 1504 c 256,26,27
 1029 1472 1029 1472 1006 1448.5 c 128,-1,28
 983 1425 983 1425 950 1425 c 1,29,-1
 950 78 l 2,0,1
EndSplineSet
Validated: 1
EndChar

StartChar: periodcentered
Encoding: 183 183 119
AltUni2: 002219.ffffffff.0
Width: 393
VWidth: 2025
Flags: W
LayerCount: 2
Fore
SplineSet
317 752 m 256,0,1
 317 703 317 703 282 668 c 128,-1,2
 247 633 247 633 198 633 c 256,3,4
 149 633 149 633 113.5 667.5 c 128,-1,5
 78 702 78 702 78 752 c 256,6,7
 78 801 78 801 113 836 c 128,-1,8
 148 871 148 871 198 871 c 256,9,10
 247 871 247 871 282 836 c 128,-1,11
 317 801 317 801 317 752 c 256,0,1
EndSplineSet
Validated: 1
EndChar

StartChar: cedilla
Encoding: 184 184 120
Width: 632
VWidth: 2025
Flags: W
LayerCount: 2
Fore
SplineSet
301 55 m 0,0,1
 324 78 324 78 356 78 c 256,2,3
 388 78 388 78 411.5 55 c 128,-1,4
 435 32 435 32 435 0 c 0,5,6
 435 -10 435 -10 433 -19 c 2,7,-1
 416 -77 l 1,8,9
 452 -91 452 -91 485 -119 c 0,10,11
 554 -178 554 -178 554 -267 c 256,12,13
 554 -355 554 -355 484 -415 c 128,-1,14
 414 -475 414 -475 317 -475 c 0,15,16
 260 -475 260 -475 204 -446 c 2,17,-1
 115 -392 l 1,18,19
 81 -364 81 -364 78 -326 c 0,20,21
 78 -294 78 -294 102.5 -270.5 c 128,-1,22
 127 -247 127 -247 158 -247 c 0,23,24
 182 -247 182 -247 201 -259 c 2,25,-1
 278 -307 l 2,26,27
 297 -317 297 -317 317 -317 c 0,28,29
 349 -317 349 -317 372.5 -303.5 c 128,-1,30
 396 -290 396 -290 396 -267 c 256,31,32
 396 -244 396 -244 372 -231 c 0,33,34
 348 -218 348 -218 317 -218 c 256,35,36
 285 -218 285 -218 261 -194 c 0,37,38
 237 -170 237 -170 237 -139 c 0,39,40
 237 -125 237 -125 241 -114 c 2,41,-1
 280 23 l 2,42,43
 286 40 286 40 301 55 c 0,0,1
EndSplineSet
Validated: 1
EndChar

StartChar: uni00B9
Encoding: 185 185 121
Width: 472
VWidth: 2025
Flags: W
LayerCount: 2
Fore
SplineSet
317 836 m 2,0,1
 317 819 317 819 304.5 808 c 128,-1,2
 292 797 292 797 276 797 c 256,3,4
 260 797 260 797 247.5 808 c 128,-1,5
 235 819 235 819 235 836 c 2,6,-1
 235 1489 l 1,7,-1
 173 1468 l 2,8,9
 166 1465 166 1465 158 1465 c 0,10,11
 141 1465 141 1465 130 1476.5 c 128,-1,12
 119 1488 119 1488 119 1504 c 256,13,14
 119 1520 119 1520 131 1534 c 0,15,16
 137 1540 137 1540 144 1541 c 2,17,-1
 262 1581 l 2,18,19
 268 1583 268 1583 276 1583 c 0,20,21
 292 1583 292 1583 304.5 1571.5 c 128,-1,22
 317 1560 317 1560 317 1543 c 2,23,-1
 317 836 l 2,0,1
EndSplineSet
Validated: 1
EndChar

StartChar: ordmasculine
Encoding: 186 186 122
Width: 632
VWidth: 2025
Flags: W
LayerCount: 2
Fore
SplineSet
78 1190 m 0,0,1
 78 1424 78 1424 176 1526 c 0,2,3
 233 1583 233 1583 317 1583 c 0,4,5
 397 1583 397 1583 454 1526 c 0,6,7
 550 1427 550 1427 551 1195 c 0,8,9
 551 1193 551 1193 551 1190 c 0,10,11
 551 950 551 950 454 853 c 0,12,13
 397 796 397 796 316 796 c 0,14,15
 316 796 316 796 315 796 c 0,16,17
 233 797 233 797 176 853 c 0,18,19
 78 949 78 949 78 1190 c 0,0,1
317 1504 m 0,20,21
 263 1504 263 1504 232 1469 c 0,22,23
 159 1386 159 1386 159 1190 c 0,24,25
 159 1185 159 1185 159 1185 c 0,26,27
 158.986666667 1182.44 158.986666667 1182.44 158.986666667 1179.8992 c 0,28,29
 158.986666667 991.88 158.986666667 991.88 232 909 c 0,30,31
 262 875 262 875 314 875 c 0,32,33
 316 875 316 875 317 875 c 0,34,35
 364 875 364 875 398 909 c 0,36,37
 471 991 471 991 473 1190 c 0,38,39
 473 1386 473 1386 398 1469 c 0,40,41
 364 1504 364 1504 317 1504 c 0,20,21
EndSplineSet
Validated: 1
EndChar

StartChar: guillemotright
Encoding: 187 187 123
Width: 947
VWidth: 2025
Flags: W
LayerCount: 2
Fore
SplineSet
871 553 m 0,0,1
 871 532 871 532 859 511 c 2,2,-1
 627 47 l 2,3,4
 621 33 621 33 609 24 c 0,5,6
 586 0 586 0 554 0 c 256,7,8
 522 0 522 0 498.5 23 c 128,-1,9
 475 46 475 46 475 78 c 0,10,11
 475 96 475 96 482 114 c 2,12,-1
 702 554 l 1,13,-1
 482 994 l 2,14,15
 475 1010 475 1010 475 1028 c 0,16,17
 475 1060 475 1060 498.5 1083.5 c 128,-1,18
 522 1107 522 1107 554 1107 c 256,19,20
 586 1107 586 1107 609 1083 c 0,21,22
 621 1072 621 1072 627 1059 c 2,23,-1
 861 592 l 2,24,25
 871 572 871 572 871 553 c 0,0,1
475 553 m 0,26,27
 475 532 475 532 463 511 c 2,28,-1
 232 47 l 2,29,30
 226 33 226 33 214 24 c 0,31,32
 190 0 190 0 158 0 c 256,33,34
 126 0 126 0 102 23 c 128,-1,35
 78 46 78 46 78 78 c 0,36,37
 78 96 78 96 86 114 c 2,38,-1
 307 554 l 1,39,-1
 86 994 l 2,40,41
 79 1010 79 1010 78 1028 c 0,42,43
 78 1060 78 1060 102.5 1083.5 c 128,-1,44
 127 1107 127 1107 158 1107 c 256,45,46
 190 1107 190 1107 214 1083 c 0,47,48
 226 1072 226 1072 232 1059 c 2,49,-1
 465 592 l 2,50,51
 475 572 475 572 475 553 c 0,26,27
EndSplineSet
Validated: 1
EndChar

StartChar: onequarter
Encoding: 188 188 124
Width: 1423
VWidth: 2025
Flags: W
LayerCount: 2
Fore
SplineSet
1187 1583 m 0,0,1
 1219 1583 1219 1583 1242.5 1560 c 128,-1,2
 1266 1537 1266 1537 1266 1504 c 0,3,4
 1266 1480 1266 1480 1255 1461 c 2,5,-1
 307 40 l 2,6,7
 281 0 281 0 237 0 c 0,8,9
 205 0 205 0 181.5 23 c 128,-1,10
 158 46 158 46 158 78 c 0,11,12
 158 103 158 103 170 123 c 2,13,-1
 1125 1552 l 2,14,15
 1145 1583 1145 1583 1187 1583 c 0,0,1
317 681 m 2,16,17
 317 661 317 661 303 647 c 128,-1,18
 289 633 289 633 269 633 c 256,19,20
 249 633 249 633 235.5 647 c 128,-1,21
 222 661 222 661 222 681 c 2,22,-1
 222 1470 l 1,23,-1
 146 1444 l 2,24,25
 136 1442 136 1442 127 1443 c 0,26,27
 107 1443 107 1443 92.5 1456 c 128,-1,28
 78 1469 78 1469 78 1489 c 256,29,30
 78 1510 78 1510 93 1524 c 0,31,32
 101 1530 101 1530 111 1534 c 2,33,-1
 251 1581 l 2,34,35
 259 1584 259 1584 269 1584 c 0,36,37
 289 1584 289 1584 303 1570 c 0,38,39
 317 1557 317 1557 317 1537 c 2,40,-1
 317 681 l 2,16,17
1108 332 m 1,41,-1
 1108 750 l 1,42,-1
 819 332 l 1,43,-1
 1108 332 l 1,41,-1
728 237 m 2,44,45
 708 237 708 237 694.5 251 c 128,-1,46
 681 265 681 265 681 285 c 0,47,48
 681 301 681 301 689 313 c 2,49,-1
 1118 931 l 2,50,51
 1120 934 1120 934 1123 937 c 0,52,53
 1136 950 1136 950 1156 950 c 256,54,55
 1176 950 1176 950 1189.5 936 c 128,-1,56
 1203 922 1203 922 1203 901 c 2,57,-1
 1203 332 l 1,58,-1
 1298 332 l 2,59,60
 1318 332 1318 332 1332 318.5 c 128,-1,61
 1346 305 1346 305 1346 285 c 256,62,63
 1346 265 1346 265 1332 251 c 128,-1,64
 1318 237 1318 237 1298 237 c 2,65,-1
 1203 237 l 1,66,-1
 1203 47 l 2,67,68
 1203 27 1203 27 1189 13.5 c 128,-1,69
 1175 0 1175 0 1156 0 c 256,70,71
 1136 0 1136 0 1122 14 c 128,-1,72
 1108 28 1108 28 1108 47 c 2,73,-1
 1108 237 l 1,74,-1
 728 237 l 2,44,45
EndSplineSet
Validated: 1
EndChar

StartChar: onehalf
Encoding: 189 189 125
Width: 1581
VWidth: 2025
Flags: W
LayerCount: 2
Fore
SplineSet
1187 1583 m 0,0,1
 1219 1583 1219 1583 1242.5 1560 c 128,-1,2
 1266 1537 1266 1537 1266 1504 c 0,3,4
 1266 1480 1266 1480 1255 1461 c 2,5,-1
 307 40 l 2,6,7
 281 0 281 0 237 0 c 0,8,9
 205 0 205 0 181.5 23 c 128,-1,10
 158 46 158 46 158 78 c 0,11,12
 158 103 158 103 170 123 c 2,13,-1
 1125 1552 l 2,14,15
 1145 1583 1145 1583 1187 1583 c 0,0,1
317 681 m 2,16,17
 317 661 317 661 303 647 c 128,-1,18
 289 633 289 633 269 633 c 256,19,20
 249 633 249 633 235.5 647 c 128,-1,21
 222 661 222 661 222 681 c 2,22,-1
 222 1470 l 1,23,-1
 146 1444 l 2,24,25
 136 1442 136 1442 127 1443 c 0,26,27
 107 1443 107 1443 92.5 1456 c 128,-1,28
 78 1469 78 1469 78 1489 c 256,29,30
 78 1510 78 1510 93 1524 c 0,31,32
 101 1530 101 1530 111 1534 c 2,33,-1
 251 1581 l 2,34,35
 259 1584 259 1584 269 1584 c 0,36,37
 289 1584 289 1584 303 1570 c 0,38,39
 317 1557 317 1557 317 1537 c 2,40,-1
 317 681 l 2,16,17
1456 95 m 2,41,42
 1475 95 1475 95 1489.5 81 c 128,-1,43
 1504 67 1504 67 1504 47 c 256,44,45
 1504 27 1504 27 1489.5 13.5 c 128,-1,46
 1475 0 1475 0 1456 0 c 2,47,-1
 981 0 l 2,48,49
 961 0 961 0 947.5 14 c 128,-1,50
 934 28 934 28 934 47 c 256,51,52
 934 67 934 67 948 80 c 2,53,-1
 1353 530 l 1,54,55
 1408 585 1408 585 1409 666 c 256,56,57
 1409 744 1409 744 1353 799.5 c 128,-1,58
 1297 855 1297 855 1218 855 c 256,59,60
 1140 855 1140 855 1084 800 c 128,-1,61
 1028 745 1028 745 1028 666 c 0,62,63
 1028 646 1028 646 1014 633 c 0,64,65
 1001 620 1001 620 981 619 c 256,66,67
 961 619 961 619 947.5 632.5 c 128,-1,68
 934 646 934 646 934 666 c 0,69,70
 934 785 934 785 1017 868.5 c 128,-1,71
 1100 952 1100 952 1218 952 c 0,72,73
 1337 952 1337 952 1420.5 868 c 128,-1,74
 1504 784 1504 784 1504 666 c 0,75,76
 1504 547 1504 547 1419 463 c 1,77,-1
 1087 95 l 1,78,-1
 1456 95 l 2,41,42
EndSplineSet
Validated: 1
EndChar

StartChar: threequarters
Encoding: 190 190 126
Width: 1581
VWidth: 2025
Flags: W
LayerCount: 2
Fore
SplineSet
1346 1583 m 0,0,1
 1378 1583 1378 1583 1401.5 1560 c 128,-1,2
 1425 1537 1425 1537 1425 1504 c 0,3,4
 1425 1480 1425 1480 1413 1461 c 2,5,-1
 465 40 l 2,6,7
 439 0 439 0 396 0 c 0,8,9
 364 0 364 0 340.5 23 c 128,-1,10
 317 46 317 46 317 78 c 0,11,12
 317 103 317 103 328 123 c 2,13,-1
 1282 1552 l 2,14,15
 1304 1583 1304 1583 1346 1583 c 0,0,1
1266 332 m 1,16,-1
 1266 750 l 1,17,-1
 978 332 l 1,18,-1
 1266 332 l 1,16,-1
886 237 m 2,19,20
 866 237 866 237 852.5 251 c 128,-1,21
 839 265 839 265 839 285 c 0,22,23
 839 301 839 301 848 313 c 2,24,-1
 1275 931 l 2,25,26
 1277 934 1277 934 1280 937 c 0,27,28
 1294 950 1294 950 1314 950 c 256,29,30
 1334 950 1334 950 1347.5 936 c 128,-1,31
 1361 922 1361 922 1361 901 c 2,32,-1
 1361 332 l 1,33,-1
 1456 332 l 2,34,35
 1476 332 1476 332 1490 318.5 c 128,-1,36
 1504 305 1504 305 1504 285 c 256,37,38
 1504 265 1504 265 1490 251 c 128,-1,39
 1476 237 1476 237 1456 237 c 2,40,-1
 1361 237 l 1,41,-1
 1361 47 l 2,42,43
 1361 27 1361 27 1347.5 13.5 c 128,-1,44
 1334 0 1334 0 1314 0 c 256,45,46
 1294 0 1294 0 1280 14 c 128,-1,47
 1266 28 1266 28 1266 47 c 2,48,-1
 1266 237 l 1,49,-1
 886 237 l 2,19,20
363 1107 m 0,50,51
 343 1107 343 1107 330 1121.5 c 128,-1,52
 317 1136 317 1136 317 1156 c 0,53,54
 317 1175 317 1175 330.5 1188 c 128,-1,55
 344 1201 344 1201 363 1201 c 0,56,57
 420 1201 420 1201 463 1243 c 0,58,59
 505 1284 505 1284 505 1344 c 256,60,61
 505 1401 505 1401 463 1443 c 128,-1,62
 421 1485 421 1485 363 1485 c 256,63,64
 306 1485 306 1485 264 1443 c 0,65,66
 222 1400 222 1400 222 1344 c 0,67,68
 222 1324 222 1324 207.5 1310 c 128,-1,69
 193 1296 193 1296 174 1296 c 0,70,71
 154 1296 154 1296 140.5 1310 c 128,-1,72
 127 1324 127 1324 127 1344 c 0,73,74
 127 1442 127 1442 196 1511 c 128,-1,75
 265 1580 265 1580 363 1580 c 256,76,77
 461 1580 461 1580 530.5 1511.5 c 128,-1,78
 600 1443 600 1443 600 1344 c 256,79,80
 600 1246 600 1246 530 1176 c 0,81,82
 520 1167 520 1167 512 1160 c 1,83,84
 540 1143 540 1143 564 1120 c 0,85,86
 646 1037 646 1037 647 917 c 256,87,88
 647 798 647 798 564 715.5 c 128,-1,89
 481 633 481 633 363 633 c 256,90,91
 244 633 244 633 161 716 c 128,-1,92
 78 799 78 799 78 917 c 0,93,94
 78 937 78 937 93 951 c 0,95,96
 107 965 107 965 127 966 c 256,97,98
 147 966 147 966 160.5 952 c 128,-1,99
 174 938 174 938 174 917 c 0,100,101
 174 840 174 840 229 784 c 128,-1,102
 284 728 284 728 363 728 c 256,103,104
 441 728 441 728 496.5 783.5 c 128,-1,105
 552 839 552 839 552 917 c 128,-1,106
 552 995 552 995 496.5 1051 c 128,-1,107
 441 1107 441 1107 363 1107 c 0,50,51
EndSplineSet
Validated: 1
EndChar

StartChar: questiondown
Encoding: 191 191 127
Width: 1106
VWidth: 2025
Flags: W
LayerCount: 2
Fore
SplineSet
554 -317 m 256,0,1
 687 -317 687 -317 779 -225 c 128,-1,2
 871 -133 871 -133 871 0 c 0,3,4
 871 32 871 32 894 55 c 0,5,6
 916 78 916 78 950 78 c 256,7,8
 982 78 982 78 1005.5 55 c 128,-1,9
 1029 32 1029 32 1029 0 c 0,10,11
 1029 -197 1029 -197 890 -336 c 128,-1,12
 751 -475 751 -475 554 -475 c 256,13,14
 357 -475 357 -475 217.5 -336 c 128,-1,15
 78 -197 78 -197 78 0 c 256,16,17
 78 1 78 1 78 3 c 0,18,19
 77.9929577465 4.35915492958 77.9929577465 4.35915492958 77.9929577465 5.71568141242 c 0,20,21
 77.9929577465 196.985915493 77.9929577465 196.985915493 218 336 c 1,22,-1
 382 487 l 1,23,24
 475 580 475 580 475 712 c 0,25,26
 475 744 475 744 498.5 767.5 c 128,-1,27
 522 791 522 791 554 791 c 256,28,29
 586 791 586 791 609 768 c 0,30,31
 633 744 633 744 633 712 c 0,32,33
 633 515 633 515 493 376 c 1,34,-1
 330 224 l 1,35,36
 237 131 237 131 237 0 c 256,37,38
 237 -133 237 -133 329 -225 c 128,-1,39
 421 -317 421 -317 554 -317 c 256,0,1
554 869 m 256,40,41
 505 869 505 869 470 904.5 c 128,-1,42
 435 940 435 940 435 989 c 256,43,44
 435 1038 435 1038 470 1072.5 c 128,-1,45
 505 1107 505 1107 554 1107 c 256,46,47
 603 1107 603 1107 638 1072 c 128,-1,48
 673 1037 673 1037 673 989 c 256,49,50
 673 940 673 940 638 904.5 c 128,-1,51
 603 869 603 869 554 869 c 256,40,41
EndSplineSet
Validated: 1
EndChar

StartChar: AE
Encoding: 198 198 134
Width: 1740
VWidth: 2025
Flags: W
LayerCount: 2
Fore
SplineSet
871 1197 m 1,0,-1
 645 791 l 1,1,-1
 871 791 l 1,2,-1
 871 1197 l 1,0,-1
1583 1583 m 2,3,4
 1615 1583 1615 1583 1638.5 1560 c 128,-1,5
 1662 1537 1662 1537 1662 1504 c 256,6,7
 1662 1472 1662 1472 1639.5 1448.5 c 128,-1,8
 1617 1425 1617 1425 1583 1425 c 2,9,-1
 1029 1425 l 1,10,-1
 1029 791 l 1,11,-1
 1425 791 l 2,12,13
 1457 791 1457 791 1480 768 c 0,14,15
 1504 744 1504 744 1504 712 c 256,16,17
 1504 680 1504 680 1481 657 c 0,18,19
 1459 633 1459 633 1425 633 c 2,20,-1
 1029 633 l 1,21,-1
 1029 158 l 1,22,-1
 1583 158 l 2,23,24
 1615 158 1615 158 1638.5 135.5 c 128,-1,25
 1662 113 1662 113 1662 78 c 256,26,27
 1662 46 1662 46 1639.5 23 c 128,-1,28
 1617 0 1617 0 1583 0 c 2,29,-1
 950 0 l 2,30,31
 918 0 918 0 894.5 23 c 128,-1,32
 871 46 871 46 871 78 c 2,33,-1
 871 633 l 1,34,-1
 557 633 l 1,35,-1
 226 36 l 2,36,37
 202 0 202 0 158 0 c 0,38,39
 126 0 126 0 102 23 c 128,-1,40
 78 46 78 46 78 78 c 0,41,42
 78 101 78 101 89 119 c 2,43,-1
 883 1546 l 2,44,45
 905 1582 905 1582 950 1583 c 2,46,-1
 1583 1583 l 2,3,4
EndSplineSet
Validated: 1
EndChar

StartChar: Eth
Encoding: 208 208 144
Width: 1501
VWidth: 2025
Flags: W
LayerCount: 2
Fore
SplineSet
235 871 m 1,0,-1
 235 1504 l 2,1,2
 235 1536 235 1536 259 1559.5 c 128,-1,3
 283 1583 283 1583 317 1583 c 2,4,-1
 632 1583 l 2,5,6
 960 1583 960 1583 1191.5 1351.5 c 128,-1,7
 1423 1120 1423 1120 1423 791 c 256,8,9
 1423 463 1423 463 1191.5 231.5 c 128,-1,10
 960 0 960 0 632 0 c 2,11,-1
 317 0 l 2,12,13
 285 0 285 0 260 23 c 128,-1,14
 235 46 235 46 235 78 c 2,15,-1
 235 712 l 1,16,-1
 78 712 l 2,17,18
 46 712 46 712 23 736 c 0,19,20
 0 758 0 758 0 791 c 256,21,22
 0 823 0 823 23 847 c 128,-1,23
 46 871 46 871 78 871 c 2,24,-1
 235 871 l 1,0,-1
394 871 m 1,25,-1
 712 871 l 2,26,27
 744 871 744 871 768 847 c 0,28,29
 792 823 792 823 791 791 c 256,30,31
 791 759 791 759 767.5 735.5 c 128,-1,32
 744 712 744 712 712 712 c 2,33,-1
 394 712 l 1,34,-1
 394 158 l 1,35,-1
 632 158 l 2,36,37
 894 158 894 158 1079 344 c 0,38,39
 1264 529 1264 529 1264 791 c 256,40,41
 1264 1053 1264 1053 1079 1239 c 128,-1,42
 894 1425 894 1425 632 1425 c 2,43,-1
 394 1425 l 1,44,-1
 394 871 l 1,25,-1
EndSplineSet
Validated: 1
EndChar

StartChar: multiply
Encoding: 215 215 151
Width: 947
VWidth: 2025
Flags: W
LayerCount: 2
Fore
SplineSet
362 712 m 1,0,-1
 102 974 l 2,1,2
 80 998 80 998 78 1029 c 0,3,4
 78 1061 78 1061 102.5 1084.5 c 128,-1,5
 127 1108 127 1108 158 1108 c 256,6,7
 190 1108 190 1108 216 1083 c 2,8,-1
 475 825 l 1,9,-1
 734 1083 l 2,10,11
 758 1107 758 1107 791 1108 c 256,12,13
 823 1108 823 1108 847 1084.5 c 128,-1,14
 871 1061 871 1061 871 1029 c 128,-1,15
 871 997 871 997 849 974 c 2,16,-1
 588 712 l 1,17,-1
 849 451 l 2,18,19
 871 427 871 427 871 395.5 c 128,-1,20
 871 364 871 364 847 340 c 0,21,22
 823 316 823 316 791.5 316.5 c 128,-1,23
 760 317 760 317 737 338 c 2,24,-1
 475 600 l 1,25,-1
 212 338 l 2,26,27
 188 316 188 316 158 317 c 0,28,29
 126 317 126 317 102 340 c 0,30,31
 78 364 78 364 78 395.5 c 128,-1,32
 78 427 78 427 102 451 c 2,33,-1
 362 712 l 1,0,-1
EndSplineSet
Validated: 1
EndChar

StartChar: Oslash
Encoding: 216 216 152
Width: 1740
VWidth: 2025
Flags: W
LayerCount: 2
Fore
SplineSet
1484 1292 m 1,0,1
 1662 1078 1662 1078 1662 791 c 0,2,3
 1662 463 1662 463 1430 232 c 0,4,5
 1199 0 1199 0 871 0 c 0,6,7
 584 0 584 0 370 178 c 1,8,-1
 214 23 l 2,9,10
 190 0 190 0 158 0 c 256,11,12
 126 0 126 0 102 23 c 128,-1,13
 78 46 78 46 78 78.5 c 128,-1,14
 78 111 78 111 100 135 c 2,15,-1
 257 291 l 1,16,17
 79 505 79 505 78 791 c 0,18,19
 78 1119 78 1119 311 1351 c 0,20,21
 544 1583 544 1583 871 1583 c 0,22,23
 1158 1583 1158 1583 1371 1405 c 1,24,-1
 1528 1560 l 2,25,26
 1552 1583 1552 1583 1583 1583 c 256,27,28
 1615 1583 1615 1583 1638.5 1560 c 128,-1,29
 1662 1537 1662 1537 1662 1504 c 0,30,31
 1662 1476 1662 1476 1644 1453 c 2,32,-1
 1484 1292 l 1,0,1
370 404 m 1,33,-1
 1258 1292 l 1,34,35
 1094 1425 1094 1425 875 1425 c 0,36,37
 873 1425 873 1425 871 1425 c 0,38,39
 609 1425 609 1425 423 1239 c 128,-1,40
 237 1053 237 1053 237 791 c 0,41,42
 237 570 237 570 370 404 c 1,33,-1
1371 1180 m 1,43,-1
 483 291 l 1,44,45
 647 158 647 158 867 158 c 0,46,47
 869 158 869 158 871 158 c 0,48,49
 1133 158 1133 158 1318 344 c 0,50,51
 1504 529 1504 529 1504 791 c 0,52,53
 1504 793 1504 793 1504 795 c 0,54,55
 1504 1015 1504 1015 1371 1180 c 1,43,-1
EndSplineSet
Validated: 1
EndChar

StartChar: Thorn
Encoding: 222 222 158
Width: 1265
VWidth: 2025
Flags: W
LayerCount: 2
Fore
SplineSet
78 1504 m 2,0,1
 78 1536 78 1536 102.5 1559.5 c 128,-1,2
 127 1583 127 1583 158 1583 c 256,3,4
 190 1583 190 1583 213.5 1560 c 128,-1,5
 237 1537 237 1537 237 1504 c 2,6,-1
 237 1266 l 1,7,-1
 712 1266 l 2,8,9
 909 1266 909 1266 1048 1127.5 c 128,-1,10
 1187 989 1187 989 1187 791 c 256,11,12
 1187 594 1187 594 1047.5 455.5 c 128,-1,13
 908 317 908 317 712 317 c 2,14,-1
 237 317 l 1,15,-1
 237 78 l 2,16,17
 237 46 237 46 214 23 c 0,18,19
 190 0 190 0 158 0 c 256,20,21
 126 0 126 0 102 23 c 128,-1,22
 78 46 78 46 78 78 c 2,23,-1
 78 1504 l 2,0,1
712 475 m 2,24,25
 845 475 845 475 937 567 c 0,26,27
 1029 659 1029 659 1029 791 c 256,28,29
 1029 924 1029 924 936 1016 c 0,30,31
 843 1108 843 1108 712 1108 c 2,32,-1
 237 1108 l 1,33,-1
 237 475 l 1,34,-1
 712 475 l 2,24,25
EndSplineSet
Validated: 1
EndChar

StartChar: germandbls
Encoding: 223 223 159
Width: 1106
VWidth: 2025
Flags: W
LayerCount: 2
Fore
SplineSet
237 78 m 2,0,1
 237 46 237 46 214 23 c 0,2,3
 190 0 190 0 158 0 c 256,4,5
 126 0 126 0 102 23 c 128,-1,6
 78 46 78 46 78 78 c 2,7,-1
 78 1187 l 2,8,9
 78 1351 78 1351 195 1467 c 256,10,11
 310 1582 310 1582 473 1583 c 0,12,13
 474 1583 474 1583 475 1583 c 256,14,15
 639 1583 639 1583 755 1467 c 128,-1,16
 871 1351 871 1351 871 1187 c 0,17,18
 871 1041 871 1041 780 936 c 0,19,20
 756 902 756 902 755 857 c 0,21,22
 755 782 755 782 810 751 c 0,23,24
 865 722 865 722 913 675 c 0,25,26
 1029 558 1029 558 1029 398 c 0,27,-1
 1029 396 l 256,28,29
 1029 232 1029 232 913 116 c 128,-1,30
 797 0 797 0 633 0 c 256,31,32
 469 0 469 0 353 117 c 0,33,34
 328 143 328 143 328 174 c 256,35,36
 328 206 328 206 351 229.5 c 128,-1,37
 374 253 374 253 406 253 c 256,38,39
 438 253 438 253 466 228 c 0,40,41
 535 159 535 159 633 158 c 256,42,43
 731 158 731 158 801 228 c 0,44,45
 871 299 871 299 871 396 c 256,46,47
 871 494 871 494 801 564 c 0,48,49
 773 592 773 592 739.5 610.5 c 128,-1,50
 706 629 706 629 677 660 c 0,51,52
 594 742 594 742 594 859 c 0,53,54
 594 966 594 966 665 1045 c 1,55,56
 712 1106 712 1106 712 1187 c 0,57,58
 712 1285 712 1285 642.5 1355 c 128,-1,59
 573 1425 573 1425 475 1425 c 256,60,61
 378 1425 378 1425 308.5 1355.5 c 128,-1,62
 239 1286 239 1286 237 1187 c 2,63,-1
 237 78 l 2,0,1
EndSplineSet
Validated: 1
EndChar

StartChar: ae
Encoding: 230 230 166
Width: 2214
VWidth: 2025
Flags: W
LayerCount: 2
Fore
SplineSet
633 950 m 256,0,1
 469 950 469 950 353 834 c 128,-1,2
 237 718 237 718 237 554 c 256,3,4
 237 390 237 390 353 274 c 128,-1,5
 469 158 469 158 633 158 c 256,6,7
 797 158 797 158 913 274 c 128,-1,8
 1029 390 1029 390 1029 554 c 256,9,10
 1029 718 1029 718 913 834 c 128,-1,11
 797 950 797 950 633 950 c 256,0,1
1973 633 m 1,12,13
 1951 748 1951 748 1863 834 c 0,14,15
 1746 950 1746 950 1583 950 c 256,16,17
 1419 950 1419 950 1303 834 c 0,18,19
 1216 747 1216 747 1194 633 c 1,20,-1
 1973 633 l 1,12,13
1187 166 m 1,21,-1
 1187 78 l 2,22,23
 1187 46 1187 46 1164.5 23 c 128,-1,24
 1142 0 1142 0 1108 0 c 256,25,26
 1076 0 1076 0 1052.5 23 c 128,-1,27
 1029 46 1029 46 1029 78 c 2,28,-1
 1029 166 l 1,29,30
 863 0 863 0 633 0 c 256,31,32
 403 0 403 0 240.5 162.5 c 128,-1,33
 78 325 78 325 78 554 c 256,34,35
 78 784 78 784 241 946 c 128,-1,36
 404 1108 404 1108 633 1108 c 256,37,38
 863 1108 863 1108 1025 946 c 0,39,40
 1072 899 1072 899 1108 842 c 1,41,42
 1142 896 1142 896 1191 946 c 0,43,44
 1353 1108 1353 1108 1580 1108 c 0,45,46
 1582 1108 1582 1108 1583 1108 c 256,47,48
 1813 1108 1813 1108 1975.5 946 c 128,-1,49
 2138 784 2138 784 2138 554 c 0,50,51
 2138 522 2138 522 2114 498.5 c 128,-1,52
 2090 475 2090 475 2058 475 c 2,53,-1
 1194 475 l 1,54,55
 1216 360 1216 360 1303 274 c 0,56,57
 1419 158 1419 158 1580 158 c 0,58,59
 1582 158 1582 158 1583 158 c 0,60,61
 1731 158 1731 158 1838 251 c 0,62,63
 1860 268 1860 268 1888 269 c 0,64,65
 1920 269 1920 269 1943.5 245.5 c 128,-1,66
 1967 222 1967 222 1967 190 c 256,67,68
 1967 158 1967 158 1945 135 c 0,69,70
 1791 0 1791 0 1583 0 c 0,71,72
 1353 0 1353 0 1187 166 c 1,21,-1
EndSplineSet
Validated: 1
EndChar

StartChar: eth
Encoding: 240 240 176
Width: 1265
VWidth: 2025
Flags: W
LayerCount: 2
Fore
SplineSet
633 950 m 256,0,1
 469 950 469 950 353 834 c 128,-1,2
 237 718 237 718 237 554 c 256,3,4
 237 390 237 390 353 274 c 128,-1,5
 469 158 469 158 633 158 c 256,6,7
 797 158 797 158 913 274 c 128,-1,8
 1029 390 1029 390 1029 554 c 256,9,10
 1029 718 1029 718 913 834 c 128,-1,11
 797 950 797 950 633 950 c 256,0,1
600 1403 m 1,12,-1
 566 1460 l 2,13,14
 554 1482 554 1482 554 1504 c 0,15,16
 554 1536 554 1536 578 1559.5 c 128,-1,17
 602 1583 602 1583 633 1583 c 0,18,19
 679 1583 679 1583 700 1546 c 2,20,-1
 737 1484 l 1,21,-1
 871 1562 l 2,22,23
 899 1579 899 1579 931 1571 c 0,24,25
 964 1564 964 1564 979 1536 c 0,26,27
 996 1508 996 1508 987.5 1475.5 c 128,-1,28
 979 1443 979 1443 952 1425 c 2,29,-1
 816 1348 l 1,30,-1
 1122 820 l 2,31,32
 1187 699 1187 699 1187 554 c 0,33,34
 1187 324 1187 324 1025 162 c 128,-1,35
 863 0 863 0 633 0 c 256,36,37
 403 0 403 0 240.5 162.5 c 128,-1,38
 78 325 78 325 78 554 c 256,39,40
 78 784 78 784 241 946 c 128,-1,41
 404 1108 404 1108 633 1108 c 0,42,43
 710 1108 710 1108 782 1088 c 1,44,-1
 679 1266 l 1,45,-1
 541 1186 l 2,46,47
 513 1169 513 1169 481 1177.5 c 128,-1,48
 449 1186 449 1186 433 1214 c 0,49,50
 416 1242 416 1242 424.5 1274 c 128,-1,51
 433 1306 433 1306 461 1324 c 2,52,-1
 600 1403 l 1,12,-1
EndSplineSet
Validated: 1
EndChar

StartChar: divide
Encoding: 247 247 183
Width: 947
VWidth: 2025
Flags: W
LayerCount: 2
Fore
SplineSet
574 1009 m 256,0,1
 574 969 574 969 545 939 c 128,-1,2
 516 909 516 909 475 909 c 256,3,4
 435 909 435 909 405.5 939.5 c 128,-1,5
 376 970 376 970 376 1009 c 256,6,7
 376 1049 376 1049 405.5 1078.5 c 128,-1,8
 435 1108 435 1108 475 1108 c 256,9,10
 515 1108 515 1108 544.5 1078.5 c 128,-1,11
 574 1049 574 1049 574 1009 c 256,0,1
158 633 m 2,12,13
 126 633 126 633 102 656 c 128,-1,14
 78 679 78 679 78 712 c 256,15,16
 78 744 78 744 102.5 767.5 c 128,-1,17
 127 791 127 791 158 791 c 2,18,-1
 791 791 l 2,19,20
 823 791 823 791 847 768 c 0,21,22
 871 744 871 744 871 712 c 256,23,24
 871 680 871 680 847 657 c 0,25,26
 823 633 823 633 791 633 c 2,27,-1
 158 633 l 2,12,13
574 416 m 256,28,29
 574 376 574 376 545 346.5 c 128,-1,30
 516 317 516 317 475 317 c 256,31,32
 435 317 435 317 406 346 c 0,33,34
 376 376 376 376 376 416 c 256,35,36
 376 456 376 456 405.5 485 c 128,-1,37
 435 514 435 514 475 514 c 256,38,39
 515 514 515 514 544.5 485 c 128,-1,40
 574 456 574 456 574 416 c 256,28,29
EndSplineSet
Validated: 1
EndChar

StartChar: oslash
Encoding: 248 248 184
Width: 1265
VWidth: 2025
Flags: W
LayerCount: 2
Fore
SplineSet
852 884 m 1,0,1
 756 949 756 949 633 950 c 0,2,3
 469 950 469 950 353 834 c 128,-1,4
 237 718 237 718 237 554 c 0,5,6
 237 431 237 431 301 336 c 1,7,-1
 852 884 l 1,0,1
966 774 m 1,8,-1
 414 222 l 1,9,10
 510 159 510 159 633 158 c 0,11,12
 797 158 797 158 913 274 c 128,-1,13
 1029 390 1029 390 1029 554 c 0,14,15
 1029 678 1029 678 966 774 c 1,8,-1
966 998 m 1,16,-1
 1049 1082 l 2,17,18
 1075 1108 1075 1108 1108 1108 c 256,19,20
 1140 1108 1140 1108 1163.5 1084.5 c 128,-1,21
 1187 1061 1187 1061 1187 1029 c 0,22,23
 1187 997 1187 997 1165 974 c 2,24,-1
 1076 884 l 1,25,26
 1187 742 1187 742 1187 554 c 0,27,28
 1187 324 1187 324 1025 162 c 128,-1,29
 863 0 863 0 633 0 c 0,30,31
 443 0 443 0 301 111 c 1,32,-1
 214 23 l 2,33,34
 190 0 190 0 158 0 c 256,35,36
 126 0 126 0 102 23 c 128,-1,37
 78 46 78 46 78 78 c 0,38,39
 78 109 78 109 102 135 c 2,40,-1
 189 222 l 1,41,42
 78 364 78 364 78 554 c 0,43,44
 78 784 78 784 241 946 c 128,-1,45
 404 1108 404 1108 633 1108 c 0,46,47
 635 1108 635 1108 637 1108 c 0,48,49
 824 1108 824 1108 966 998 c 1,16,-1
EndSplineSet
Validated: 1
EndChar

StartChar: thorn
Encoding: 254 254 190
Width: 1265
VWidth: 2025
Flags: W
LayerCount: 2
Fore
SplineSet
237 556 m 256,0,1
 237 392 237 392 353 276 c 128,-1,2
 469 160 469 160 633 160 c 256,3,4
 797 160 797 160 913 276 c 128,-1,5
 1029 392 1029 392 1029 556 c 256,6,7
 1029 720 1029 720 913 836 c 128,-1,8
 797 952 797 952 633 952 c 256,9,10
 469 952 469 952 353 836 c 128,-1,11
 237 720 237 720 237 556 c 256,0,1
237 944 m 1,12,13
 403 1109 403 1109 631 1110 c 0,14,15
 633 1110 l 256,16,17
 863 1110 863 1110 1025 948 c 128,-1,18
 1187 786 1187 786 1187 556 c 256,19,20
 1187 326 1187 326 1025 164 c 128,-1,21
 863 2 863 2 633 2 c 256,22,23
 403 2 403 2 237 168 c 1,24,-1
 237 -396 l 2,25,26
 237 -428 237 -428 214 -451 c 0,27,28
 190 -475 190 -475 158 -475 c 256,29,30
 126 -475 126 -475 102 -452 c 128,-1,31
 78 -429 78 -429 78 -396 c 2,32,-1
 78 1506 l 2,33,34
 78 1538 78 1538 102.5 1561.5 c 128,-1,35
 127 1585 127 1585 158 1585 c 256,36,37
 190 1585 190 1585 213.5 1562 c 128,-1,38
 237 1539 237 1539 237 1506 c 2,39,-1
 237 944 l 1,12,13
EndSplineSet
Validated: 1
EndChar

StartChar: dotlessi
Encoding: 305 305 192
Width: 472
VWidth: 2025
Flags: W
LayerCount: 2
Fore
SplineSet
158 1029 m 2,0,1
 158 1061 158 1061 182 1084 c 0,2,3
 206 1108 206 1108 237 1108 c 256,4,5
 269 1108 269 1108 293 1084.5 c 128,-1,6
 317 1061 317 1061 317 1029 c 2,7,-1
 317 78 l 2,8,9
 317 46 317 46 293 23 c 0,10,11
 271 0 271 0 237 0 c 256,12,13
 205 0 205 0 181.5 23 c 128,-1,14
 158 46 158 46 158 78 c 2,15,-1
 158 1029 l 2,0,1
EndSplineSet
Validated: 1
EndChar

StartChar: circumflex
Encoding: 710 710 193
Width: 789
VWidth: 2025
Flags: W
LayerCount: 2
Fore
SplineSet
437 1534 m 2,0,-1
 673 1375 l 2,1,2
 712 1346 712 1346 712 1308 c 0,3,4
 712 1307 712 1307 712 1306 c 0,5,6
 712 1274 712 1274 689 1250.5 c 128,-1,7
 666 1227 666 1227 633 1227 c 0,8,9
 605 1227 605 1227 584 1243 c 2,10,-1
 396 1368 l 1,11,-1
 208 1243 l 2,12,13
 186 1227 186 1227 158 1227 c 0,14,15
 126 1227 126 1227 102 1250 c 128,-1,16
 78 1273 78 1273 78 1306 c 0,17,18
 78 1307 78 1307 78 1308 c 128,-1,19
 77.976744186 1308.88372093 77.976744186 1308.88372093 77.976744186 1309.76257436 c 0,20,21
 77.976744186 1346.6744186 77.976744186 1346.6744186 119 1375 c 2,22,-1
 355 1534 l 2,23,24
 374 1545 374 1545 396 1543 c 256,25,26
 419 1545 419 1545 437 1534 c 2,0,-1
EndSplineSet
Validated: 1
EndChar

StartChar: caron
Encoding: 711 711 194
Width: 789
VWidth: 2025
Flags: W
LayerCount: 2
Fore
SplineSet
396 1227 m 256,0,1
 373 1227 373 1227 355 1237 c 2,2,-1
 119 1395 l 2,3,4
 79 1425 79 1425 78 1464 c 0,5,6
 78 1496 78 1496 102.5 1519.5 c 128,-1,7
 127 1543 127 1543 158 1543 c 0,8,9
 186 1543 186 1543 208 1528 c 2,10,-1
 396 1402 l 1,11,-1
 584 1528 l 2,12,13
 605 1545 605 1545 633 1543 c 0,14,15
 665 1543 665 1543 688.5 1520 c 128,-1,16
 712 1497 712 1497 712 1464 c 0,17,18
 712 1424 712 1424 673 1395 c 2,19,-1
 437 1237 l 2,20,21
 420 1227 420 1227 396 1227 c 256,0,1
EndSplineSet
Validated: 1
EndChar

StartChar: uni02C9
Encoding: 713 713 195
Width: 789
VWidth: 2025
Flags: W
LayerCount: 2
Fore
SplineSet
158 1266 m 2,0,1
 126 1266 126 1266 102 1289 c 128,-1,2
 78 1312 78 1312 78 1346 c 256,3,4
 78 1378 78 1378 102.5 1401.5 c 128,-1,5
 127 1425 127 1425 158 1425 c 2,6,-1
 633 1425 l 2,7,8
 665 1425 665 1425 689 1401 c 0,9,10
 713 1377 713 1377 712 1346 c 256,11,12
 712 1314 712 1314 689 1290 c 128,-1,13
 666 1266 666 1266 633 1266 c 2,14,-1
 158 1266 l 2,0,1
EndSplineSet
Validated: 1
EndChar

StartChar: breve
Encoding: 728 728 196
Width: 789
VWidth: 2025
Flags: W
LayerCount: 2
Fore
SplineSet
78 1464 m 0,0,1
 78 1496 78 1496 102.5 1519.5 c 128,-1,2
 127 1543 127 1543 158 1543 c 256,3,4
 190 1543 190 1543 213.5 1520 c 128,-1,5
 237 1497 237 1497 237 1464 c 256,6,7
 237 1432 237 1432 283.5 1408.5 c 128,-1,8
 330 1385 330 1385 396 1385 c 256,9,10
 461 1385 461 1385 508 1408 c 128,-1,11
 555 1431 555 1431 555 1464 c 256,12,13
 555 1496 555 1496 578.5 1519.5 c 128,-1,14
 602 1543 602 1543 634 1543 c 256,15,16
 666 1543 666 1543 690 1520 c 128,-1,17
 714 1497 714 1497 714 1464 c 0,18,19
 710 1359 710 1359 621 1297 c 0,20,21
 528 1229 528 1229 396 1227 c 256,22,23
 263 1227 263 1227 170.5 1296.5 c 128,-1,24
 78 1366 78 1366 78 1464 c 0,0,1
EndSplineSet
Validated: 1
EndChar

StartChar: dotaccent
Encoding: 729 729 197
Width: 393
VWidth: 2025
Flags: W
LayerCount: 2
Fore
SplineSet
317 1348 m 256,0,1
 317 1299 317 1299 282 1263 c 128,-1,2
 247 1227 247 1227 198 1227 c 256,3,4
 149 1227 149 1227 113 1262 c 0,5,6
 78 1298 78 1298 78 1348 c 256,7,8
 78 1397 78 1397 113 1431 c 128,-1,9
 148 1465 148 1465 198 1465 c 256,10,11
 247 1465 247 1465 282 1431 c 128,-1,12
 317 1397 317 1397 317 1348 c 256,0,1
EndSplineSet
Validated: 1
EndChar

StartChar: ring
Encoding: 730 730 198
Width: 552
VWidth: 2025
Flags: W
LayerCount: 2
Fore
SplineSet
478 1384 m 0,0,1
 478 1302 478 1302 419.5 1243 c 128,-1,2
 361 1184 361 1184 279 1184 c 256,3,4
 197 1184 197 1184 137.5 1242.5 c 128,-1,5
 78 1301 78 1301 78 1384 c 0,6,7
 78 1465 78 1465 137 1524 c 128,-1,8
 196 1583 196 1583 279 1583 c 0,9,10
 360 1583 360 1583 419 1524 c 128,-1,11
 478 1465 478 1465 478 1384 c 0,0,1
279 1483 m 0,12,13
 237 1483 237 1483 208 1454 c 128,-1,14
 179 1425 179 1425 179 1384 c 0,15,16
 179 1342 179 1342 208 1313 c 128,-1,17
 237 1284 237 1284 279 1284 c 0,18,19
 319 1284 319 1284 348.5 1314 c 128,-1,20
 378 1344 378 1344 378 1384 c 256,21,22
 378 1424 378 1424 348.5 1453.5 c 128,-1,23
 319 1483 319 1483 279 1483 c 0,12,13
EndSplineSet
Validated: 1
EndChar

StartChar: ogonek
Encoding: 731 731 199
Width: 632
VWidth: 2025
Flags: W
LayerCount: 2
Fore
SplineSet
247 36 m 0,0,1
 267 75 267 75 315 75 c 0,2,3
 316 75 316 75 317 75 c 0,4,5
 349 75 349 75 373 53 c 0,6,7
 396 30 396 30 396 0 c 0,8,9
 396 -13 396 -13 394 -23 c 0,10,11
 379 -94 379 -94 272 -172 c 0,12,13
 239 -200 239 -200 237 -237 c 0,14,15
 237 -269 237 -269 261 -293 c 0,16,17
 283 -317 283 -317 317 -317 c 0,18,19
 341 -317 341 -317 359 -303 c 2,20,-1
 427 -253 l 2,21,22
 448 -237 448 -237 475 -237 c 0,23,24
 507 -237 507 -237 530 -261 c 0,25,26
 554 -283 554 -283 554 -317 c 0,27,28
 554 -357 554 -357 526 -378 c 2,29,-1
 447 -433 l 2,30,31
 388 -475 388 -475 317 -475 c 0,32,33
 219 -475 219 -475 148.5 -405.5 c 128,-1,34
 78 -336 78 -336 78 -237 c 0,35,36
 78 -130 78 -130 180 -44 c 0,37,38
 226 -5 226 -5 247 36 c 0,0,1
EndSplineSet
Validated: 1
EndChar

StartChar: tilde
Encoding: 732 732 200
Width: 947
VWidth: 2025
Flags: W
LayerCount: 2
Fore
SplineSet
526 1307 m 0,0,1
 437 1229 437 1229 317 1227 c 0,2,3
 184 1227 184 1227 92 1322 c 0,4,5
 70 1346 70 1346 69 1376 c 0,6,7
 69 1408 69 1408 93 1431.5 c 128,-1,8
 117 1455 117 1455 150 1455 c 0,9,10
 182 1454 182 1454 205 1433 c 0,11,12
 250 1386 250 1386 317 1386 c 0,13,14
 372 1387 372 1387 416 1421 c 0,15,16
 504 1500 504 1500 625 1500 c 0,17,18
 758 1500 758 1500 850 1407 c 0,19,20
 871 1383 871 1383 871 1351 c 256,21,22
 871 1319 871 1319 848 1295.5 c 128,-1,23
 825 1272 825 1272 793 1272 c 256,24,25
 761 1272 761 1272 737 1294 c 0,26,27
 691 1341 691 1341 625 1342 c 0,28,29
 568 1340 568 1340 526 1307 c 0,0,1
EndSplineSet
Validated: 1
EndChar

StartChar: hungarumlaut
Encoding: 733 733 201
Width: 711
VWidth: 2025
Flags: W
LayerCount: 2
Fore
SplineSet
194 1206 m 2,0,1
 176 1171 176 1171 139 1169 c 0,2,3
 103 1169 103 1169 83 1204 c 0,4,5
 78 1215 78 1215 78 1227 c 0,6,7
 78 1237 78 1237 82 1249 c 2,8,-1
 173 1534 l 2,9,10
 186 1564 186 1564 216 1577 c 0,11,12
 232 1583 232 1583 245 1583 c 256,13,14
 260 1583 260 1583 276 1578 c 0,15,16
 306 1566 306 1566 319 1536 c 128,-1,17
 332 1506 332 1506 321 1475 c 2,18,-1
 194 1206 l 2,0,1
501 1206 m 2,19,20
 484 1171 484 1171 445 1169 c 0,21,22
 409 1169 409 1169 391 1204 c 0,23,24
 386 1215 386 1215 386 1227 c 0,25,26
 386 1237 386 1237 390 1249 c 2,27,-1
 480 1534 l 2,28,29
 491 1564 491 1564 522 1577 c 0,30,31
 538 1583 538 1583 553 1583 c 256,32,33
 568 1583 568 1583 582 1578 c 0,34,35
 612 1566 612 1566 625.5 1536 c 128,-1,36
 639 1506 639 1506 627 1475 c 2,37,-1
 501 1206 l 2,19,20
EndSplineSet
Validated: 1
EndChar

StartChar: commaaccent
Encoding: 65539 -1 202
Width: 1264
VWidth: 4050
Flags: W
LayerCount: 2
Fore
SplineSet
973 -166 m 1,0,1
 1109 -276 1109 -276 1110 -454 c 256,2,3
 1110 -630 1110 -630 970 -751 c 128,-1,4
 830 -872 830 -872 636 -872 c 0,5,6
 520 -872 520 -872 410 -812 c 2,7,-1
 231 -706 l 1,8,9
 163 -650 163 -650 158 -574 c 0,10,11
 158 -510 158 -510 206 -462.5 c 128,-1,12
 254 -415 254 -415 320 -415 c 0,13,14
 366 -415 366 -415 404 -438 c 2,15,-1
 558 -534 l 2,16,17
 596 -554 596 -554 636 -554 c 0,18,19
 700 -554 700 -554 746 -527 c 128,-1,20
 792 -500 792 -500 792 -454 c 256,21,22
 792 -408 792 -408 746 -382 c 128,-1,23
 700 -356 700 -356 636 -356 c 256,24,25
 572 -356 572 -356 524 -310 c 128,-1,26
 476 -264 476 -264 476 -198 c 0,27,28
 476 -158 476 -158 514 -120 c 0,29,30
 570 -72 570 -72 704 -70 c 0,31,32
 851 -78 851 -78 973 -166 c 1,0,1
EndSplineSet
Validated: 1
EndChar

StartChar: endash
Encoding: 8211 8211 203
Width: 1579
VWidth: 4050
Flags: W
LayerCount: 2
Fore
SplineSet
0 950 m 2,0,1
 -64 950 -64 950 -110 997 c 128,-1,2
 -156 1044 -156 1044 -156 1108 c 256,3,4
 -156 1172 -156 1172 -110 1219 c 128,-1,5
 -64 1266 -64 1266 0 1266 c 2,6,-1
 1584 1266 l 2,7,8
 1648 1266 1648 1266 1694 1219 c 128,-1,9
 1740 1172 1740 1172 1740 1108 c 256,10,11
 1740 1044 1740 1044 1694 997 c 128,-1,12
 1648 950 1648 950 1584 950 c 2,13,-1
 0 950 l 2,0,1
EndSplineSet
Validated: 1
EndChar

StartChar: emdash
Encoding: 8212 8212 204
Width: 3797
VWidth: 4050
Flags: W
LayerCount: 2
Fore
SplineSet
0 950 m 2,0,1
 -64 950 -64 950 -110 997 c 128,-1,2
 -156 1044 -156 1044 -156 1108 c 256,3,4
 -156 1172 -156 1172 -110 1219 c 128,-1,5
 -64 1266 -64 1266 0 1266 c 2,6,-1
 3798 1266 l 2,7,8
 3862 1266 3862 1266 3910 1219 c 128,-1,9
 3958 1172 3958 1172 3958 1108 c 256,10,11
 3958 1044 3958 1044 3911 997 c 128,-1,12
 3864 950 3864 950 3798 950 c 2,13,-1
 0 950 l 2,0,1
EndSplineSet
Validated: 1
EndChar

StartChar: quoteleft
Encoding: 8216 8216 205
Width: 946
VWidth: 4050
Flags: W
LayerCount: 2
Fore
SplineSet
738 2058 m 0,0,1
 738 1978 738 1978 680 1920 c 128,-1,2
 622 1862 622 1862 540 1862 c 0,3,4
 418 1862 418 1862 362 1976 c 1,5,6
 238 2200 238 2200 238 2424 c 0,7,8
 238 2770 238 2770 538 3132 c 0,9,10
 572 3166 572 3166 622 3166 c 0,11,12
 668 3166 668 3166 703 3131.5 c 128,-1,13
 738 3097 738 3097 738 3050 c 0,14,15
 738 3022 738 3022 728 2997 c 0,16,17
 628 2761 628 2761 628 2541 c 0,18,19
 628 2329 628 2329 722 2136 c 0,20,21
 738 2102 738 2102 738 2058 c 0,0,1
EndSplineSet
Validated: 1
EndChar

StartChar: quoteright
Encoding: 8217 8217 206
Width: 946
VWidth: 4050
Flags: W
LayerCount: 2
Fore
SplineSet
238 2968 m 0,0,1
 238 3048 238 3048 296 3107 c 128,-1,2
 354 3166 354 3166 434 3166 c 0,3,4
 556 3166 556 3166 614 3052 c 1,5,6
 738 2828 738 2828 738 2602 c 0,7,8
 738 2256 738 2256 436 1895 c 0,9,10
 402.971428571 1861.97142857 402.971428571 1861.97142857 356.731428571 1861.97142857 c 0,11,12
 355.371428571 1861.97142857 355.371428571 1861.97142857 354 1862 c 0,13,14
 307 1862 307 1862 272.5 1896 c 128,-1,15
 238 1930 238 1930 238 1978 c 0,16,17
 238 2006 238 2006 248 2028 c 0,18,19
 346 2261 346 2261 346 2475 c 0,20,21
 346 2479 346 2479 346 2484 c 0,22,23
 346 2696 346 2696 254 2890 c 0,24,25
 238 2924 238 2924 238 2968 c 0,0,1
EndSplineSet
Validated: 1
EndChar

StartChar: quotesinglbase
Encoding: 8218 8218 207
Width: 946
VWidth: 4050
Flags: W
LayerCount: 2
Fore
SplineSet
238 432 m 0,0,1
 238 512 238 512 296 572 c 128,-1,2
 354 632 354 632 434 632 c 0,3,4
 556 632 556 632 614 516 c 1,5,6
 738 292 738 292 738 66 c 0,7,8
 738 -280 738 -280 436 -642 c 0,9,10
 402 -676 402 -676 354 -676 c 0,11,12
 307 -676 307 -676 272.5 -640.5 c 128,-1,13
 238 -605 238 -605 238 -558 c 0,14,15
 238 -530 238 -530 248 -507 c 0,16,17
 346 -274 346 -274 346 -59 c 0,18,19
 346 -55 346 -55 346 -50 c 0,20,21
 346 162 346 162 254 354 c 0,22,23
 238 388 238 388 238 432 c 0,0,1
EndSplineSet
Validated: 1
EndChar

StartChar: quotedblleft
Encoding: 8220 8220 208
Width: 1500
VWidth: 4050
Flags: W
LayerCount: 2
Fore
SplineSet
660 2062 m 0,0,1
 660 1982 660 1982 601 1924 c 128,-1,2
 542 1866 542 1866 460 1866 c 0,3,4
 338 1866 338 1866 284 1980 c 1,5,6
 160 2204 160 2204 156 2428 c 0,7,8
 156 2774 156 2774 458 3136 c 0,9,10
 492 3170 492 3170 542 3170 c 0,11,12
 589 3170 589 3170 624.5 3135.5 c 128,-1,13
 660 3101 660 3101 660 3054 c 0,14,15
 660 3026 660 3026 650 3001 c 0,16,17
 550 2765 550 2765 550 2545 c 0,18,19
 550 2333 550 2333 644 2140 c 0,20,21
 660 2106 660 2106 660 2062 c 0,0,1
1345 2062 m 0,22,23
 1345 1982 1345 1982 1287.5 1924 c 128,-1,24
 1230 1866 1230 1866 1148 1866 c 0,25,26
 1026 1866 1026 1866 969 1980 c 1,27,28
 845.992 2202.208 845.992 2202.208 845.992 2424.416 c 0,29,30
 845.992 2426.208 845.992 2426.208 846 2428 c 0,31,32
 846 2774 846 2774 1146 3136 c 0,33,34
 1180 3170 1180 3170 1230 3170 c 0,35,36
 1277 3170 1277 3170 1311 3135.5 c 128,-1,37
 1345 3101 1345 3101 1345 3054 c 0,38,39
 1345 3026 1345 3026 1336 3001 c 0,40,41
 1238 2768 1238 2768 1238 2554 c 0,42,43
 1238 2550 1238 2550 1238 2545 c 0,44,45
 1238 2333 1238 2333 1330 2140 c 0,46,47
 1345 2106 1345 2106 1345 2062 c 0,22,23
EndSplineSet
Validated: 1
EndChar

StartChar: quotedblright
Encoding: 8221 8221 209
Width: 1500
VWidth: 4050
Flags: W
LayerCount: 2
Fore
SplineSet
846 2972 m 0,0,1
 846 3052 846 3052 904 3111 c 128,-1,2
 962 3170 962 3170 1044 3170 c 0,3,4
 1166 3170 1166 3170 1222 3056 c 1,5,6
 1345.008 2833.792 1345.008 2833.792 1345.008 2609.615872 c 0,7,8
 1345.008 2607.808 1345.008 2607.808 1345 2606 c 0,9,10
 1345 2260 1345 2260 1046 1899 c 0,11,12
 1012.97142857 1865.97142857 1012.97142857 1865.97142857 964.844081633 1865.97142857 c 0,13,14
 963.428571429 1865.97142857 963.428571429 1865.97142857 962 1866 c 0,15,16
 915 1866 915 1866 880.5 1900 c 128,-1,17
 846 1934 846 1934 846 1981 c 0,18,19
 846 2009 846 2009 856 2032 c 0,20,21
 956 2268 956 2268 956 2488 c 0,22,23
 956 2700 956 2700 862 2894 c 0,24,25
 846 2928 846 2928 846 2972 c 0,0,1
156 2972 m 0,26,27
 156 3052 156 3052 216 3111 c 128,-1,28
 276 3170 276 3170 356 3170 c 0,29,30
 478 3170 478 3170 534 3056 c 1,31,32
 658 2832 658 2832 660 2606 c 0,33,34
 660 2260 660 2260 358 1899 c 0,35,36
 324.971428571 1865.97142857 324.971428571 1865.97142857 278.731428571 1865.97142857 c 0,37,38
 277.371428571 1865.97142857 277.371428571 1865.97142857 276 1866 c 0,39,40
 229 1866 229 1866 192.5 1900 c 128,-1,41
 156 1934 156 1934 156 1981 c 0,42,43
 156 2009 156 2009 166 2032 c 0,44,45
 266 2270 266 2270 266 2490 c 0,46,47
 266 2702 266 2702 174 2894 c 0,48,49
 156 2928 156 2928 156 2972 c 0,26,27
EndSplineSet
Validated: 1
EndChar

StartChar: quotedblbase
Encoding: 8222 8222 210
Width: 1500
VWidth: 4050
Flags: W
LayerCount: 2
Fore
SplineSet
846 434 m 0,0,1
 846 514 846 514 904 574 c 128,-1,2
 962 634 962 634 1044 634 c 0,3,4
 1166 634 1166 634 1222 518 c 1,5,6
 1345.008 295.792 1345.008 295.792 1345.008 71.615872 c 0,7,8
 1345.008 69.808 1345.008 69.808 1345 68 c 0,9,10
 1345 -278 1345 -278 1046 -640 c 0,11,12
 1012 -674 1012 -674 962 -674 c 0,13,14
 915 -674 915 -674 880.5 -638.5 c 128,-1,15
 846 -603 846 -603 846 -556 c 0,16,17
 846 -528 846 -528 856 -504 c 0,18,19
 956 -268 956 -268 956 -48 c 0,20,21
 956 164 956 164 862 356 c 0,22,23
 846 390 846 390 846 434 c 0,0,1
156 434 m 0,24,25
 156 514 156 514 216 574 c 128,-1,26
 276 634 276 634 356 634 c 0,27,28
 478 634 478 634 534 518 c 1,29,30
 658 294 658 294 660 68 c 0,31,32
 660 -278 660 -278 358 -640 c 0,33,34
 324 -674 324 -674 276 -674 c 0,35,36
 229 -674 229 -674 192.5 -638.5 c 128,-1,37
 156 -603 156 -603 156 -556 c 0,38,39
 156 -528 156 -528 166 -504 c 0,40,41
 266 -266 266 -266 266 -46 c 0,42,43
 266 164 266 164 174 356 c 0,44,45
 156 390 156 390 156 434 c 0,24,25
EndSplineSet
Validated: 1
EndChar

StartChar: dagger
Encoding: 8224 8224 211
Width: 2213
VWidth: 4050
Flags: W
LayerCount: 2
Fore
SplineSet
318 1901 m 2,0,1
 254 1901 254 1901 205 1947 c 128,-1,2
 156 1993 156 1993 156 2058 c 256,3,4
 156 2122 156 2122 204 2169 c 128,-1,5
 252 2216 252 2216 318 2216 c 2,6,-1
 950 2216 l 1,7,-1
 950 3007 l 2,8,9
 950 3071 950 3071 997 3118.5 c 128,-1,10
 1044 3166 1044 3166 1108 3166 c 256,11,12
 1172 3166 1172 3166 1219 3120 c 128,-1,13
 1266 3074 1266 3074 1266 3007 c 2,14,-1
 1266 2216 l 1,15,-1
 1901 2216 l 2,16,17
 1965 2216 1965 2216 2011.5 2169 c 128,-1,18
 2058 2122 2058 2122 2058 2058 c 256,19,20
 2058 1994 2058 1994 2012 1947.5 c 128,-1,21
 1966 1901 1966 1901 1901 1901 c 2,22,-1
 1266 1901 l 1,23,-1
 1266 -791 l 2,24,25
 1266 -853 1266 -853 1222 -900 c 0,26,27
 1176 -947 1176 -947 1108 -948 c 256,28,29
 1044 -948 1044 -948 996 -900 c 0,30,31
 949.979166667 -854.958333333 949.979166667 -854.958333333 949.979166667 -793.617621528 c 0,32,33
 949.979166667 -792.3125 949.979166667 -792.3125 950 -791 c 2,34,-1
 950 1901 l 1,35,-1
 318 1901 l 2,0,1
EndSplineSet
Validated: 1
EndChar

StartChar: daggerdbl
Encoding: 8225 8225 212
Width: 2213
VWidth: 4050
Flags: W
LayerCount: 2
Fore
SplineSet
950 318 m 1,0,-1
 950 1901 l 1,1,-1
 318 1901 l 2,2,3
 254 1901 254 1901 205 1947 c 128,-1,4
 156 1993 156 1993 156 2058 c 256,5,6
 156 2122 156 2122 204 2169 c 128,-1,7
 252 2216 252 2216 318 2216 c 2,8,-1
 950 2216 l 1,9,-1
 950 3007 l 2,10,11
 950 3071 950 3071 997 3118.5 c 128,-1,12
 1044 3166 1044 3166 1108 3166 c 256,13,14
 1172 3166 1172 3166 1219 3120 c 128,-1,15
 1266 3074 1266 3074 1266 3007 c 2,16,-1
 1266 2216 l 1,17,-1
 1901 2216 l 2,18,19
 1965 2216 1965 2216 2011.5 2169 c 128,-1,20
 2058 2122 2058 2122 2058 2058 c 256,21,22
 2058 1994 2058 1994 2012 1947.5 c 128,-1,23
 1966 1901 1966 1901 1901 1901 c 2,24,-1
 1266 1901 l 1,25,-1
 1266 318 l 1,26,-1
 1901 318 l 2,27,28
 1965 318 1965 318 2011.5 272 c 128,-1,29
 2058 226 2058 226 2058 156 c 256,30,31
 2058 92 2058 92 2012 46 c 128,-1,32
 1966 0 1966 0 1901 0 c 2,33,-1
 1266 0 l 1,34,-1
 1266 -791 l 2,35,36
 1266 -853 1266 -853 1222 -900 c 0,37,38
 1176 -947 1176 -947 1108 -948 c 256,39,40
 1044 -948 1044 -948 996 -900 c 0,41,42
 949.979166667 -854.958333333 949.979166667 -854.958333333 949.979166667 -793.617621528 c 0,43,44
 949.979166667 -792.3125 949.979166667 -792.3125 950 -791 c 2,45,-1
 950 0 l 1,46,-1
 318 0 l 2,47,48
 254 0 254 0 205 46 c 128,-1,49
 156 92 156 92 156 156 c 256,50,51
 156 220 156 220 204 269 c 128,-1,52
 252 318 252 318 318 318 c 2,53,-1
 950 318 l 1,0,-1
EndSplineSet
Validated: 1
EndChar

StartChar: bullet
Encoding: 8226 8226 213
Width: 1579
VWidth: 4050
Flags: W
LayerCount: 2
Fore
SplineSet
1266 1584 m 256,0,1
 1266 1388 1266 1388 1126 1248 c 128,-1,2
 986 1108 986 1108 791 1108 c 256,3,4
 595 1108 595 1108 456.5 1247 c 128,-1,5
 318 1386 318 1386 318 1584 c 256,6,7
 318 1780 318 1780 457 1919 c 128,-1,8
 596 2058 596 2058 791 2058 c 256,9,10
 987 2058 987 2058 1126.5 1919 c 128,-1,11
 1266 1780 1266 1780 1266 1584 c 256,0,1
EndSplineSet
Validated: 1
EndChar

StartChar: ellipsis
Encoding: 8230 8230 214
Width: 2848
VWidth: 4050
Flags: W
LayerCount: 2
Fore
SplineSet
634 238 m 256,0,1
 634 140 634 140 564 70 c 128,-1,2
 494 0 494 0 396 0 c 256,3,4
 298 0 298 0 227 69 c 128,-1,5
 156 138 156 138 156 238 c 256,6,7
 156 336 156 336 227 405 c 128,-1,8
 298 474 298 474 396 474 c 256,9,10
 494 474 494 474 564 405 c 128,-1,11
 634 336 634 336 634 238 c 256,0,1
2533 238 m 256,12,13
 2533 140 2533 140 2463.5 70 c 128,-1,14
 2394 0 2394 0 2296 0 c 256,15,16
 2198 0 2198 0 2128 69 c 128,-1,17
 2058 138 2058 138 2058 238 c 256,18,19
 2058 336 2058 336 2127 405 c 128,-1,20
 2196 474 2196 474 2296 474 c 256,21,22
 2394 474 2394 474 2463.5 405 c 128,-1,23
 2533 336 2533 336 2533 238 c 256,12,13
1584 238 m 256,24,25
 1584 140 1584 140 1514 70 c 128,-1,26
 1444 0 1444 0 1345 0 c 256,27,28
 1247 0 1247 0 1177.5 69 c 128,-1,29
 1108 138 1108 138 1108 238 c 256,30,31
 1108 336 1108 336 1177.5 405 c 128,-1,32
 1247 474 1247 474 1345 474 c 256,33,34
 1443 474 1443 474 1513.5 405 c 128,-1,35
 1584 336 1584 336 1584 238 c 256,24,25
EndSplineSet
Validated: 1
EndChar

StartChar: guilsinglleft
Encoding: 8249 8249 215
Width: 1105
VWidth: 4050
Flags: W
LayerCount: 2
Fore
SplineSet
178 1184 m 2,0,-1
 646 2116 l 2,1,2
 658 2144 658 2144 682 2167 c 0,3,4
 728 2213 728 2213 791 2214 c 256,5,6
 855 2214 855 2214 902.5 2167 c 128,-1,7
 950 2120 950 2120 950 2056 c 0,8,9
 950 2020 950 2020 936 1989 c 2,10,-1
 494 1108 l 1,11,-1
 936 228 l 2,12,13
 950 196 950 196 950 156 c 0,14,15
 950 92 950 92 904 46 c 128,-1,16
 858 0 858 0 791 0 c 256,17,18
 727 0 727 0 682 46 c 0,19,20
 658 68 658 68 646 96 c 2,21,-1
 182 1022 l 2,22,23
 158 1066 158 1066 156 1106 c 0,24,25
 158 1146 158 1146 178 1184 c 2,0,-1
EndSplineSet
Validated: 1
EndChar

StartChar: guilsinglright
Encoding: 8250 8250 216
Width: 1105
VWidth: 4050
Flags: W
LayerCount: 2
Fore
SplineSet
950 1106 m 0,0,1
 950 1064 950 1064 926 1022 c 2,2,-1
 462 96 l 2,3,4
 450 68 450 68 426 46 c 0,5,6
 380 0 380 0 318 0 c 256,7,8
 254 0 254 0 205 46 c 128,-1,9
 156 92 156 92 156 156 c 0,10,11
 156 192 156 192 172 228 c 2,12,-1
 614 1108 l 1,13,-1
 172 1989 l 2,14,15
 158 2021 158 2021 156 2056 c 0,16,17
 156 2120 156 2120 204 2167 c 128,-1,18
 252 2214 252 2214 318 2214 c 256,19,20
 382 2214 382 2214 426 2167 c 0,21,22
 450 2143 450 2143 462 2116 c 2,23,-1
 930 1184 l 2,24,25
 950 1146 950 1146 950 1106 c 0,0,1
EndSplineSet
Validated: 1
EndChar

StartChar: fraction
Encoding: 8260 8260 217
AltUni2: 002215.ffffffff.0
Width: 1264
VWidth: 4050
Flags: W
LayerCount: 2
Fore
SplineSet
1901 3166 m 0,0,1
 1965 3166 1965 3166 2011.5 3120 c 128,-1,2
 2058 3074 2058 3074 2058 3007 c 0,3,4
 2058 2953 2058 2953 2026 2911 c 2,5,-1
 -511 56 l 2,6,7
 -561 0 -561 0 -634 0 c 0,8,9
 -698 0 -698 0 -744.5 46 c 128,-1,10
 -791 92 -791 92 -791 156 c 0,11,12
 -791 212 -791 212 -756 262 c 2,13,-1
 1776 3109 l 2,14,15
 1833 3166 1833 3166 1901 3166 c 0,0,1
EndSplineSet
Validated: 1
EndChar

StartChar: franc
Encoding: 8355 8355 218
Width: 3004
VWidth: 4050
Flags: W
LayerCount: 2
Fore
SplineSet
634 950 m 1,0,-1
 634 3007 l 2,1,2
 634 3071 634 3071 680 3118.5 c 128,-1,3
 726 3166 726 3166 791 3166 c 2,4,-1
 2692 3166 l 2,5,6
 2756 3166 2756 3166 2802 3120 c 128,-1,7
 2848 3074 2848 3074 2848 3007 c 256,8,9
 2848 2943 2848 2943 2802 2895.5 c 128,-1,10
 2756 2848 2756 2848 2692 2848 c 2,11,-1
 950 2848 l 1,12,-1
 950 1740 l 1,13,-1
 2216 1740 l 2,14,15
 2280 1740 2280 1740 2327 1694 c 128,-1,16
 2374 1648 2374 1648 2374 1584 c 256,17,18
 2374 1520 2374 1520 2328 1473 c 128,-1,19
 2282 1426 2282 1426 2216 1426 c 2,20,-1
 950 1426 l 1,21,-1
 950 950 l 1,22,-1
 1266 950 l 2,23,24
 1330 950 1330 950 1378 904 c 128,-1,25
 1426 858 1426 858 1426 791 c 256,26,27
 1426 727 1426 727 1379 680.5 c 128,-1,28
 1332 634 1332 634 1266 634 c 2,29,-1
 950 634 l 1,30,-1
 950 156 l 2,31,32
 950 92 950 92 904 46 c 128,-1,33
 858 0 858 0 791 0 c 256,34,35
 727 0 727 0 680.5 46 c 128,-1,36
 634 92 634 92 634 156 c 2,37,-1
 634 634 l 1,38,-1
 318 634 l 2,39,40
 254 634 254 634 205 680 c 128,-1,41
 156 726 156 726 156 791 c 256,42,43
 156 855 156 855 204 902.5 c 128,-1,44
 252 950 252 950 318 950 c 2,45,-1
 634 950 l 1,0,-1
EndSplineSet
Validated: 1
EndChar

StartChar: lira
Encoding: 8356 8356 219
Width: 2056
VWidth: 4050
Flags: W
LayerCount: 2
Fore
SplineSet
454 1840 m 1,0,1
 420 1974 420 1974 376 2077 c 1,2,-1
 378 2077 l 1,3,4
 318 2223 318 2223 318 2374 c 0,5,6
 318 2702 318 2702 549 2934 c 128,-1,7
 780 3166 780 3166 1108 3166 c 256,8,9
 1436 3166 1436 3166 1668 2934 c 0,10,11
 1724 2878 1724 2878 1768 2813 c 0,12,13
 1799.03030303 2770.33333333 1799.03030303 2770.33333333 1799.03030303 2719.20385675 c 0,14,15
 1799.03030303 2717.60606061 1799.03030303 2717.60606061 1799 2716 c 0,16,17
 1799 2652 1799 2652 1753 2604.5 c 128,-1,18
 1707 2557 1707 2557 1642 2557 c 256,19,20
 1578 2557 1578 2557 1533 2604 c 1,21,22
 1481 2674 1481 2674 1444 2712 c 0,23,24
 1306.98571429 2848.02857143 1306.98571429 2848.02857143 1113.61673469 2848.02857143 c 0,25,26
 1110.81428571 2848.02857143 1110.81428571 2848.02857143 1108 2848 c 256,27,28
 912 2848 912 2848 773 2709 c 128,-1,29
 634 2570 634 2570 634 2374 c 0,30,31
 634 2286 634 2286 672 2196 c 0,32,33
 738 2044 738 2044 782 1840 c 1,34,-1
 1426 1840 l 2,35,36
 1490 1840 1490 1840 1537 1793 c 128,-1,37
 1584 1746 1584 1746 1584 1682 c 256,38,39
 1584 1618 1584 1618 1537 1571.5 c 128,-1,40
 1490 1525 1490 1525 1426 1525 c 2,41,-1
 834 1525 l 1,42,43
 840 1477 840 1477 845 1425.5 c 128,-1,44
 850 1374 850 1374 852 1326 c 1,45,-1
 1426 1326 l 2,46,47
 1490 1326 1490 1326 1537 1280 c 128,-1,48
 1584 1234 1584 1234 1584 1166 c 256,49,50
 1584 1102 1584 1102 1537 1055 c 128,-1,51
 1490 1008 1490 1008 1426 1008 c 2,52,-1
 850 1008 l 1,53,54
 828 634 828 634 704 318 c 1,55,-1
 1484 318 l 1,56,-1
 1604 554 l 2,57,58
 1650 632 1650 632 1740 634 c 0,59,60
 1804 634 1804 634 1852.5 587 c 128,-1,61
 1901 540 1901 540 1901 474 c 0,62,63
 1901 432 1901 432 1884 400 c 2,64,-1
 1728 94 l 2,65,66
 1716 68 1716 68 1696 46 c 0,67,68
 1650 0 1650 0 1584 0 c 2,69,-1
 474 0 l 2,70,71
 410 0 410 0 364 46 c 128,-1,72
 318 92 318 92 318 156 c 0,73,74
 318 190 318 190 328 224 c 0,75,76
 498 590 498 590 528 1008 c 1,77,-1
 318 1008 l 2,78,79
 254 1008 254 1008 205 1055 c 128,-1,80
 156 1102 156 1102 156 1166 c 256,81,82
 156 1230 156 1230 204 1278 c 128,-1,83
 252 1326 252 1326 318 1326 c 2,84,-1
 530 1326 l 1,85,86
 528 1374 528 1374 523 1425 c 128,-1,87
 518 1476 518 1476 512 1525 c 1,88,-1
 318 1525 l 2,89,90
 254 1525 254 1525 205 1571 c 128,-1,91
 156 1617 156 1617 156 1682 c 256,92,93
 156 1746 156 1746 204 1793 c 128,-1,94
 252 1840 252 1840 318 1840 c 2,95,-1
 454 1840 l 1,0,1
EndSplineSet
Validated: 1
EndChar

StartChar: peseta
Encoding: 8359 8359 220
Width: 3954
VWidth: 4050
Flags: W
LayerCount: 2
Fore
SplineSet
442 2848 m 1,0,-1
 442 1426 l 1,1,-1
 872 1426 l 2,2,3
 1138 1426 1138 1426 1325 1634 c 128,-1,4
 1512 1842 1512 1842 1512 2136 c 256,5,6
 1512 2432 1512 2432 1324 2640 c 128,-1,7
 1136 2848 1136 2848 872 2848 c 2,8,-1
 442 2848 l 1,0,-1
2384 1694 m 0,9,10
 2337.97916667 1639.16666667 2337.97916667 1639.16666667 2337.97916667 1561.32291667 c 0,11,12
 2337.97916667 1559.66666667 2337.97916667 1559.66666667 2338 1558 c 0,13,14
 2344 1466 2344 1466 2434 1431 c 2,15,-1
 3406 1108 l 2,16,17
 3586 1043 3586 1043 3659 968 c 0,18,19
 3798 830 3798 830 3798 634 c 256,20,21
 3798 438 3798 438 3653 292 c 0,22,23
 3367 0 3367 0 2909 0 c 2,24,-1
 2374 0 l 2,25,26
 1583.99873737 0 1583.99873737 0 1583.99873737 789.003786285 c 0,27,-1
 1584 791 l 2,28,-1
 1584 1478 l 1,29,30
 1274 1108 1274 1108 872 1108 c 2,31,-1
 442 1108 l 1,32,-1
 442 156 l 2,33,34
 442 92 442 92 401 46 c 128,-1,35
 360 0 360 0 302 0 c 256,36,37
 244 0 244 0 200 46 c 128,-1,38
 156 92 156 92 156 156 c 2,39,-1
 156 3007 l 2,40,41
 156 3071 156 3071 199 3118.5 c 128,-1,42
 242 3166 242 3166 302 3166 c 2,43,-1
 872 3166 l 2,44,45
 1276 3166 1276 3166 1584 2796 c 1,46,-1
 1584 3007 l 2,47,48
 1584 3071 1584 3071 1630 3118.5 c 128,-1,49
 1676 3166 1676 3166 1740 3166 c 256,50,51
 1804 3166 1804 3166 1852.5 3120 c 128,-1,52
 1901 3074 1901 3074 1901 3007 c 2,53,-1
 1901 2216 l 1,54,-1
 2929 2216 l 1,55,56
 3375 2208 3375 2208 3692 1893 c 0,57,58
 3728 1857 3728 1857 3759 1816 c 0,59,60
 3788.03225806 1775.35483871 3788.03225806 1775.35483871 3788.03225806 1727.21748179 c 0,61,62
 3788.03225806 1725.61290323 3788.03225806 1725.61290323 3788 1724 c 0,63,64
 3788 1660 3788 1660 3742 1614 c 128,-1,65
 3696 1568 3696 1568 3632 1568 c 256,66,67
 3568 1568 3568 1568 3527.5 1609 c 128,-1,68
 3487 1650 3487 1650 3469 1668 c 0,69,70
 3236 1901 3236 1901 2909 1901 c 256,71,72
 2907.42583732 1901.00478469 2907.42583732 1901.00478469 2905.85471944 1901.00478469 c 0,73,74
 2579.06220096 1901.00478469 2579.06220096 1901.00478469 2384 1694 c 0,9,10
2374 318 m 2,75,-1
 2909 318 l 2,76,77
 3237 318 3237 318 3432 522 c 0,78,79
 3478 578 3478 578 3481 660 c 0,80,81
 3475 752 3475 752 3383 785 c 2,82,-1
 2410 1108 l 2,83,84
 2230 1174 2230 1174 2158 1249 c 0,85,86
 2019 1387 2019 1387 2018 1584 c 0,87,88
 2018 1762 2018 1762 2140 1901 c 1,89,-1
 1901 1901 l 1,90,-1
 1901 791 l 2,91,92
 1900.99789474 790.004210526 1900.99789474 790.004210526 1900.99789474 789.010517452 c 0,93,94
 1900.99789474 318 1900.99789474 318 2374 318 c 2,75,-1
EndSplineSet
Validated: 1
EndChar

StartChar: Euro
Encoding: 8364 8364 221
Width: 2926
VWidth: 4050
Flags: W
LayerCount: 2
Fore
SplineSet
2374 2058 m 2,0,1
 2438 2058 2438 2058 2485.5 2012 c 128,-1,2
 2533 1966 2533 1966 2533 1901 c 256,3,4
 2533 1837 2533 1837 2486.5 1788.5 c 128,-1,5
 2440 1740 2440 1740 2374 1740 c 2,6,-1
 482 1740 l 1,7,8
 474 1664 474 1664 474 1584 c 256,9,10
 474 1504 474 1504 482 1426 c 1,11,-1
 2374 1426 l 2,12,13
 2438 1426 2438 1426 2485.5 1379 c 128,-1,14
 2533 1332 2533 1332 2533 1266 c 256,15,16
 2533 1202 2533 1202 2486.5 1155 c 128,-1,17
 2440 1108 2440 1108 2374 1108 c 2,18,-1
 564 1108 l 1,19,20
 654 877 654 877 848 690 c 0,21,22
 1218 318 1218 318 1740 318 c 0,23,24
 2194 318 2194 318 2533 594 c 0,25,26
 2573 622 2573 622 2624 622 c 0,27,28
 2688 622 2688 622 2735 575 c 128,-1,29
 2782 528 2782 528 2782 462 c 256,30,31
 2782 398 2782 398 2737 352 c 0,32,33
 2297 0 2297 0 1740 0 c 0,34,35
 1084 0 1084 0 620 464 c 128,-1,36
 156 928 156 928 156 1584 c 256,37,38
 156 2240 156 2240 621 2703 c 128,-1,39
 1086 3166 1086 3166 1740 3166 c 0,40,41
 2306 3166 2306 3166 2748 2804 c 0,42,43
 2794 2758 2794 2758 2794 2692 c 256,44,45
 2794 2628 2794 2628 2748 2580.5 c 128,-1,46
 2702 2533 2702 2533 2637 2533 c 256,47,48
 2573 2533 2573 2533 2522 2580 c 0,49,50
 2190 2848 2190 2848 1748 2848 c 0,51,52
 1744 2848 1744 2848 1740 2848 c 0,53,54
 1216 2848 1216 2848 848 2478 c 0,55,56
 656 2286 656 2286 564 2058 c 1,57,-1
 2374 2058 l 2,0,1
EndSplineSet
Validated: 1
EndChar

StartChar: afii61352
Encoding: 8470 8470 222
Width: 4747
VWidth: 4050
Flags: W
LayerCount: 2
Fore
SplineSet
474 156 m 2,0,1
 474 92 474 92 428 46 c 128,-1,2
 382 0 382 0 318 0 c 256,3,4
 254 0 254 0 205 46 c 128,-1,5
 156 92 156 92 156 156 c 2,6,-1
 156 3007 l 2,7,8
 156 3071 156 3071 204 3118.5 c 128,-1,9
 252 3166 252 3166 318 3166 c 0,10,11
 388 3166 388 3166 438 3109 c 2,12,-1
 2374 620 l 1,13,-1
 2374 3007 l 2,14,15
 2374 3071 2374 3071 2420.5 3118.5 c 128,-1,16
 2467 3166 2467 3166 2533 3166 c 256,17,18
 2597 3166 2597 3166 2644.5 3120 c 128,-1,19
 2692 3074 2692 3074 2692 3007 c 2,20,-1
 2692 156 l 2,21,22
 2692 94 2692 94 2645 46 c 0,23,24
 2601 0 2601 0 2533 0 c 0,25,26
 2465 0 2465 0 2414 50 c 2,27,-1
 474 2545 l 1,28,-1
 474 156 l 2,0,1
4591 2374 m 256,29,30
 4591 2046 4591 2046 4359 1815 c 128,-1,31
 4127 1584 4127 1584 3798 1584 c 256,32,33
 3470 1584 3470 1584 3238.5 1815 c 128,-1,34
 3007 2046 3007 2046 3007 2374 c 256,35,36
 3007 2702 3007 2702 3239 2934 c 128,-1,37
 3471 3166 3471 3166 3798 3166 c 256,38,39
 4126 3166 4126 3166 4358.5 2934 c 128,-1,40
 4591 2702 4591 2702 4591 2374 c 256,29,30
3798 2848 m 256,41,42
 3602 2848 3602 2848 3463 2709 c 128,-1,43
 3324 2570 3324 2570 3324 2374 c 256,44,45
 3324 2178 3324 2178 3464 2039.5 c 128,-1,46
 3604 1901 3604 1901 3798 1901 c 256,47,48
 3994 1901 3994 1901 4135 2039 c 128,-1,49
 4276 2177 4276 2177 4276 2374 c 256,50,51
 4276 2570 4276 2570 4135 2709 c 128,-1,52
 3994 2848 3994 2848 3798 2848 c 256,41,42
3166 1108 m 2,53,54
 3102 1108 3102 1108 3054.5 1155 c 128,-1,55
 3007 1202 3007 1202 3007 1266 c 256,56,57
 3007 1330 3007 1330 3054 1378 c 128,-1,58
 3101 1426 3101 1426 3166 1426 c 2,59,-1
 4432 1426 l 2,60,61
 4496 1426 4496 1426 4543.5 1379 c 128,-1,62
 4591 1332 4591 1332 4591 1266 c 256,63,64
 4591 1202 4591 1202 4544 1155 c 128,-1,65
 4497 1108 4497 1108 4432 1108 c 2,66,-1
 3166 1108 l 2,53,54
EndSplineSet
Validated: 1
EndChar

StartChar: partialdiff
Encoding: 8706 8706 224
Width: 2530
VWidth: 4050
Flags: W
LayerCount: 2
Fore
SplineSet
1266 1901 m 256,0,1
 938 1901 938 1901 706 1669 c 128,-1,2
 474 1437 474 1437 474 1108 c 256,3,4
 474 780 474 780 706 549 c 128,-1,5
 938 318 938 318 1266 318 c 256,6,7
 1594 318 1594 318 1826 549 c 128,-1,8
 2058 780 2058 780 2058 1108 c 256,9,10
 2058 1436 2058 1436 1826 1668.5 c 128,-1,11
 1594 1901 1594 1901 1266 1901 c 256,0,1
2374 1108 m 2,12,13
 2374 650 2374 650 2049 325 c 128,-1,14
 1724 0 1724 0 1266 0 c 256,15,16
 808 0 808 0 482 325 c 128,-1,17
 156 650 156 650 156 1108 c 256,18,19
 156 1566 156 1566 481 1891 c 128,-1,20
 806 2216 806 2216 1266 2216 c 256,21,22
 1724 2216 1724 2216 2048 1895 c 1,23,24
 2002 2257 2002 2257 1732 2524 c 0,25,26
 1407.99693252 2848.00306748 1407.99693252 2848.00306748 952.802438933 2848.00306748 c 0,27,28
 951.401840491 2848.00306748 951.401840491 2848.00306748 950 2848 c 0,29,30
 762 2848 762 2848 594 2796 c 0,31,32
 566 2784 566 2784 534 2784 c 0,33,34
 470 2784 470 2784 423 2831 c 128,-1,35
 376 2878 376 2878 376 2942 c 256,36,37
 376 3006 376 3006 422 3056 c 0,38,39
 456 3090 456 3090 504 3101 c 0,40,41
 714 3165 714 3165 950 3166 c 0,42,43
 1540 3166 1540 3166 1957 2749 c 128,-1,44
 2374 2332 2374 2332 2374 1740 c 2,45,-1
 2374 1108 l 2,12,13
EndSplineSet
Validated: 1
EndChar

StartChar: Delta
Encoding: 8710 8710 225
Width: 2848
VWidth: 4050
Flags: W
LayerCount: 2
Fore
SplineSet
318 0 m 2,0,1
 254 0 254 0 205 46 c 128,-1,2
 156 92 156 92 156 156 c 0,3,4
 156 200 156 200 178 248 c 2,5,-1
 1280 3068 l 2,6,7
 1292 3098 1292 3098 1314 3118 c 0,8,9
 1360 3165 1360 3165 1426 3166 c 256,10,11
 1490 3166 1490 3166 1538 3118 c 0,12,13
 1558 3096 1558 3096 1570 3068 c 2,14,-1
 2672 248 l 2,15,16
 2692 202 2692 202 2692 156 c 0,17,18
 2692 94 2692 94 2645 46 c 0,19,20
 2601 0 2601 0 2533 0 c 2,21,-1
 318 0 l 2,0,1
2302 318 m 1,22,-1
 1426 2570 l 1,23,-1
 548 318 l 1,24,-1
 2302 318 l 1,22,-1
EndSplineSet
Validated: 1
EndChar

StartChar: product
Encoding: 8719 8719 226
Width: 2848
VWidth: 4050
Flags: W
LayerCount: 2
Fore
SplineSet
318 3166 m 2,0,-1
 2533 3166 l 2,1,2
 2597 3166 2597 3166 2644.5 3120 c 128,-1,3
 2692 3074 2692 3074 2692 3007 c 2,4,-1
 2692 -791 l 2,5,6
 2692 -855 2692 -855 2645 -902 c 0,7,8
 2601 -948 2601 -948 2533 -950 c 256,9,10
 2469 -950 2469 -950 2421.5 -904 c 128,-1,11
 2374 -858 2374 -858 2374 -791 c 2,12,-1
 2374 2848 l 1,13,-1
 474 2848 l 1,14,-1
 474 -791 l 2,15,16
 474 -855 474 -855 428 -902.5 c 128,-1,17
 382 -950 382 -950 318 -950 c 256,18,19
 254 -950 254 -950 205 -904 c 128,-1,20
 156 -858 156 -858 156 -791 c 2,21,-1
 156 3007 l 2,22,23
 156 3071 156 3071 205 3118.5 c 128,-1,24
 254 3166 254 3166 318 3166 c 2,0,-1
EndSplineSet
Validated: 1
EndChar

StartChar: summation
Encoding: 8721 8721 227
Width: 2848
VWidth: 4050
Flags: W
LayerCount: 2
Fore
SplineSet
2533 -634 m 2,0,1
 2597 -634 2597 -634 2644.5 -680 c 128,-1,2
 2692 -726 2692 -726 2692 -791 c 256,3,4
 2692 -855 2692 -855 2645 -902 c 0,5,6
 2601 -948 2601 -948 2533 -950 c 2,7,-1
 342 -950 l 2,8,9
 252 -950 252 -950 204 -904 c 128,-1,10
 156 -858 156 -858 156 -791 c 0,11,12
 156 -737 156 -737 192 -693 c 2,13,-1
 1694 1108 l 1,14,-1
 192 2909 l 2,15,16
 158 2953 158 2953 156 3007 c 0,17,18
 156 3071 156 3071 204 3118.5 c 128,-1,19
 252 3166 252 3166 318 3166 c 2,20,-1
 2533 3166 l 2,21,22
 2597 3166 2597 3166 2644.5 3120 c 128,-1,23
 2692 3074 2692 3074 2692 3007 c 256,24,25
 2692 2943 2692 2943 2645 2896 c 0,26,27
 2601 2850 2601 2850 2533 2848 c 2,28,-1
 654 2848 l 1,29,-1
 2022 1210 l 2,30,31
 2058 1166 2058 1166 2058 1108 c 256,32,33
 2058 1052 2058 1052 2022 1006 c 2,34,-1
 656 -634 l 1,35,-1
 2533 -634 l 2,0,1
EndSplineSet
Validated: 1
EndChar

StartChar: minus
Encoding: 8722 8722 228
Width: 2213
VWidth: 4050
Flags: W
LayerCount: 2
Fore
SplineSet
318 1266 m 2,0,1
 254 1266 254 1266 205 1312 c 128,-1,2
 156 1358 156 1358 156 1426 c 256,3,4
 156 1490 156 1490 204 1537 c 128,-1,5
 252 1584 252 1584 318 1584 c 2,6,-1
 1901 1584 l 2,7,8
 1965 1584 1965 1584 2011.5 1537 c 128,-1,9
 2058 1490 2058 1490 2058 1426 c 256,10,11
 2058 1362 2058 1362 2012 1314 c 128,-1,12
 1966 1266 1966 1266 1901 1266 c 2,13,-1
 318 1266 l 2,0,1
EndSplineSet
Validated: 1
EndChar

StartChar: radical
Encoding: 8730 8730 229
Width: 3163
VWidth: 4050
Flags: W
LayerCount: 2
Fore
SplineSet
2533 3483 m 2,0,-1
 2848 3483 l 2,1,2
 2912 3483 2912 3483 2959.5 3436 c 128,-1,3
 3007 3389 3007 3389 3007 3324 c 256,4,5
 3007 3260 3007 3260 2961 3213 c 128,-1,6
 2915 3166 2915 3166 2848 3166 c 2,7,-1
 2631 3166 l 1,8,-1
 1092 88 l 2,9,10
 1080 64 1080 64 1063 46 c 0,11,12
 1016 0 1016 0 950 0 c 256,13,14
 886 0 886 0 838 46 c 0,15,16
 820 62 820 62 810 80 c 2,17,-1
 178 1347 l 2,18,19
 158 1381 158 1381 156 1426 c 0,20,21
 156 1490 156 1490 204 1537 c 128,-1,22
 252 1584 252 1584 318 1584 c 256,23,24
 382 1584 382 1584 428 1538 c 0,25,26
 450 1514 450 1514 462 1488 c 2,27,-1
 950 514 l 1,28,-1
 2386 3385 l 2,29,30
 2400 3413 2400 3413 2422 3436 c 0,31,32
 2469 3483 2469 3483 2533 3483 c 2,0,-1
EndSplineSet
Validated: 1
EndChar

StartChar: infinity
Encoding: 8734 8734 230
Width: 3163
VWidth: 4050
Flags: W
LayerCount: 2
Fore
SplineSet
950 1901 m 256,0,1
 754 1901 754 1901 614 1761 c 128,-1,2
 474 1621 474 1621 474 1426 c 256,3,4
 474 1230 474 1230 614 1090 c 128,-1,5
 754 950 754 950 950 950 c 256,6,7
 1146 950 1146 950 1286 1090 c 128,-1,8
 1426 1230 1426 1230 1426 1426 c 256,9,10
 1426 1622 1426 1622 1286 1761.5 c 128,-1,11
 1146 1901 1146 1901 950 1901 c 256,0,1
2216 1901 m 256,12,13
 2020 1901 2020 1901 1880 1761 c 128,-1,14
 1740 1621 1740 1621 1740 1426 c 256,15,16
 1740 1230 1740 1230 1880 1090 c 128,-1,17
 2020 950 2020 950 2216 950 c 256,18,19
 2412 950 2412 950 2552 1090 c 128,-1,20
 2692 1230 2692 1230 2692 1426 c 256,21,22
 2692 1622 2692 1622 2552 1761.5 c 128,-1,23
 2412 1901 2412 1901 2216 1901 c 256,12,13
1584 948 m 1,24,25
 1550 904 1550 904 1510 866 c 0,26,27
 1278 634 1278 634 955 634 c 0,28,29
 952 634 952 634 950 634 c 256,30,31
 622 634 622 634 389 865 c 128,-1,32
 156 1096 156 1096 156 1426 c 256,33,34
 156 1754 156 1754 389 1985 c 128,-1,35
 622 2216 622 2216 950 2216 c 256,36,37
 1278 2216 1278 2216 1510 1985 c 0,38,39
 1550 1945 1550 1945 1584 1903 c 1,40,41
 1618 1947 1618 1947 1656 1985 c 0,42,43
 1887.00429185 2216.00429185 1887.00429185 2216.00429185 2207.2377093 2216.00429185 c 0,44,45
 2208.61802575 2216.00429185 2208.61802575 2216.00429185 2210 2216 c 0,46,47
 2213 2216 2213 2216 2216 2216 c 256,48,49
 2544 2216 2544 2216 2775.5 1984 c 128,-1,50
 3007 1752 3007 1752 3007 1426 c 256,51,52
 3007 1098 3007 1098 2776 866 c 128,-1,53
 2545 634 2545 634 2216 634 c 256,54,55
 1888 634 1888 634 1656 866 c 0,56,57
 1618 904 1618 904 1584 948 c 1,24,25
EndSplineSet
Validated: 1
EndChar

StartChar: integral
Encoding: 8747 8747 231
Width: 2213
VWidth: 4050
Flags: W
LayerCount: 2
Fore
SplineSet
1893 3028 m 256,0,1
 1829 3028 1829 3028 1780 3078 c 0,2,3
 1746 3110 1746 3110 1732 3176 c 0,4,5
 1726 3214 1726 3214 1704 3244 c 0,6,7
 1662 3294 1662 3294 1598 3303 c 256,8,9
 1587.65656566 3304.29292929 1587.65656566 3304.29292929 1577.61350883 3304.29292929 c 0,10,11
 1525.51515152 3304.29292929 1525.51515152 3304.29292929 1481.5 3269.5 c 0,12,13
 1429 3228 1429 3228 1422 3164 c 2,14,-1
 1106 -12 l 2,15,16
 1084 -208 1084 -208 930 -328 c 0,17,18
 798 -432 798 -432 638 -432 c 0,19,20
 410 -432 410 -432 264 -252 c 0,21,22
 180 -146 180 -146 160 -18 c 1,23,24
 160 64 160 64 208 110 c 128,-1,25
 256 156 256 156 322 156 c 256,26,27
 386 156 386 156 432 112 c 0,28,29
 470 72 470 72 476 24 c 0,30,31
 482 -20 482 -20 511 -54 c 0,32,33
 553 -104 553 -104 618 -114 c 0,34,35
 628.12244898 -115.306122449 628.12244898 -115.306122449 637.991670137 -115.306122449 c 0,36,37
 688.571428571 -115.306122449 688.571428571 -115.306122449 732.5 -81 c 0,38,39
 785 -40 785 -40 791 24 c 2,40,-1
 1106 3199 l 2,41,42
 1130 3395 1130 3395 1286 3518 c 0,43,44
 1416 3620 1416 3620 1578 3622 c 0,45,46
 1822 3612 1822 3612 1952 3438 c 0,47,48
 2036 3332 2036 3332 2050 3205 c 1,49,50
 2050 3123 2050 3123 2003.5 3075.5 c 128,-1,51
 1957 3028 1957 3028 1893 3028 c 256,0,1
EndSplineSet
Validated: 1
EndChar

StartChar: uniF001
Encoding: 61441 61441 235
AltUni2: 00fb01.ffffffff.0
Width: 2213
VWidth: 4050
Flags: W
LayerCount: 2
Fore
SplineSet
1740 2058 m 2,0,1
 1740 2122 1740 2122 1787 2169 c 128,-1,2
 1834 2216 1834 2216 1901 2216 c 256,3,4
 1965 2216 1965 2216 2011.5 2169 c 128,-1,5
 2058 2122 2058 2122 2058 2058 c 2,6,-1
 2058 156 l 2,7,8
 2058 92 2058 92 2012 46 c 128,-1,9
 1966 0 1966 0 1901 0 c 256,10,11
 1837 0 1837 0 1788.5 46 c 128,-1,12
 1740 92 1740 92 1740 156 c 2,13,-1
 1740 2058 l 2,0,1
1345 2848 m 0,14,15
 791 2848 791 2848 791 2216 c 2,16,-1
 791 2096 l 1,17,-1
 1268 2096 l 2,18,19
 1332 2096 1332 2096 1380 2050 c 128,-1,20
 1428 2004 1428 2004 1428 1940 c 256,21,22
 1428 1876 1428 1876 1381 1828 c 128,-1,23
 1334 1780 1334 1780 1268 1780 c 2,24,-1
 791 1780 l 1,25,-1
 791 156 l 2,26,27
 791 92 791 92 744.5 46 c 128,-1,28
 698 0 698 0 634 0 c 256,29,30
 570 0 570 0 522 46 c 128,-1,31
 474 92 474 92 474 156 c 2,32,-1
 474 1780 l 1,33,-1
 318 1780 l 2,34,35
 254 1780 254 1780 205 1828 c 128,-1,36
 156 1876 156 1876 156 1940 c 256,37,38
 156 2004 156 2004 204 2050 c 128,-1,39
 252 2096 252 2096 318 2096 c 2,40,-1
 474 2096 l 1,41,-1
 474 2216 l 2,42,43
 474 3164 474 3164 1341 3166 c 0,44,45
 1343 3166 1343 3166 1345 3166 c 0,46,47
 2096.00132802 3166 2096.00132802 3166 2096.00132802 2693.25812818 c 0,48,-1
 2096 2692 l 0,49,50
 2096 2612 2096 2612 2038.5 2552 c 128,-1,51
 1981 2492 1981 2492 1901 2492 c 256,52,53
 1821 2492 1821 2492 1761.5 2551 c 128,-1,54
 1702 2610 1702 2610 1702 2692 c 0,55,56
 1701 2848 1701 2848 1345 2848 c 0,14,15
EndSplineSet
Validated: 1
EndChar

StartChar: uniF002
Encoding: 61442 61442 236
AltUni2: 00fb02.ffffffff.0
Width: 2372
VWidth: 4050
Flags: W
LayerCount: 2
Fore
SplineSet
1584 2692 m 2,0,1
 1584 2848 1584 2848 1426 2848 c 0,2,3
 792 2848 792 2848 791 2216 c 2,4,-1
 791 2096 l 1,5,-1
 1268 2096 l 2,6,7
 1332 2096 1332 2096 1380 2050 c 128,-1,8
 1428 2004 1428 2004 1428 1940 c 256,9,10
 1428 1876 1428 1876 1381 1828 c 128,-1,11
 1334 1780 1334 1780 1268 1780 c 2,12,-1
 791 1780 l 1,13,-1
 791 156 l 2,14,15
 791 92 791 92 744.5 46 c 128,-1,16
 698 0 698 0 634 0 c 256,17,18
 570 0 570 0 522 46 c 128,-1,19
 474 92 474 92 474 156 c 2,20,-1
 474 1780 l 1,21,-1
 318 1780 l 2,22,23
 254 1780 254 1780 205 1828 c 128,-1,24
 156 1876 156 1876 156 1940 c 256,25,26
 156 2004 156 2004 204 2050 c 128,-1,27
 252 2096 252 2096 318 2096 c 2,28,-1
 474 2096 l 1,29,-1
 474 2216 l 2,30,31
 474 3164 474 3164 1422 3166 c 0,32,33
 1424 3166 1424 3166 1426 3166 c 0,34,35
 1900 3166 1900 3166 1901 2692 c 2,36,-1
 1901 318 l 1,37,-1
 2058 318 l 2,38,39
 2122 318 2122 318 2169 272 c 128,-1,40
 2216 226 2216 226 2216 156 c 256,41,42
 2216 92 2216 92 2169 46 c 128,-1,43
 2122 0 2122 0 2058 0 c 2,44,-1
 1740 0 l 2,45,46
 1676 0 1676 0 1630 46 c 128,-1,47
 1584 92 1584 92 1584 156 c 2,48,-1
 1584 2692 l 2,0,1
EndSplineSet
Validated: 1
EndChar

StartChar: dcroat
Encoding: 273 273 254
Width: 1423
VWidth: 2025
Flags: W
LayerCount: 2
Fore
SplineSet
1029 554 m 256,0,1
 1029 718 1029 718 913 834 c 128,-1,2
 797 950 797 950 633 950 c 256,3,4
 469 950 469 950 353 834 c 128,-1,5
 237 718 237 718 237 554 c 256,6,7
 237 390 237 390 353 274 c 128,-1,8
 469 158 469 158 633 158 c 256,9,10
 797 158 797 158 913 274 c 128,-1,11
 1029 390 1029 390 1029 554 c 256,0,1
1029 1425 m 1,12,-1
 1029 1506 l 2,13,14
 1029 1538 1029 1538 1051.5 1561.5 c 128,-1,15
 1074 1585 1074 1585 1108 1585 c 256,16,17
 1140 1585 1140 1585 1163.5 1562 c 128,-1,18
 1187 1539 1187 1539 1187 1506 c 2,19,-1
 1187 1425 l 1,20,-1
 1266 1425 l 2,21,22
 1298 1425 1298 1425 1322 1401 c 0,23,24
 1346 1377 1346 1377 1346 1346 c 256,25,26
 1346 1314 1346 1314 1322 1290 c 0,27,28
 1300 1266 1300 1266 1266 1266 c 2,29,-1
 1187 1266 l 1,30,-1
 1187 554 l 2,31,32
 1187 324 1187 324 1025 162 c 128,-1,33
 863 0 863 0 633 0 c 256,34,35
 403 0 403 0 240.5 162.5 c 128,-1,36
 78 325 78 325 78 554 c 256,37,38
 78 784 78 784 241 946 c 128,-1,39
 404 1108 404 1108 633 1108 c 256,40,41
 863 1108 863 1108 1025 946 c 0,42,43
 1027 944 1027 944 1029 943 c 2,44,-1
 1029 1266 l 1,45,-1
 712 1266 l 2,46,47
 680 1266 680 1266 656.5 1289 c 128,-1,48
 633 1312 633 1312 633 1346 c 256,49,50
 633 1378 633 1378 656 1401.5 c 128,-1,51
 679 1425 679 1425 712 1425 c 2,52,-1
 1029 1425 l 1,12,-1
EndSplineSet
Validated: 1
EndChar

StartChar: Hbar
Encoding: 294 294 275
Width: 1581
VWidth: 2025
Flags: W
LayerCount: 2
Fore
SplineSet
237 1306 m 1,0,-1
 237 1504 l 2,1,2
 237 1536 237 1536 261 1559 c 0,3,4
 283 1583 283 1583 317 1583 c 256,5,6
 349 1583 349 1583 372.5 1560 c 128,-1,7
 396 1537 396 1537 396 1504 c 2,8,-1
 396 1306 l 1,9,-1
 1187 1306 l 1,10,-1
 1187 1504 l 2,11,12
 1187 1536 1187 1536 1210 1559.5 c 128,-1,13
 1233 1583 1233 1583 1266 1583 c 256,14,15
 1298 1583 1298 1583 1322 1560 c 128,-1,16
 1346 1537 1346 1537 1346 1504 c 2,17,-1
 1346 1306 l 1,18,-1
 1425 1306 l 2,19,20
 1457 1306 1457 1306 1480.5 1282 c 128,-1,21
 1504 1258 1504 1258 1504 1227 c 256,22,23
 1504 1195 1504 1195 1481 1171 c 0,24,25
 1459 1147 1459 1147 1425 1148 c 2,26,-1
 1346 1148 l 1,27,-1
 1346 78 l 2,28,29
 1346 47 1346 47 1322 24 c 0,30,31
 1300 0 1300 0 1266 0 c 256,32,33
 1234 0 1234 0 1210.5 23 c 128,-1,34
 1187 46 1187 46 1187 78 c 2,35,-1
 1187 712 l 1,36,-1
 396 712 l 1,37,-1
 396 78 l 2,38,39
 396 46 396 46 372 23 c 0,40,41
 348 0 348 0 317 0 c 256,42,43
 285 0 285 0 261 23 c 128,-1,44
 237 46 237 46 237 78 c 2,45,-1
 237 1148 l 1,46,-1
 158 1148 l 2,47,48
 126 1148 126 1148 102 1171 c 0,49,50
 78 1195 78 1195 78 1227 c 256,51,52
 78 1259 78 1259 102.5 1282.5 c 128,-1,53
 127 1306 127 1306 158 1306 c 2,54,-1
 237 1306 l 1,0,-1
396 1148 m 1,55,-1
 396 871 l 1,56,-1
 1187 871 l 1,57,-1
 1187 1148 l 1,58,-1
 396 1148 l 1,55,-1
EndSplineSet
Validated: 1
EndChar

StartChar: hbar
Encoding: 295 295 276
Width: 1303
VWidth: 2025
Flags: W
LayerCount: 2
Fore
SplineSet
198 1425 m 1,0,-1
 198 1504 l 2,1,2
 198 1536 198 1536 220.5 1559.5 c 128,-1,3
 243 1583 243 1583 277 1583 c 256,4,5
 309 1583 309 1583 332.5 1560 c 128,-1,6
 356 1537 356 1537 356 1504 c 2,7,-1
 356 1425 l 1,8,-1
 673 1425 l 2,9,10
 705 1425 705 1425 728 1401 c 0,11,12
 752 1377 752 1377 752 1346 c 256,13,14
 752 1314 752 1314 728 1290 c 128,-1,15
 704 1266 704 1266 673 1266 c 2,16,-1
 356 1266 l 1,17,-1
 356 966 l 1,18,19
 504 1108 504 1108 710 1108 c 0,20,-1
 712 1108 l 0,21,22
 924 1108 924 1108 1075 957 c 0,23,24
 1226 805 1226 805 1227 594 c 2,25,-1
 1227 78 l 2,26,27
 1227 46 1227 46 1204 23 c 0,28,29
 1180 0 1180 0 1148 0 c 256,30,31
 1116 0 1116 0 1092.5 23 c 128,-1,32
 1069 46 1069 46 1069 78 c 2,33,-1
 1069 594 l 2,34,35
 1069 742 1069 742 964 846 c 128,-1,36
 859 950 859 950 712 950 c 256,37,38
 564 950 564 950 460 845 c 0,39,40
 356 740 356 740 356 594 c 2,41,-1
 356 78 l 2,42,43
 356 46 356 46 333.5 23 c 128,-1,44
 311 0 311 0 277 0 c 256,45,46
 245 0 245 0 221.5 23 c 128,-1,47
 198 46 198 46 198 78 c 2,48,-1
 198 1266 l 1,49,-1
 119 1266 l 2,50,51
 87 1266 87 1266 63.5 1289 c 128,-1,52
 40 1312 40 1312 40 1346 c 256,53,54
 40 1378 40 1378 63 1401 c 0,55,56
 85 1425 85 1425 119 1425 c 2,57,-1
 198 1425 l 1,0,-1
EndSplineSet
Validated: 1
EndChar

StartChar: jcircumflex
Encoding: 309 309 289
Width: 749
VWidth: 2025
Flags: W
LayerCount: 2
Fore
SplineSet
396 0 m 2,0,-1
 396 1029 l 2,1,2
 396 1061 396 1061 419 1084.5 c 128,-1,3
 442 1108 442 1108 475 1108 c 256,4,5
 507 1108 507 1108 530.5 1084.5 c 128,-1,6
 554 1061 554 1061 554 1029 c 2,7,-1
 554 0 l 2,8,9
 554 -197 554 -197 415 -336 c 128,-1,10
 276 -475 276 -475 78 -475 c 0,11,12
 46 -475 46 -475 23 -452 c 128,-1,13
 0 -429 0 -429 0 -396 c 256,14,15
 0 -364 0 -364 23 -340.5 c 128,-1,16
 46 -317 46 -317 78 -317 c 0,17,18
 211 -317 211 -317 303.5 -225 c 128,-1,19
 396 -133 396 -133 396 0 c 2,0,-1
516 1524 m 2,20,-1
 753 1365 l 2,21,22
 760 1361 760 1361 770 1353 c 0,23,24
 794 1329 794 1329 793 1296 c 256,25,26
 793 1264 793 1264 769.5 1240.5 c 128,-1,27
 746 1217 746 1217 714 1217 c 0,28,29
 686 1217 686 1217 664 1233 c 2,30,-1
 476 1358 l 1,31,-1
 288 1233 l 2,32,33
 267 1216 267 1216 237 1217 c 0,34,35
 205 1217 205 1217 182.5 1239.5 c 128,-1,36
 160 1262 160 1262 160 1296 c 256,37,38
 160 1328 160 1328 183 1353 c 0,39,40
 191 1361 191 1361 199 1365 c 2,41,-1
 435 1524 l 2,42,43
 453 1534 453 1534 476 1534 c 256,44,45
 498 1534 498 1534 516 1524 c 2,20,-1
EndSplineSet
Validated: 1
EndChar

StartChar: kgreenlandic
Encoding: 312 312 292
Width: 1106
VWidth: 2025
Flags: W
LayerCount: 2
Fore
SplineSet
237 661 m 1,0,-1
 906 1095 l 2,1,2
 924 1107 924 1107 950 1108 c 0,3,4
 982 1108 982 1108 1005.5 1084.5 c 128,-1,5
 1029 1061 1029 1061 1029 1029 c 256,6,7
 1029 997 1029 997 1006 974 c 0,8,9
 1000 968 1000 968 995 964 c 2,10,-1
 536 665 l 1,11,-1
 1007 135 l 2,12,13
 1029 111 1029 111 1029 78 c 0,14,15
 1029 46 1029 46 1006 23 c 128,-1,16
 983 0 983 0 950 0 c 256,17,18
 918 0 918 0 892 24 c 2,19,-1
 400 578 l 1,20,-1
 237 472 l 1,21,-1
 237 78 l 2,22,23
 237 46 237 46 214 23 c 0,24,25
 190 0 190 0 158 0 c 256,26,27
 126 0 126 0 102 23 c 128,-1,28
 78 46 78 46 78 78 c 2,29,-1
 78 1028 l 2,30,31
 78 1060 78 1060 102.5 1083.5 c 128,-1,32
 127 1107 127 1107 158 1107 c 256,33,34
 190 1107 190 1107 213.5 1084 c 128,-1,35
 237 1061 237 1061 237 1028 c 2,36,-1
 237 661 l 1,0,-1
EndSplineSet
Validated: 1
EndChar

StartChar: Lslash
Encoding: 321 321 301
Width: 1343
VWidth: 2025
Flags: W
LayerCount: 2
Fore
SplineSet
237 827 m 1,0,-1
 237 1504 l 2,1,2
 237 1536 237 1536 261 1559 c 0,3,4
 283 1583 283 1583 317 1583 c 256,5,6
 349 1583 349 1583 372.5 1560 c 128,-1,7
 396 1537 396 1537 396 1504 c 2,8,-1
 396 983 l 1,9,-1
 499 1084 l 2,10,11
 522 1108 522 1108 555 1108 c 128,-1,12
 588 1108 588 1108 611 1084 c 0,13,14
 634 1060 634 1060 634 1028 c 0,15,16
 634 995 634 995 611 974 c 2,17,-1
 396 762 l 1,18,-1
 396 158 l 1,19,-1
 1187 158 l 2,20,21
 1219 158 1219 158 1242.5 135.5 c 128,-1,22
 1266 113 1266 113 1266 78 c 256,23,24
 1266 46 1266 46 1243 23 c 128,-1,25
 1220 0 1220 0 1187 0 c 2,26,-1
 317 0 l 2,27,28
 285 0 285 0 261 23 c 128,-1,29
 237 46 237 46 237 78 c 2,30,-1
 237 605 l 1,31,-1
 160 528 l 2,32,33
 137 504 137 504 103 504.5 c 128,-1,34
 69 505 69 505 47 528 c 0,35,36
 23 552 23 552 24 584 c 256,37,38
 24 616 24 616 47 639 c 2,39,-1
 237 827 l 1,0,-1
EndSplineSet
Validated: 1
EndChar

StartChar: lslash
Encoding: 322 322 302
Width: 711
VWidth: 2025
Flags: W
LayerCount: 2
Fore
SplineSet
237 827 m 1,0,-1
 237 1504 l 2,1,2
 237 1536 237 1536 261 1559 c 0,3,4
 283 1583 283 1583 317 1583 c 256,5,6
 349 1583 349 1583 372.5 1560 c 128,-1,7
 396 1537 396 1537 396 1504 c 2,8,-1
 396 983 l 1,9,-1
 499 1084 l 2,10,11
 522 1108 522 1108 555 1108 c 128,-1,12
 588 1108 588 1108 611 1084 c 0,13,14
 634 1060 634 1060 633 1029 c 256,15,16
 633 997 633 997 611 974 c 2,17,-1
 396 762 l 1,18,-1
 396 158 l 1,19,-1
 475 158 l 2,20,21
 507 158 507 158 530.5 135.5 c 128,-1,22
 554 113 554 113 554 78 c 256,23,24
 554 46 554 46 531.5 23 c 128,-1,25
 509 0 509 0 475 0 c 2,26,-1
 317 0 l 2,27,28
 285 0 285 0 261 23 c 128,-1,29
 237 46 237 46 237 78 c 2,30,-1
 237 605 l 1,31,-1
 160 528 l 2,32,33
 137 504 137 504 103 504.5 c 128,-1,34
 69 505 69 505 47 528 c 0,35,36
 23 552 23 552 24 584 c 256,37,38
 24 616 24 616 47 639 c 2,39,-1
 237 827 l 1,0,-1
EndSplineSet
Validated: 1
EndChar

StartChar: Eng
Encoding: 330 330 310
Width: 1423
VWidth: 2025
Flags: W
LayerCount: 2
Fore
SplineSet
237 78 m 2,0,1
 237 46 237 46 214 23 c 0,2,3
 190 0 190 0 158 0 c 256,4,5
 126 0 126 0 102 23 c 128,-1,6
 78 46 78 46 78 78 c 2,7,-1
 78 1504 l 2,8,9
 78 1536 78 1536 102.5 1559.5 c 128,-1,10
 127 1583 127 1583 158 1583 c 256,11,12
 190 1583 190 1583 213.5 1560 c 128,-1,13
 237 1537 237 1537 237 1504 c 2,14,-1
 237 1368 l 1,15,16
 250 1383 250 1383 265 1398 c 0,17,18
 449 1583 449 1583 712 1583 c 256,19,20
 974 1583 974 1583 1160 1397 c 0,21,22
 1346 1211 1346 1211 1346 950 c 2,23,-1
 1346 475 l 2,24,25
 1346 278 1346 278 1206.5 139 c 128,-1,26
 1067 0 1067 0 871 0 c 256,27,28
 674 0 674 0 535 140 c 0,29,30
 512 163 512 163 512 196 c 256,31,32
 512 228 512 228 535 251.5 c 128,-1,33
 558 275 558 275 590 275 c 256,34,35
 622 275 622 275 647 251 c 0,36,37
 738 158 738 158 869 158 c 0,38,-1
 871 158 l 256,39,40
 1004 158 1004 158 1095.5 251 c 128,-1,41
 1187 344 1187 344 1187 475 c 2,42,-1
 1187 950 l 2,43,44
 1187 1147 1187 1147 1047.5 1286 c 128,-1,45
 908 1425 908 1425 712 1425 c 256,46,47
 515 1425 515 1425 376 1286.5 c 128,-1,48
 237 1148 237 1148 237 950 c 2,49,-1
 237 78 l 2,0,1
EndSplineSet
Validated: 1
EndChar

StartChar: eng
Encoding: 331 331 311
Width: 1186
VWidth: 2025
Flags: W
LayerCount: 2
Fore
SplineSet
950 -158 m 2,0,-1
 950 594 l 2,1,2
 950 742 950 742 845 846 c 0,3,4
 740 950 740 950 594 950 c 256,5,6
 446 950 446 950 341 845 c 0,7,8
 237 740 237 740 237 594 c 2,9,-1
 237 78 l 2,10,11
 237 46 237 46 214 23 c 0,12,13
 190 0 190 0 158 0 c 256,14,15
 126 0 126 0 102 23 c 128,-1,16
 78 46 78 46 78 78 c 2,17,-1
 78 1029 l 2,18,19
 78 1061 78 1061 102.5 1084.5 c 128,-1,20
 127 1108 127 1108 158 1108 c 256,21,22
 190 1108 190 1108 213.5 1084.5 c 128,-1,23
 237 1061 237 1061 237 1029 c 2,24,-1
 237 966 l 1,25,26
 385 1108 385 1108 592 1108 c 0,27,-1
 594 1108 l 0,28,29
 806 1108 806 1108 957 957 c 0,30,31
 1108 805 1108 805 1108 594 c 2,32,-1
 1108 -158 l 2,33,34
 1108 -291 1108 -291 1016 -383 c 0,35,36
 923 -475 923 -475 791 -475 c 0,37,38
 714 -475 714 -475 649 -441 c 0,39,40
 613 -418 613 -418 611 -374 c 0,41,42
 611 -342 611 -342 635 -319 c 0,43,44
 659 -295 659 -295 691 -295 c 0,45,46
 707 -295 707 -295 720 -301 c 0,47,48
 752 -317 752 -317 791 -317 c 0,49,50
 856 -317 856 -317 903 -270 c 128,-1,51
 950 -223 950 -223 950 -158 c 2,0,-1
EndSplineSet
Validated: 1
EndChar

StartChar: OE
Encoding: 338 338 318
Width: 2135
VWidth: 2025
Flags: W
LayerCount: 2
Fore
SplineSet
871 1425 m 2,0,1
 609 1425 609 1425 423 1239 c 128,-1,2
 237 1053 237 1053 237 791 c 256,3,4
 237 529 237 529 423 343.5 c 128,-1,5
 609 158 609 158 871 158 c 2,6,-1
 950 158 l 1,7,-1
 950 1425 l 1,8,-1
 871 1425 l 2,0,1
871 0 m 2,9,10
 543 0 543 0 310 232 c 0,11,12
 78 463 78 463 78 791 c 256,13,14
 78 1119 78 1119 311 1351 c 0,15,16
 544 1583 544 1583 871 1583 c 2,17,-1
 1981 1583 l 2,18,19
 2013 1583 2013 1583 2035.5 1560 c 128,-1,20
 2058 1537 2058 1537 2058 1504 c 256,21,22
 2058 1472 2058 1472 2035 1448.5 c 128,-1,23
 2012 1425 2012 1425 1981 1425 c 2,24,-1
 1108 1425 l 1,25,-1
 1108 871 l 1,26,-1
 1742 871 l 2,27,28
 1774 871 1774 871 1798 847 c 0,29,30
 1822 823 1822 823 1821 791 c 0,31,32
 1821 757 1821 757 1798 734.5 c 128,-1,33
 1775 712 1775 712 1742 712 c 2,34,-1
 1108 712 l 1,35,-1
 1108 158 l 1,36,-1
 1979 158 l 2,37,38
 2011 158 2011 158 2034.5 135.5 c 128,-1,39
 2058 113 2058 113 2058 78 c 256,40,41
 2058 46 2058 46 2035 23 c 0,42,43
 2011 0 2011 0 1979 0 c 2,44,-1
 871 0 l 2,9,10
EndSplineSet
Validated: 1
EndChar

StartChar: oe
Encoding: 339 339 319
Width: 2214
VWidth: 2025
Flags: W
LayerCount: 2
Fore
SplineSet
633 950 m 256,0,1
 469 950 469 950 353 834 c 128,-1,2
 237 718 237 718 237 554 c 256,3,4
 237 390 237 390 353 274 c 128,-1,5
 469 158 469 158 633 158 c 256,6,7
 797 158 797 158 913 274 c 128,-1,8
 1029 390 1029 390 1029 554 c 256,9,10
 1029 718 1029 718 913 834 c 128,-1,11
 797 950 797 950 633 950 c 256,0,1
1973 633 m 1,12,13
 1951 748 1951 748 1863 834 c 0,14,15
 1746 950 1746 950 1583 950 c 256,16,17
 1419 950 1419 950 1303 834 c 0,18,19
 1216 747 1216 747 1194 633 c 1,20,-1
 1973 633 l 1,12,13
1108 266 m 1,21,22
 1074 211 1074 211 1025 162 c 0,23,24
 863 0 863 0 633 0 c 256,25,26
 403 0 403 0 240.5 162.5 c 128,-1,27
 78 325 78 325 78 554 c 256,28,29
 78 784 78 784 241 946 c 128,-1,30
 404 1108 404 1108 633 1108 c 256,31,32
 863 1108 863 1108 1025 946 c 0,33,34
 1072 899 1072 899 1108 842 c 1,35,36
 1142 896 1142 896 1191 946 c 0,37,38
 1353 1108 1353 1108 1580 1108 c 0,39,40
 1582 1108 1582 1108 1583 1108 c 256,41,42
 1813 1108 1813 1108 1975.5 946 c 128,-1,43
 2138 784 2138 784 2138 554 c 0,44,45
 2138 522 2138 522 2114 498.5 c 128,-1,46
 2090 475 2090 475 2058 475 c 2,47,-1
 1194 475 l 1,48,49
 1216 360 1216 360 1303 274 c 0,50,51
 1419 158 1419 158 1580 158 c 0,52,53
 1582 158 1582 158 1583 158 c 0,54,55
 1731 158 1731 158 1838 251 c 0,56,57
 1860 268 1860 268 1888 269 c 0,58,59
 1920 269 1920 269 1943.5 245.5 c 128,-1,60
 1967 222 1967 222 1967 190 c 256,61,62
 1967 158 1967 158 1945 135 c 0,63,64
 1791 0 1791 0 1583 0 c 0,65,66
 1353 0 1353 0 1191 162 c 0,67,68
 1142 211 1142 211 1108 266 c 1,21,22
EndSplineSet
Validated: 1
EndChar

StartChar: Tbar
Encoding: 358 358 338
Width: 1343
VWidth: 2025
Flags: W
LayerCount: 2
Fore
SplineSet
594 791 m 1,0,-1
 594 1425 l 1,1,-1
 158 1425 l 2,2,3
 126 1425 126 1425 102 1448 c 0,4,5
 78 1472 78 1472 78 1504 c 256,6,7
 78 1536 78 1536 102.5 1559.5 c 128,-1,8
 127 1583 127 1583 158 1583 c 2,9,-1
 1187 1583 l 2,10,11
 1219 1583 1219 1583 1242.5 1560 c 128,-1,12
 1266 1537 1266 1537 1266 1504 c 256,13,14
 1266 1472 1266 1472 1243 1448.5 c 128,-1,15
 1220 1425 1220 1425 1187 1425 c 2,16,-1
 752 1425 l 1,17,-1
 752 791 l 1,18,-1
 1069 791 l 2,19,20
 1101 791 1101 791 1124 768 c 0,21,22
 1148 744 1148 744 1148 712 c 256,23,24
 1148 680 1148 680 1124 657 c 0,25,26
 1102 633 1102 633 1069 633 c 2,27,-1
 752 633 l 1,28,-1
 752 78 l 2,29,30
 752 46 752 46 728 23 c 128,-1,31
 704 0 704 0 673 0 c 256,32,33
 641 0 641 0 617.5 23 c 128,-1,34
 594 46 594 46 594 78 c 2,35,-1
 594 633 l 1,36,-1
 277 633 l 2,37,38
 245 633 245 633 221.5 656 c 128,-1,39
 198 679 198 679 198 712 c 256,40,41
 198 744 198 744 220.5 767.5 c 128,-1,42
 243 791 243 791 277 791 c 2,43,-1
 594 791 l 1,0,-1
EndSplineSet
Validated: 1
EndChar

StartChar: tbar
Encoding: 359 359 339
Width: 789
VWidth: 2025
Flags: W
LayerCount: 2
Fore
SplineSet
396 554 m 1,0,-1
 396 396 l 2,1,2
 396 159 396 159 633 158 c 0,3,4
 665 158 665 158 688.5 135.5 c 128,-1,5
 712 113 712 113 712 78 c 256,6,7
 712 46 712 46 689 23 c 128,-1,8
 666 0 666 0 633 0 c 0,9,10
 237 0 237 0 237 396 c 2,11,-1
 237 554 l 1,12,-1
 158 554 l 2,13,14
 126 554 126 554 101.5 578 c 128,-1,15
 77 602 77 602 77 633 c 256,16,17
 77 665 77 665 101 688.5 c 128,-1,18
 125 712 125 712 158 712 c 2,19,-1
 237 712 l 1,20,-1
 237 950 l 1,21,-1
 158 950 l 2,22,23
 126 950 126 950 102 973 c 128,-1,24
 78 996 78 996 78 1029 c 256,25,26
 78 1061 78 1061 102.5 1084.5 c 128,-1,27
 127 1108 127 1108 158 1108 c 2,28,-1
 237 1108 l 1,29,-1
 237 1504 l 2,30,31
 237 1536 237 1536 261 1559 c 0,32,33
 283 1583 283 1583 317 1583 c 256,34,35
 349 1583 349 1583 372.5 1560 c 128,-1,36
 396 1537 396 1537 396 1504 c 2,37,-1
 396 1108 l 1,38,-1
 555 1108 l 2,39,40
 587 1108 587 1108 610.5 1084.5 c 128,-1,41
 634 1061 634 1061 634 1029 c 256,42,43
 634 997 634 997 611 973.5 c 128,-1,44
 588 950 588 950 555 950 c 2,45,-1
 396 950 l 1,46,-1
 396 712 l 1,47,-1
 554 712 l 2,48,49
 586 712 586 712 609.5 689 c 128,-1,50
 633 666 633 666 633 633 c 256,51,52
 633 601 633 601 609.5 577.5 c 128,-1,53
 586 554 586 554 554 554 c 2,54,-1
 396 554 l 1,0,-1
EndSplineSet
Validated: 1
EndChar

StartChar: longs
Encoding: 383 383 363
Width: 632
VWidth: 2025
Flags: W
LayerCount: 2
Fore
SplineSet
554 1583 m 0,0,1
 586 1583 586 1583 609.5 1560 c 128,-1,2
 633 1537 633 1537 633 1504 c 256,3,4
 633 1472 633 1472 609.5 1448.5 c 128,-1,5
 586 1425 586 1425 554 1425 c 0,6,7
 237 1425 237 1425 237 1108 c 2,8,-1
 237 78 l 2,9,10
 237 46 237 46 214 23 c 0,11,12
 190 0 190 0 158 0 c 256,13,14
 126 0 126 0 102 23 c 128,-1,15
 78 46 78 46 78 78 c 2,16,-1
 78 1108 l 2,17,18
 79 1583 79 1583 554 1583 c 0,0,1
EndSplineSet
Validated: 1
EndChar

